<?xml version="1.0" encoding="utf-8"?>
<!-- Generator: Adobe Illustrator 24.0.0, SVG Export Plug-In . SVG Version: 6.00 Build 0)  -->
<svg version="1.1" id="图层_1" xmlns="http://www.w3.org/2000/svg" xmlns:xlink="http://www.w3.org/1999/xlink" x="0px" y="0px"
	 viewBox="0 0 200 200" style="enable-background:new 0 0 200 200;" xml:space="preserve">
<style type="text/css">
	.st0{fill:#fff;}
</style>
<path class="st0" d="M69.2,163.7c0,10.6-8.6,19.2-19.2,19.2c-10.6,0-19.2-8.6-19.2-19.2c0-10.6,8.6-19.2,19.2-19.2
	C60.6,144.5,69.2,153.1,69.2,163.7L69.2,163.7z M176.9,163.7c0,10.6-8.6,19.2-19.2,19.2s-19.2-8.6-19.2-19.2
	c0-10.6,8.6-19.2,19.2-19.2S176.9,153.1,176.9,163.7L176.9,163.7z M194,98.2l-17.2-30.6c-3.5-4.2-5.9-7.7-11.5-7.7h-26.9V36.8
	c0-4.2-3.5-7.7-7.7-7.7H7.7c-4.2,0-7.7,3.5-7.7,7.7v115.3c0,4.2,3.5,7.7,7.7,7.7H23c1.9-13.2,13.2-23.5,27-23.5
	c13.8,0,25.1,10.3,27,23.5l53.7,0c1.9-13.2,13.2-23.5,27-23.5c13.8,0,25.1,10.3,27,23.5h7.6c4.2,0,7.7-3.5,7.7-7.7v-38.4
	C199.9,106.4,194,98.2,194,98.2L194,98.2z M146.1,113.7V75.3h18.8c1.2,0,3,1.8,3,1.8l16.2,30.1c1.4,2.1,3,4.6,3,6.5L146.1,113.7
	L146.1,113.7z"/>
</svg>
