<?xml version="1.0" encoding="utf-8"?>
<!-- Generator: Adobe Illustrator 24.0.0, SVG Export Plug-In . SVG Version: 6.00 Build 0)  -->
<svg version="1.1" id="图层_1" xmlns="http://www.w3.org/2000/svg" xmlns:xlink="http://www.w3.org/1999/xlink" x="0px" y="0px"
	 viewBox="0 0 200 200" style="enable-background:new 0 0 200 200;" xml:space="preserve">
<style type="text/css">
	.st0{fill:#fff;}
</style>
<path class="st0" d="M12.6,43.4h43.9V19.6c0-4.9,3.8-8.8,8.5-8.8h70c4.7,0,8.5,4,8.5,8.8v23.8h43.9c6.3,0,11.6,5.4,11.6,12v122
	c0,6.6-5.2,12-11.6,12H12.6c-6.4,0-11.6-5.4-11.6-12v-122C1,48.8,6.2,43.4,12.6,43.4z M82.3,49.8v10.4H95v13.2h10V60.1h12.7V49.8
	H105V36.6H95v13.2H82.3z M37.2,144c-1.4,0-2.5,1.1-2.5,2.6v17.5c0,1.4,1.1,2.5,2.5,2.5h16.9c1.4,0,2.5-1.1,2.5-2.5v-17.5
	c0-1.4-1.1-2.6-2.5-2.6H37.2z M91.5,144c-1.4,0-2.5,1.1-2.5,2.6v17.5c0,1.4,1.1,2.5,2.5,2.5h16.9c1.4,0,2.5-1.1,2.5-2.5v-17.5
	c0-1.4-1.1-2.6-2.5-2.6C108.5,144,91.5,144,91.5,144z M145.9,144c-1.4,0-2.5,1.1-2.5,2.6v17.5c0,1.4,1.1,2.5,2.5,2.5h16.9
	c1.4,0,2.5-1.1,2.5-2.5v-17.5c0-1.4-1.1-2.6-2.5-2.6H145.9z M37.2,100.1c-1.4,0-2.5,1.1-2.5,2.5v17.5c0,1.4,1.1,2.6,2.5,2.6h16.9
	c1.4,0,2.5-1.2,2.5-2.6v-17.5c0-1.4-1.1-2.5-2.5-2.5H37.2z M91.5,100.1c-1.4,0-2.5,1.1-2.5,2.5v17.5c0,1.4,1.1,2.6,2.5,2.6h16.9
	c1.4,0,2.5-1.2,2.5-2.6v-17.5c0-1.4-1.1-2.5-2.5-2.5C108.5,100.1,91.5,100.1,91.5,100.1z M145.9,100.1c-1.4,0-2.5,1.1-2.5,2.5v17.5
	c0,1.4,1.1,2.6,2.5,2.6h16.9c1.4,0,2.5-1.2,2.5-2.6v-17.5c0-1.4-1.1-2.5-2.5-2.5H145.9z"/>
</svg>
