<?xml version="1.0" encoding="utf-8"?>
<!-- Generator: Adobe Illustrator 24.0.0, SVG Export Plug-In . SVG Version: 6.00 Build 0)  -->
<svg version="1.1" id="图层_1" xmlns="http://www.w3.org/2000/svg" xmlns:xlink="http://www.w3.org/1999/xlink" x="0px" y="0px"
	 viewBox="0 0 200 200" style="enable-background:new 0 0 200 200;" xml:space="preserve">
<style type="text/css">
	.st0{fill:#fff;}
</style>
<path class="st0" d="M41.7,8.8H112v47.9c0,5.4,4.4,9.8,9.8,9.8h47.3v114.9c0,5.4-4.4,9.8-9.8,9.8H41.7c-5.4,0-9.8-4.4-9.8-9.8V18.6
	C31.9,13.2,36.3,8.8,41.7,8.8z M58.1,54.2c-1.3,0-2.3,1-2.3,2.3v6.9c0,1.3,1,2.3,2.3,2.3h29.8c1.3,0,2.3-1,2.3-2.3v-6.9
	c0-1.3-1-2.3-2.3-2.3H58.1z M58.1,31.9c-1.3,0-2.3,1-2.3,2.3v6.9c0,1.3,1,2.3,2.3,2.3h29.8c1.3,0,2.3-1,2.3-2.3v-6.9
	c0-1.3-1-2.3-2.3-2.3H58.1z M105.6,156.7c10.5-1.7,16-8.5,16-16.7c0-10.1-7.9-13.7-15.1-16.4c-5.7-2.1-11-3.6-11-7.6
	c0-3.1,2.3-5.2,7.2-5.2c4.1,0,7.8,1.9,11.7,4.6l6.4-8.6c-3.9-2.9-8.8-5.7-15.2-6.5v-9.9c0-0.6-0.5-1.1-1.1-1.1h-7.9
	c-0.6,0-1.1,0.5-1.1,1.1V101c-8.3,2.1-13.3,8-13.3,15.9c0,9,7.9,13.2,14.8,15.8c5.7,2.2,11.3,4.1,11.3,8.1c0,3.4-2.4,5.7-7.8,5.7
	c-5,0-9.7-2.1-14.5-5.9l-6.5,8.9c4.2,3.5,10.1,6.3,16,7.3v10.3c0,0.6,0.5,1.1,1.1,1.1h7.9c0.6,0,1.1-0.5,1.1-1.1L105.6,156.7
	L105.6,156.7z"/>
</svg>
