<?xml version="1.0" encoding="utf-8"?>
<!-- Generator: Adobe Illustrator 24.0.0, SVG Export Plug-In . SVG Version: 6.00 Build 0)  -->
<svg version="1.1" id="图层_1" xmlns="http://www.w3.org/2000/svg" xmlns:xlink="http://www.w3.org/1999/xlink" x="0px" y="0px"
	 viewBox="0 0 200 200" style="enable-background:new 0 0 200 200;" xml:space="preserve">
<style type="text/css">
	.st0{fill:#fff;}
</style>
<g>
	<path class="st0" d="M187.6,16c-0.6-2.4-2.4-4.2-4.8-4.8c-34.9-8-72.9,1.5-100.1,28.6c-3.8,3.8-7.3,7.9-10.5,12.3
		c-0.9,1.2-2.2,2.1-3.7,2.5c-14.2,3.5-27.8,10.9-39.1,22.2c-5.1,5.1-9.5,10.7-13.1,16.9c-3.1,5.2,2.2,11.4,7.9,9.3
		c9-3.3,18.7-5,28.7-5c-0.1,0.9-0.3,1.7-0.5,2.6c7,8.2,14.4,16.1,22,23.7c7.6,7.6,15.6,15,23.7,22c0.9-0.1,1.7-0.3,2.5-0.5
		c0,10-1.6,19.7-5,28.7c-2.1,5.7,4.1,11,9.3,7.9c6.2-3.7,11.8-8.1,16.9-13.1c11.3-11.3,18.7-25,22.2-39.1c0.4-1.5,1.2-2.8,2.5-3.7
		c4.4-3.2,8.5-6.7,12.3-10.5C186.1,88.9,195.6,50.9,187.6,16z M143.9,85.6c-8.5,8.5-22.2,8.5-30.7,0c-8.5-8.5-8.5-22.2,0-30.7
		s22.2-8.5,30.7,0S152.4,77.1,143.9,85.6z"/>
	<path class="st0" d="M37.4,132.7c-6.6,6.6-34.5,47.3-26.5,55.3c7.9,7.9,48.7-19.9,55.3-26.5c6.6-6.6,5.5-18.3-2.5-26.3
		C55.7,127.2,44,126.1,37.4,132.7z"/>
</g>
</svg>
