<?xml version="1.0" encoding="utf-8"?>
<!-- Generator: Adobe Illustrator 24.0.0, SVG Export Plug-In . SVG Version: 6.00 Build 0)  -->
<svg version="1.1" id="图层_1" xmlns="http://www.w3.org/2000/svg" xmlns:xlink="http://www.w3.org/1999/xlink" x="0px" y="0px"
	 viewBox="0 0 200 200" style="enable-background:new 0 0 200 200;" xml:space="preserve">
<style type="text/css">
	.st0{fill:#fff;}
</style>
<path class="st0" d="M165.7,40.1h-2.5v-9.4c0-10.4-9-18.8-20.2-18.8H57.1c-11.2,0-20.2,8.4-20.2,18.8l0,0v9.4h-2.5
	C17.6,40.1,4,52.7,4,68.3l0,0v9.4h192v-9.4C196,52.7,182.4,40.1,165.7,40.1L165.7,40.1z M52,30.8c0-2.6,2.3-4.7,5.1-4.7h85.9
	c2.8,0,5.1,2.1,5.1,4.7v9.4H52V30.8z M4,87v75c0,15.5,13.6,28.1,30.3,28.1h131.4c16.7,0,30.3-12.6,30.3-28.1V87H4z M123.3,145.1H107
	v15.1c0,3.6-3.1,6.5-7,6.5c-3.9,0-7-2.9-7-6.5v-15.1H76.7c-3.9,0-7-2.9-7-6.5c0-3.6,3.1-6.5,7-6.5H93v-15.1c0-3.6,3.1-6.5,7-6.5
	c3.9,0,7,2.9,7,6.5l0,0v15.1h16.3c3.9,0,7,2.9,7,6.5C130.3,142.2,127.2,145.1,123.3,145.1z"/>
</svg>
