<?xml version="1.0" encoding="utf-8"?>
<!-- Generator: Adobe Illustrator 24.0.0, SVG Export Plug-In . SVG Version: 6.00 Build 0)  -->
<svg version="1.1" id="图层_1" xmlns="http://www.w3.org/2000/svg" xmlns:xlink="http://www.w3.org/1999/xlink" x="0px" y="0px"
	 viewBox="0 0 218.9 200" style="enable-background:new 0 0 218.9 200;" xml:space="preserve">
<style type="text/css">
	.st0{fill:#fff;}
</style>
<path class="st0" d="M216.7,114.7c-1.3-2.9-4.1-4.7-7.1-4.7H197v-0.4l-13.4-77.1c-0.5-2.8-2.6-5.1-5.3-5.9l-53.5-15.4
	c-3-0.9-6.2,0.2-8.1,2.7L94.9,42.2l-7.3-6.3c-1.4-1.2-3.1-1.8-5-1.8H55.9c-3.1,0-5.9,1.9-7,4.8l-26.7,69.4c-0.2,0.5-0.3,1.2-0.4,1.8
	H9.2c-4.1,0.1-7.4,3.4-7.4,7.5c0,4,3.3,7.4,7.4,7.5h10.1L35,159.6c0.1,2.9,3.3,5,7.5,5h0.1c-0.5,1.9-0.9,3.8-0.9,5.8
	c0,11.4,9.4,20.7,20.9,20.7s20.9-9.3,20.9-20.7c0-2-0.3-3.9-1-5.8h53.6c-0.5,1.9-0.9,3.8-0.9,5.8c0,11.4,9.4,20.7,20.9,20.7
	c11.5,0,20.9-9.3,20.9-20.7c0-1.9-0.3-3.9-0.9-5.8h0.1c4.1,0,7.3-2.2,7.5-5l15.7-34.6h10.1c2,0,3.9-0.7,5.3-2.1
	C217.2,120.7,217.9,117.5,216.7,114.7L216.7,114.7z M62.7,176.1c-3.2,0-5.8-2.6-5.8-5.8s2.6-5.8,5.8-5.8c3.1,0,5.8,2.6,5.8,5.8
	C68.5,173.5,65.9,176.1,62.7,176.1z M156.2,176.1c-3.2,0-5.8-2.6-5.8-5.8s2.6-5.8,5.8-5.8c3.2,0,5.8,2.6,5.8,5.8
	C162,173.5,159.4,176.1,156.2,176.1z M182.9,106.3c0,3-2.4,5.3-5.4,5.3H43c-3,0-5.4-2.3-5.4-5.3v-0.9c0-3,2.5-5.3,5.4-5.3h134.5
	c3,0,5.4,2.3,5.4,5.3V106.3z"/>
</svg>
