<?xml version="1.0" encoding="utf-8"?>
<!-- Generator: Adobe Illustrator 24.0.0, SVG Export Plug-In . SVG Version: 6.00 Build 0)  -->
<svg version="1.1" id="图层_1" xmlns="http://www.w3.org/2000/svg" xmlns:xlink="http://www.w3.org/1999/xlink" x="0px" y="0px"
	 viewBox="0 0 200 200" style="enable-background:new 0 0 200 200;" xml:space="preserve">
<style type="text/css">
	.st0{fill:#fff;}
</style>
<path class="st0" d="M191.2,192.2c-12.8-14.2-35.6-24.9-63.3-29.4c-2.7-15.2-7.5-22.3-7.7-22.5c2.4-1,5-1.2,7.5-0.6
	c3.5,0.7,6,2.5,7.4,4.7c0.4,0.6,1.5,0.4,1.6-0.3c0.2-1.2,0.1-2.5-0.3-3.6c-1-3.5-3.9-6.1-7.4-6.8c-2.3-0.5-4.6-0.1-6.7,0.9
	c1.8-1.5,4.1-2.7,6.9-3.5c6-1.8,11.2-0.9,15.3,1.5c0.7,0.4,1.5-0.2,1.3-0.9c-0.8-2.6-2.4-4.9-4.5-6.6c-4.2-3.6-10-4.8-15.3-3.3
	c-1.7,0.5-3.2,1.3-4.6,2.3c3.3-4.1,8.3-6.5,13.5-6.6c1,0,1.4-1.3,0.7-1.9c-1.8-1.4-4-2.4-6.3-2.8c-5.9-1.2-12.1,0.5-15.9,4.9
	c-1.3,1.5-2.3,3.3-2.8,5.2c-1.7-1.3-3.5-2.2-5.5-2.7c-5.8-1.5-11.9,0.5-15.9,4.7c-1.6,1.5-2.7,3.5-3.3,5.6c-0.3,1,0.9,1.8,1.8,1.2
	c3.8-2.4,8.7-3.4,14.5-2.1l0.5,0.1c-7.3-0.4-13.9,4.6-15.6,11.7c-0.7,2.5-0.5,5.2,0.4,7.6c0.3,0.8,1.5,0.8,1.8,0
	c1.8-4.1,5.5-7.6,11.4-9.4c2.8-0.8,5.4-1.1,7.8-0.9c-2.3,0.3-4.4,1.3-6,2.9c-2.4,2.6-3.1,6.3-1.8,9.6c0.5,1.3,1.2,2.3,2.1,3.1
	c0.6,0.5,1.6,0.1,1.5-0.6c-0.2-2.9,0.9-5.8,3.1-7.9c1.6-1.8,3.7-3.1,6.1-3.5c0,0,3.4,7.8,3.8,19.1c-5.8-0.6-11.6-0.8-17.4-0.8
	c-14.5,0-28.3,1.7-40.8,4.8c2.6-52.9,37.3-88,37.4-88.1c4.3,2.7,7.9,6.7,10.2,12.4c3,7.4,2.5,14.1-0.2,19.7
	c-0.8,1.6,1.1,3.3,2.8,2.5c2.5-1.1,5-2.8,7.3-5.2c5.6-6.2,7.7-14.7,4.6-22.2c-2.1-4.8-5.8-8.7-10.4-11c5.4,1.4,10.9,4,16.2,7.9
	c11.3,8.4,16.3,18.8,16.6,29.2c0.1,1.9,2.6,2.8,4,1.3c3.7-4.1,6.5-9.4,7.4-16.4c1.7-12.1-2.7-24.6-13-32.1
	c-3.3-2.4-6.9-4.2-10.7-5.4l1.1,0.1c13.8,1.5,23.7,7.5,29.9,15.7c1.4,1.9,4.7,1.1,5-1.2c0.5-5-0.3-10.1-2.3-14.7
	c-5.2-12.3-16.7-21.4-30.7-22.5c-4.9-0.4-9.8,0.2-14.5,1.6c0.5-4.6-0.1-9.2-1.6-13.5c-4.3-12.6-16.4-21-30.3-22.9
	c-5.4-0.8-11-0.4-16.2,1.3c-1.3,0.4-2,1.7-1.6,3c0.2,0.7,0.8,1.3,1.5,1.6c10,3.8,18.6,11.5,23.4,23.9c0.2,0.3,0.3,0.7,0.4,1
	c-2.2-3.3-4.9-6.2-8.1-8.6C77,14.9,63,13.7,50.8,18c-7.2,2.6-12.2,6.4-15.6,10.9c-1.1,1.4,0.2,3.4,2,3c11-2.2,23.2-0.1,34.7,8.5
	c5.3,4,9.2,8.4,11.9,13c-3.7-3.9-8.5-6.3-13.8-7c-8.5-1.2-17,2.7-22.1,9.2c-2,2.6-3.2,5.2-3.8,7.8c-0.4,1.7,1.8,3.1,3.3,2
	c5.1-3.7,12-5.7,20.3-4.6c6.9,0.9,12.2,3.6,15.9,7.2C83,68.4,41.1,97.7,13.6,187.5c-1.6,1.5-3.2,3-4.7,4.6c-2.8,3.1-0.4,7.9,3.9,7.9
	h174.3C191.5,200,193.9,195.3,191.2,192.2"/>
</svg>
