<?xml version="1.0" encoding="utf-8"?>
<!-- Generator: Adobe Illustrator 24.0.0, SVG Export Plug-In . SVG Version: 6.00 Build 0)  -->
<svg version="1.1" id="图层_1" xmlns="http://www.w3.org/2000/svg" xmlns:xlink="http://www.w3.org/1999/xlink" x="0px" y="0px"
	 viewBox="0 0 200 200" style="enable-background:new 0 0 200 200;" xml:space="preserve">
<style type="text/css">
	.st0{fill:#fff;}
</style>
<path class="st0" d="M119.9,42.4h54.5c9.4,0,17.1,8.4,17.1,18.8V174c0,10.4-7.6,18.8-17.1,18.8H26.6c-9.4,0-17.1-8.4-17.1-18.8V61.2
	c0-10.4,7.6-18.8,17.1-18.8l0,0h48.8L53.9,18.6c-2.3-2.4-2.3-6.4-0.1-8.9c2.2-2.5,5.8-2.6,8-0.2c0,0.1,0.1,0.1,0.1,0.2l28.4,31.3
	c0.4,0.4,0.7,0.8,0.9,1.3h12.9c0.2-0.5,0.5-0.9,0.9-1.3l28.4-31.3c2.3-2.4,5.9-2.3,8,0.2c2.1,2.4,2.1,6.3,0,8.7L119.9,42.4z
	 M163.8,142.7h5.7c3.1,0,5.7-2.8,5.7-6.3s-2.5-6.3-5.7-6.3h-5.7c-3.1,0-5.7,2.8-5.7,6.3S160.6,142.7,163.8,142.7z M163.8,167.7h5.7
	c3.1,0,5.7-2.8,5.7-6.3c0-3.5-2.5-6.3-5.7-6.3h-5.7c-3.1,0-5.7,2.8-5.7,6.3C158.1,164.9,160.6,167.7,163.8,167.7z M43.7,67.5
	c-6.3,0-11.4,5.6-11.4,12.5v75.2c0,6.9,5.1,12.5,11.4,12.5c0,0,0,0,0,0h96.6c6.3,0,11.4-5.6,11.4-12.5v0V80
	c0-6.9-5.1-12.5-11.4-12.5l0,0H43.7z M43.7,80h96.6v75.2H43.7V80z"/>
</svg>
