<?xml version="1.0" encoding="utf-8"?>
<!-- Generator: Adobe Illustrator 24.0.0, SVG Export Plug-In . SVG Version: 6.00 Build 0)  -->
<svg version="1.1" id="图层_1" xmlns="http://www.w3.org/2000/svg" xmlns:xlink="http://www.w3.org/1999/xlink" x="0px" y="0px"
	 viewBox="0 0 200 200" style="enable-background:new 0 0 200 200;" xml:space="preserve">
<style type="text/css">
	.st0{fill:#fff;}
</style>
<path class="st0" d="M18.5,195.6c-1.8-0.3-4.6-1.2-4.9-1.5c-0.1-0.1-0.2-0.1-0.3-0.1c-0.1,0-0.5-0.2-0.8-0.4
	c-0.3-0.2-0.6-0.4-0.7-0.4c-0.2,0-1.8-1.4-2.5-2.1c-0.6-0.7-1.7-2.2-1.7-2.4c0,0-0.2-0.4-0.4-0.7c-0.2-0.4-0.5-1.3-0.7-2l-0.4-1.3
	v-6.3l0.4-1.8c0.3-1,0.6-2.1,0.7-2.5c0.6-1.7,1.5-3.8,2.1-4.9c0.8-1.5,1.6-3.1,1.9-3.6c0.1-0.2,0.4-0.7,0.6-1.2
	c0.2-0.5,0.5-0.9,0.6-1c0.2-0.2,1.1-1.9,1.1-2c0-0.1,0.7-1.3,1.2-2.2c0.1-0.2,0.2-0.4,0.2-0.5s0.2-0.4,0.5-0.9
	c0.4-0.7,0.7-1.2,1.3-2.5c0.2-0.3,0.5-0.9,0.7-1.3c0.2-0.4,0.6-1.1,0.8-1.4c0.2-0.4,0.4-0.7,0.4-0.7c0,0,0.1-0.1,0.1-0.2
	c0-0.1,0.2-0.4,0.4-0.7c0.2-0.3,0.4-0.6,0.4-0.6c0-0.1,1.2-2.3,1.9-3.6c0.2-0.3,0.3-0.6,0.3-0.7c0,0,0.3-0.6,0.7-1.4
	c0.4-0.7,0.7-1.3,0.7-1.3c0,0,0.2-0.4,0.4-0.7c0.2-0.4,0.4-0.7,0.4-0.8c0,0,0.3-0.6,0.7-1.3c0.4-0.7,0.8-1.4,0.9-1.6
	c0.4-0.9,0.9-1.8,1.1-2.1c0.2-0.2,0.3-0.5,0.3-0.5c0-0.1,0.2-0.4,0.3-0.7c0.8-1.5,1.9-3.5,1.9-3.5c0-0.1,0.8-1.6,1.2-2.2
	c0.1-0.1,0.2-0.4,0.3-0.5c0.3-0.7,1-2,1.1-2.2c0.2-0.3,1.1-1.9,1.1-2c0,0,0.2-0.3,0.3-0.7c0.2-0.3,0.5-1,0.8-1.4
	c0.2-0.5,0.6-1.1,0.8-1.4c0.2-0.3,0.3-0.6,0.3-0.7s0.2-0.4,0.3-0.7c0.2-0.3,0.5-1,0.8-1.4c0.2-0.5,0.6-1.1,0.8-1.4s0.4-0.7,0.5-0.9
	c0.1-0.2,0.2-0.5,0.4-0.6c0.1-0.1,0.3-0.4,0.4-0.6c0.3-0.6,1.5-2.9,2.1-4c0.3-0.6,0.6-1.2,0.7-1.3c0.1-0.2,1.3-2.4,1.9-3.6
	c0.2-0.3,0.3-0.6,0.3-0.7c0-0.1,0.1-0.2,0.2-0.4c0.3-0.5,1.2-2.2,1.2-2.3c0-0.1,0.2-0.4,0.4-0.7c0.2-0.4,0.4-0.7,0.4-0.8
	c0-0.1,0.1-0.3,0.3-0.5c0.2-0.2,0.4-0.7,0.6-1c0.5-0.9,0.5-1.1,1.3-2.5c0.8-1.4,0.8-1.5,1.4-2.7c0.2-0.5,0.5-0.9,0.6-1
	c0.1-0.1,0.2-0.3,0.2-0.3s0.2-0.4,0.4-0.8c0.2-0.4,0.4-0.7,0.4-0.8c0-0.1,0.6-1.2,1.2-2.2c0.1-0.2,0.2-0.4,0.2-0.5
	c0-0.1,0.2-0.4,0.3-0.7c0.2-0.3,0.5-1,0.8-1.4c0.2-0.5,0.6-1.1,0.8-1.4c0.2-0.3,0.3-0.6,0.3-0.7s0.2-0.4,0.3-0.7
	c0.2-0.3,0.5-1,0.8-1.4c0.5-1,1.1-2.1,1.4-2.7c0.1-0.2,0.3-0.5,0.3-0.6c0.4-0.7,1-1.9,1.3-2.4c0.2-0.3,0.3-0.6,0.3-0.7
	c0,0,0.1-0.3,0.2-0.5c0.6-1,1.2-2.1,1.2-2.2c0,0,0.3-0.6,0.6-1.2c0.3-0.6,0.8-1.4,0.9-1.8l0.3-0.7V20.3l-4.2-0.1l-4.2,0l-1.1-0.7
	c-3-1.8-4.4-5.4-3.6-9.3c0.3-1.5,0.8-2.6,1.8-3.7c0.6-0.7,1.1-1.1,1.8-1.5l1-0.6h57.2l0.9,0.5c0.7,0.4,1.1,0.7,1.8,1.5
	c1.1,1.2,1.2,1.4,1.6,2.6c0.4,1,0.7,2.4,0.7,3.3c0,2.2-1.1,4.9-2.4,6.2c-0.3,0.3-0.6,0.6-0.6,0.6c-0.2,0.2-1.8,1-2.3,1.1
	c-0.4,0.1-2.3,0.1-4.3,0.1h-3.6v42l0.8-1c1.7-2,3.8-3.3,6.3-3.8c0.5-0.1,6.5-0.2,17.6-0.2c18,0,17.3,0,18.4,0.7
	c2,1.2,2.9,4.1,2.1,6.8c-0.4,1.2-1.4,2.6-2.5,3.1l-0.7,0.3l-16.9,0.1c-19.1,0.1-17.5,0-18,1.2c-0.1,0.3-0.3,1.2-0.4,1.8
	c-0.1,0.9-0.2,1.4-0.5,1.9c-0.4,0.7-0.4,0.7,0.3,2.1c0.2,0.3,0.4,0.8,0.5,1.1c0.1,0.3,0.4,0.8,0.6,1.1c0.2,0.3,0.4,0.8,0.6,1.2
	c0.4,0.9,0.6,1.3,1,2c0.2,0.3,0.3,0.6,0.3,0.7c0,0.1,0.2,0.4,0.4,0.7c0.2,0.3,0.4,0.7,0.4,0.7c0,0.1,0.2,0.4,0.4,0.8
	c0.2,0.4,0.4,0.8,0.4,0.8c0,0,0.2,0.4,0.4,0.7c0.2,0.4,0.4,0.7,0.4,0.7c0,0,0.2,0.4,0.4,0.7c0.2,0.3,0.4,0.7,0.4,0.7
	c0,0.1,0.2,0.4,0.4,0.8c0.2,0.4,0.4,0.8,0.4,0.8s0.2,0.4,0.4,0.7c0.2,0.4,0.4,0.7,0.4,0.7c0,0,0.1,0.3,0.3,0.5
	c0.2,0.3,0.4,0.7,0.5,1.1c0.1,0.3,0.3,0.7,0.4,0.8c0.1,0.1,0.2,0.3,0.2,0.4c0,0.1,0.1,0.4,0.3,0.6l0.3,0.4l16.5-0.3
	c9.1-0.2,22.5-0.4,30-0.5c7.4-0.1,14.1-0.3,14.7-0.3l1.2-0.1l0-6.2l0-6.2l0.4-1.3c0.2-0.7,0.5-1.5,0.6-1.8c0.6-1.3,0.7-1.5,1-2.1
	c0.6-0.9,1.3-1.8,1.9-2.5c1.2-1.2,1.4-2.2,0.7-3.4c-0.6-1.2-0.2-1.1-10.5-1.1c-8.6,0-8.9,0-9.6-0.3c-1.2-0.4-2-1.3-2.6-2.7
	c-0.4-0.8-0.4-0.9-0.4-2.4c0-1.5,0-1.6,0.4-2.5c0.5-1.1,1.3-2,2.3-2.6l0.8-0.4h19.7l1.2,0.4c3.8,1.3,6.4,4.2,7.7,8.5l0.4,1.3l0,2.9
	v2.9l-0.4,1.4c-0.2,0.8-0.6,1.7-0.7,2c-0.2,0.3-0.3,0.6-0.3,0.7c0,0.3-2.1,3.1-2.6,3.4c-0.1,0.1-0.4,0.4-0.6,0.7l-0.3,0.6l-0.1,48
	l-0.1,48l-0.3,1.1c-0.2,0.6-0.4,1.5-0.5,2c-0.2,0.8-0.7,2.2-1,2.9c-0.1,0.1-0.2,0.5-0.4,0.8c-0.4,0.9-1.4,2.6-1.5,2.6
	c0,0-0.1,0.1-0.2,0.3c-0.1,0.2-1.2,1.6-2.1,2.7c-0.3,0.4-1.6,1.5-2,1.7c-0.2,0.1-0.3,0.2-0.3,0.3c-0.2,0.4-3.5,2-4.4,2.2
	c-0.3,0.1-1.1,0.3-1.7,0.4l-1.1,0.3l-77.6,0C54.1,195.7,18.9,195.7,18.5,195.6L18.5,195.6z M165.3,184.6c0-0.1,0-0.2-0.1-0.2
	c-0.1,0-0.3-0.5-0.5-1c-0.2-0.5-0.6-1.2-0.9-1.7c-0.2-0.5-0.5-1-0.6-1.3c-0.1-0.2-0.2-0.5-0.3-0.5c-0.1-0.1-0.3-0.5-0.6-1
	c-0.2-0.5-0.5-1.1-0.6-1.2c-0.1-0.2-0.3-0.7-0.6-1.1c-0.2-0.4-0.7-1.3-1-1.9c-0.3-0.6-0.8-1.5-1-1.9c-0.2-0.4-0.7-1.4-1.1-2.2
	c-0.4-0.8-0.8-1.5-0.8-1.6c0,0-0.1-0.3-0.3-0.5c-0.2-0.2-0.5-0.9-0.8-1.6c-0.3-0.6-0.8-1.7-1.2-2.3c-0.4-0.7-0.6-1.2-0.6-1.3
	c0-0.1-0.1-0.2-0.2-0.4c-0.1-0.1-0.3-0.4-0.4-0.7c-0.1-0.2-0.3-0.6-0.4-0.8c-0.1-0.2-0.4-0.7-0.6-1.1c-0.2-0.4-0.4-0.7-0.4-0.8
	c0,0-0.2-0.2-0.2-0.4c-0.1-0.2-0.4-0.8-0.7-1.4c-0.3-0.6-0.6-1.2-0.7-1.4c-0.1-0.2-0.4-0.8-0.7-1.3c-0.3-0.5-0.7-1.2-0.9-1.7
	c-0.6-1.1-0.8-1.6-1.4-2.6c-0.3-0.5-0.8-1.5-1.1-2.2s-0.7-1.4-0.9-1.6c-0.2-0.2-0.3-0.5-0.3-0.5c0,0-0.3-0.7-0.8-1.5
	c-0.4-0.8-0.8-1.5-0.8-1.5s-0.2-0.4-0.4-0.6c-0.2-0.3-0.4-0.6-0.4-0.7c0-0.1-0.1-0.4-0.3-0.6c-0.2-0.3-0.4-0.7-0.5-0.9
	c-0.1-0.2-0.4-0.8-0.7-1.4c-0.3-0.5-0.6-1.1-0.6-1.2c-0.1-0.2-0.3-0.5-0.5-0.9c-0.2-0.3-0.3-0.6-0.3-0.7c0-0.1-0.2-0.4-0.3-0.7
	c-0.3-0.5-0.9-1.7-1.3-2.4c-0.1-0.2-0.4-0.7-0.6-1.2c-0.3-0.5-0.6-1.1-0.6-1.2c-0.3-0.7-1-1.8-1.3-2.4c-0.2-0.3-0.3-0.6-0.3-0.7
	c0,0-0.1-0.4-0.3-0.7c-0.2-0.3-0.4-0.7-0.5-0.9c-0.1-0.2-0.4-0.7-0.6-1.2c-0.3-0.5-0.8-1.4-1.1-2.1c-0.3-0.7-0.7-1.4-0.9-1.6
	c-0.2-0.2-0.3-0.5-0.3-0.5c0,0-0.3-0.7-0.8-1.5c-0.4-0.8-0.8-1.5-0.8-1.5s-0.2-0.4-0.4-0.6c-0.2-0.3-0.4-0.6-0.4-0.7s0-0.2-0.1-0.2
	c-0.1,0-0.2-0.1-0.2-0.3c-0.2-0.5-1.5-2.9-1.9-3.7c-0.1-0.2-0.4-0.7-0.6-1.2s-0.7-1.4-1-2c-0.3-0.6-0.6-1.2-0.6-1.2
	c0-0.1-0.1-0.2-0.2-0.3c-0.1-0.1-0.4-0.6-0.6-1.1c-0.2-0.5-0.5-1.1-0.6-1.2c-0.1-0.2-0.4-0.7-0.6-1.1c-0.2-0.5-0.5-1-0.6-1.2
	c-0.1-0.2-0.3-0.5-0.4-0.7c-0.4-0.7-0.9-1.8-1.4-2.7c-0.3-0.5-0.6-1.1-0.7-1.3c-0.1-0.2-0.2-0.4-0.2-0.4c0,0-0.3-0.5-0.5-1
	c-0.5-1-0.5-1-1.8-0.3c-0.4,0.2-0.8,0.4-0.9,0.4c-0.2,0,0.2,0.9,0.8,1.9c0.1,0.2,0.3,0.5,0.3,0.5c0,0,0.2,0.4,0.4,0.8
	c0.4,0.8,0.5,0.8,1.2,2.2c0.8,1.5,0.9,1.6,1.4,2.6c0.3,0.5,0.8,1.4,1.1,2.1c0.3,0.7,0.7,1.4,0.9,1.6c0.2,0.2,0.3,0.5,0.3,0.5
	c0,0.1,1,2,2.3,4.4c0.3,0.6,0.6,1.2,0.6,1.2c0,0,0.2,0.3,0.3,0.7c0.3,0.5,1,1.8,1.3,2.4c0.5,0.9,1,2,1.1,2c0,0,0.2,0.4,0.4,0.8
	c0.2,0.4,0.5,0.9,0.6,1.2c0.5,0.9,1.4,2.6,2.1,4.1c0.2,0.4,0.5,0.9,0.6,1.1c0.2,0.2,0.3,0.5,0.3,0.5c0,0.1,0.2,0.5,1.1,2.1
	c0.2,0.3,0.3,0.6,0.3,0.7c0,0.1,0.2,0.4,0.4,0.8c0.2,0.4,0.4,0.7,0.4,0.8s0.1,0.2,0.2,0.3c0.1,0.1,0.3,0.5,0.5,0.9
	c0.4,0.9,1.2,2.2,1.8,3.4c0.3,0.5,0.5,0.9,0.5,1c0,0,0.1,0.3,0.3,0.7c0.5,0.9,0.6,1.1,0.8,1.5c0.1,0.2,0.6,1.1,1,1.9
	c0.4,0.8,0.8,1.5,0.8,1.6c0,0.1,0.2,0.4,0.4,0.6c0.2,0.3,0.4,0.6,0.4,0.7c0,0.1,0.2,0.4,0.4,0.7c0.2,0.3,0.4,0.6,0.4,0.7
	c0,0.1,0.1,0.3,0.3,0.5c0.2,0.2,0.4,0.7,0.6,1.1c0.2,0.4,0.4,0.7,0.4,0.8c0,0,0.2,0.2,0.2,0.4c0.2,0.5,1,2,1.6,3.1
	c0.3,0.5,0.5,1,0.6,1.2s0.2,0.5,0.3,0.6c0.1,0.2,0.4,0.6,0.5,0.9c0.7,1.3,1.3,2.5,1.8,3.3c0.2,0.3,0.3,0.6,0.3,0.7
	c0,0.1,0.5,1.1,1.1,2c0.1,0.1,0.4,0.7,0.7,1.3c0.3,0.6,0.7,1.3,0.9,1.6c0.2,0.3,0.3,0.6,0.3,0.7c0,0.1,0.2,0.4,0.4,0.7
	c0.2,0.3,0.4,0.6,0.4,0.7s0.3,0.6,0.6,1.2c0.3,0.6,0.8,1.4,1,1.8c0.2,0.4,0.5,0.9,0.6,1.2c0.6,1.2,1.3,2.5,1.5,2.8
	c0.1,0.2,0.2,0.4,0.2,0.4c0.2,0.2,0.6,1,0.6,1.1c0,0.1,0.2,0.4,0.4,0.7c0.2,0.3,0.4,0.6,0.4,0.7c0,0.1,0.1,0.4,0.3,0.6
	c0.2,0.3,0.4,0.7,0.5,0.9c0.2,0.4,1.1,2.1,1.4,2.8c0.3,0.5,1.2,2.3,1.8,3.5c0.9,1.7,0.7,1.6,2.1,1.6
	C164.7,184.7,165.3,184.6,165.3,184.6z M94,153.8c0.9-0.6,1.5-1.4,1.8-2.6c0.4-1.2,0.3-1.8,0-2.9c-0.6-2-2.1-3.1-3.8-3
	c-1,0.1-1.7,0.5-2.3,1.3c-1.5,1.7-1.5,4.5-0.1,6.3c0.8,1.1,1.8,1.6,3,1.5C93.1,154.3,93.4,154.2,94,153.8z M84.8,142
	c0.6-0.1,1.6-0.9,2.1-1.7c1.3-1.9,0.9-5.2-0.8-6.5c-1-0.7-1.1-0.8-2.1-0.8c-1.2,0-1.7,0.2-2.6,1.2c-1.1,1.2-1.6,3.1-1.1,4.5
	c0.4,1.1,0.8,1.8,1.5,2.5C82.6,142.1,83.6,142.3,84.8,142L84.8,142z M180.3,132.5c1.5-0.4,2.4-1.3,2.4-2.3c0-1.1-1.5-2.2-3.4-2.4
	c-0.6-0.1-4.9-0.1-9.7-0.1l-8.7,0l-0.9,0.5c-1.1,0.6-1.4,0.9-1.6,1.5c-0.2,0.4-0.2,0.5,0,1c0.3,0.7,1.1,1.3,2.2,1.7
	c0.8,0.3,1.3,0.3,9.8,0.3C179,132.8,179.4,132.7,180.3,132.5z M119,131.7c0-0.1-0.1-0.2-0.1-0.3c-0.1-0.1-0.2-0.3-0.3-0.4
	c-0.1-0.2-0.4-0.7-0.7-1.3c-0.3-0.5-0.6-1.2-0.7-1.4c-0.1-0.2-0.2-0.4-0.2-0.4c-0.1-0.1-0.6-1.1-1.2-2.3c-0.1-0.3-0.4-0.7-0.6-1
	c-0.2-0.3-0.4-0.8-0.6-1.1c-0.2-0.3-0.5-0.9-0.7-1.3c-0.2-0.4-0.4-0.8-0.4-0.9s-0.1-0.2-0.2-0.3c-0.1-0.1-0.3-0.5-0.5-1
	c-0.2-0.4-0.4-0.8-0.4-0.9c-0.1-0.1-0.7-1.3-1.1-2.1c-0.1-0.3-0.3-0.5-0.3-0.6c-0.1-0.1-0.4-0.6-0.7-1.2c-0.3-0.6-0.7-1.4-1-1.8
	c-0.2-0.4-0.6-1-0.7-1.3c-0.2-0.3-0.4-0.8-0.6-1.2c-0.2-0.3-0.3-0.6-0.3-0.6c0,0-0.3-0.6-0.6-1.2c-0.6-1.1-1.1-2-1.6-3
	c-0.3-0.6-1.3-2.5-1.9-3.5c-0.2-0.3-0.4-0.7-0.4-0.8c0-0.1-0.3-0.6-0.6-1.1c-0.6-1.1-1.4-2.7-1.6-3.1c-0.1-0.2-0.2-0.4-0.2-0.4
	c-0.1-0.1-0.7-1.3-1.1-2.2c-0.1-0.2-0.2-0.4-0.3-0.5c-0.5-0.8-1.3-2.4-1.3-2.5c0-0.1-0.2-0.3-0.4-0.6c-0.2-0.3-0.4-0.6-0.4-0.7
	c0-0.1-0.2-0.4-0.4-0.7c-0.2-0.3-0.4-0.6-0.4-0.7s-0.2-0.4-0.4-0.8c-0.2-0.4-0.4-0.7-0.4-0.7c0-0.1-0.7-1.5-1.2-2.2
	c-0.1-0.1-0.2-0.4-0.3-0.5c-0.3-0.7-1-2-1.1-2.2c-0.2-0.3-1.1-1.9-1.1-2c0,0-0.2-0.3-0.3-0.7c-0.2-0.3-0.6-1.1-0.9-1.6
	c-0.3-0.6-0.8-1.5-1.1-2.1c-0.3-0.6-0.6-1.1-0.6-1.1c0-0.1-0.1-0.2-0.2-0.3c-0.2-0.2-0.2-3.4-0.2-27.4V20.3H75.5v54.4l-0.4,0.6
	c-0.2,0.3-0.4,0.6-0.4,0.7c0,0-0.3,0.6-0.7,1.3c-0.4,0.7-0.8,1.4-0.8,1.6c-0.1,0.2-0.2,0.4-0.3,0.5c-0.1,0.2-1,1.8-1.3,2.3
	c-0.7,1.4-1,2-1.1,2.1c-0.1,0.1-0.2,0.2-0.2,0.3c0,0.1-0.3,0.8-1.2,2.3c-0.2,0.3-0.3,0.6-0.3,0.7c0,0-0.1,0.3-0.3,0.6
	c-0.2,0.3-0.4,0.7-0.5,0.9c-0.4,0.8-1.1,2.2-1.2,2.2c0,0-0.2,0.2-0.2,0.4c-0.2,0.4-1,2-1.4,2.7c-0.1,0.2-0.4,0.8-0.7,1.3
	c-0.8,1.5-1.3,2.5-1.5,2.9c-0.1,0.2-0.4,0.7-0.7,1.3c-0.3,0.5-0.7,1.3-1,1.8s-0.5,0.9-0.6,1.1c-0.1,0.2-0.3,0.5-1.1,2
	c-0.2,0.4-0.4,0.7-0.4,0.8c0,0.1-0.1,0.3-0.3,0.5c-0.3,0.4-0.7,1.2-1.1,2.1c-0.1,0.2-0.5,1-0.9,1.6c-1.3,2.4-1.5,2.7-1.5,2.9
	c0,0.1-0.1,0.2-0.2,0.4c-0.2,0.3-0.7,1.2-1.2,2.2c-0.3,0.6-1,1.9-1.3,2.3c-0.1,0.2-0.2,0.4-0.2,0.5c0,0.1-0.2,0.4-0.4,0.8
	c-0.8,1.4-1.8,3.2-2,3.6c-0.4,0.8-1.1,2.1-1.2,2.2c0,0-0.2,0.2-0.2,0.4c-0.1,0.2-0.4,0.8-0.7,1.4c-0.3,0.6-0.6,1.1-0.6,1.2
	c-0.6,1.1-0.8,1.6-1.1,2.1c-0.2,0.3-0.3,0.6-0.3,0.7c0,0-0.2,0.4-0.3,0.7c-0.2,0.3-0.4,0.7-0.4,0.8c-0.1,0.1,7.3,0.2,36.8,0.2
	C102.4,131.8,119,131.7,119,131.7L119,131.7z M180.6,115.6c1.2-0.4,2.1-1.4,2.1-2.2c0-1-1.4-2.1-3.1-2.3c-1.5-0.2-12.7-0.2-14,0
	c-3.1,0.6-3.9,2.9-1.5,4.2c0.1,0.1,0.6,0.2,1.1,0.4c0.8,0.2,1.4,0.3,7.7,0.2C179.1,115.8,180,115.8,180.6,115.6z"/>
</svg>
