<?xml version="1.0" encoding="utf-8"?>
<!-- Generator: Adobe Illustrator 24.0.0, SVG Export Plug-In . SVG Version: 6.00 Build 0)  -->
<svg version="1.1" id="图层_1" xmlns="http://www.w3.org/2000/svg" xmlns:xlink="http://www.w3.org/1999/xlink" x="0px" y="0px"
	 viewBox="0 0 200 200" style="enable-background:new 0 0 200 200;" xml:space="preserve">
<style type="text/css">
	.st0{fill:#fff;}
</style>
<path class="st0" d="M185.3,10.5c-6.1-4.1-13.2-4.1-19.4-2.1c-8.4,3.2-16,8.1-22.4,14.3l-21.4,21.5L35.6,23.8c-1,0-3.1,0-4.1,1
	L15.2,41.2c-2,2-2,4.1,0,6.1l1,1l66.2,36.9L48.8,119l-25.5-7.2h-1c-1,0-2,0-3.1,1L7.1,125.2c-2,2-2,4.1,0,6.1l32.6,24.6l24.5,32.8
	c1,1,2,2.1,3.1,2.1c1,0,2,0,3.1-1l12.2-12.3c1-1,1-3.1,1-4.1l-7.1-25.6l33.6-33.8l38.7,67.6c1,1,2,2,3.1,2h1c1,0,2,0,2-1l16.3-12.3
	c1-1,2-3.1,2-4.1L151.7,75l21.4-21.5c6.3-6.4,11.1-14.1,14.3-22.5C190.4,23.8,189.4,16.6,185.3,10.5L185.3,10.5z"/>
</svg>
