<?xml version="1.0" encoding="utf-8"?>
<!-- Generator: Adobe Illustrator 24.0.0, SVG Export Plug-In . SVG Version: 6.00 Build 0)  -->
<svg version="1.1" id="图层_1" xmlns="http://www.w3.org/2000/svg" xmlns:xlink="http://www.w3.org/1999/xlink" x="0px" y="0px"
	 viewBox="0 0 211.7 200" style="enable-background:new 0 0 211.7 200;" xml:space="preserve">
<style type="text/css">
	.st0{fill:#fff;}
</style>
<path class="st0" d="M199,174.1h-8.8V69.5c0-9.6-7.9-17.4-17.6-17.4h-35.3v122.1h-8.8V25.9c0-9.6-7.9-17.4-17.6-17.4H40.4
	c-9.7,0-17.6,7.8-17.6,17.4v148.2H14c-2.6,0-4.4,1.7-4.4,4.4v8.7c0,2.6,1.8,4.4,4.4,4.4H199c2.6,0,4.4-1.7,4.4-4.4v-8.7
	C203.5,175.9,201.7,174.1,199,174.1L199,174.1z M66.8,134.9c0,2.6-1.8,4.4-4.4,4.4H44.8c-2.6,0-4.4-1.7-4.4-4.4v-8.7
	c0-2.6,1.8-4.4,4.4-4.4h17.6c2.6,0,4.4,1.7,4.4,4.4L66.8,134.9L66.8,134.9z M66.8,100c0,2.6-1.8,4.4-4.4,4.4H44.8
	c-2.6,0-4.4-1.7-4.4-4.4v-8.7c0-2.6,1.8-4.4,4.4-4.4h17.6c2.6,0,4.4,1.7,4.4,4.4L66.8,100L66.8,100z M66.8,65.1
	c0,2.6-1.8,4.4-4.4,4.4H44.8c-2.6,0-4.4-1.7-4.4-4.4v-8.7c0-2.6,1.8-4.4,4.4-4.4h17.6c2.6,0,4.4,1.7,4.4,4.4L66.8,65.1L66.8,65.1z
	 M110.9,134.9c0,2.6-1.8,4.4-4.4,4.4H88.9c-2.6,0-4.4-1.7-4.4-4.4v-8.7c0-2.6,1.8-4.4,4.4-4.4h17.6c2.6,0,4.4,1.7,4.4,4.4V134.9
	L110.9,134.9z M110.9,100c0,2.6-1.8,4.4-4.4,4.4H88.9c-2.6,0-4.4-1.7-4.4-4.4v-8.7c0-2.6,1.8-4.4,4.4-4.4h17.6
	c2.6,0,4.4,1.7,4.4,4.4V100L110.9,100z M110.9,65.1c0,2.6-1.8,4.4-4.4,4.4H88.9c-2.6,0-4.4-1.7-4.4-4.4v-8.7c0-2.6,1.8-4.4,4.4-4.4
	h17.6c2.6,0,4.4,1.7,4.4,4.4V65.1z M177,134.9c0,2.6-1.8,4.4-4.4,4.4H155c-2.6,0-4.4-1.7-4.4-4.4v-8.7c0-2.6,1.8-4.4,4.4-4.4h17.6
	c2.6,0,4.4,1.7,4.4,4.4L177,134.9L177,134.9z M177,100c0,2.6-1.8,4.4-4.4,4.4H155c-2.6,0-4.4-1.7-4.4-4.4v-8.7
	c0-2.6,1.8-4.4,4.4-4.4h17.6c2.6,0,4.4,1.7,4.4,4.4L177,100L177,100z"/>
</svg>
