<?xml version="1.0" encoding="utf-8"?>
<!-- Generator: Adobe Illustrator 24.0.0, SVG Export Plug-In . SVG Version: 6.00 Build 0)  -->
<svg version="1.1" id="图层_1" xmlns="http://www.w3.org/2000/svg" xmlns:xlink="http://www.w3.org/1999/xlink" x="0px" y="0px"
	 viewBox="0 0 200 200" style="enable-background:new 0 0 200 200;" xml:space="preserve">
<style type="text/css">
	.st0{fill:#fff;}
</style>
<path class="st0" d="M171.8,130.7h-41.5v-16.2l-21.1,37.7l21.1,37.7v-16.1h21.1c5.1,0,10.1-2.7,12.8-7.5l26.2-46.5
	C186.6,126.6,179.4,130.8,171.8,130.7L171.8,130.7z M142.1,65.9l21.2-37.7l-13.6,8.1c0,0-5.3-9.5-7.5-13.3c-3-5.3-8.5-8.7-14.5-8.6
	c-5.9,0-11.5,3.3-14.5,8.7c0,0-4.9,8.6-9.7,17.4l9.9,17.5L99.9,66L142.1,65.9L142.1,65.9z M60.5,108.9l-20.8,36.8
	c-3.9,6.8-3.9,15.2-0.1,22.1l-26.2-46.5c-2.6-4.7-2.6-10.5,0.1-15.1l10.6-18.7l-13.6-8h42.4L74.1,117L60.5,108.9z M152.8,126.2
	l-21.1-37.7L168,67.1c8.3,14.9,18.8,33.5,18.8,33.5c3.1,5.3,3.1,11.8,0.1,17.2c-3,5.2-8.5,8.5-14.6,8.5L152.8,126.2L152.8,126.2z
	 M43.3,148.6c0,0,4.9-8.6,9.8-17.4h42.4v43.1H57.8c-6.1,0.1-11.7-3.2-14.6-8.5C40.2,160.4,40.3,153.9,43.3,148.6L43.3,148.6z
	 M109.7,21c-4.9,8.8-32.4,57.5-32.3,57.5L40.9,56.9c0,0,17.4-31.5,22-39.1c2.6-4.5,7.2-7.7,12.7-7.7h52.3
	C120.3,10.1,113.5,14.1,109.7,21L109.7,21z"/>
</svg>
