<?xml version="1.0" encoding="utf-8"?>
<!-- Generator: Adobe Illustrator 24.0.0, SVG Export Plug-In . SVG Version: 6.00 Build 0)  -->
<svg version="1.1" id="图层_1" xmlns="http://www.w3.org/2000/svg" xmlns:xlink="http://www.w3.org/1999/xlink" x="0px" y="0px"
	 viewBox="0 0 200 200" style="enable-background:new 0 0 200 200;" xml:space="preserve">
<style type="text/css">
	.st0{fill:#fff;}
</style>
<path class="st0" d="M67.5,194H52.2c-2.7,0-7.6-3.1-7.7-3.3C20.2,166.8,6.5,134.1,6.5,100c0-34.2,13.8-67.1,38.3-91c0,0,4.8-3,7.5-3
	h15.3c5.6,0,12.2,4.1,14.7,9.1l1.1,2.1c2.5,5,2.3,13.1-0.5,17.9L72.5,53c-2.8,4.9-9.6,8.9-15.2,8.9H47.1
	c-13.5,23.5-13.5,52.6,0,76.1h10.2c5.6,0,12.4,4.1,15.2,8.9l10.2,17.9c2.8,4.8,3,12.9,0.5,17.9l-1.1,2.1
	C79.7,189.9,73.1,194,67.5,194z M194.5,53v94c0,13-10.5,23.5-23.5,23.5H96.3c-0.5-4.1-1.5-8.1-3.4-11.5l-10.2-17.9
	c-4.9-8.6-15.6-14.8-25.4-14.8h-3c-7.4-16.7-7.4-35.9,0-52.6h3c9.8,0,20.5-6.2,25.4-14.8L93,40.9c1.9-3.3,2.9-7.4,3.4-11.5H171
	C184,29.5,194.5,40,194.5,53z M126.9,141.1c0-4.9-3.9-8.8-8.8-8.8c-4.9,0-8.8,3.9-8.8,8.8c0,4.9,3.9,8.8,8.8,8.8
	S126.9,146,126.9,141.1L126.9,141.1z M126.9,117.6c0-4.9-3.9-8.8-8.8-8.8c-4.9,0-8.8,3.9-8.8,8.8c0,4.9,3.9,8.8,8.8,8.8
	S126.9,122.5,126.9,117.6L126.9,117.6z M126.9,94.1c0-4.9-3.9-8.8-8.8-8.8c-4.9,0-8.8,3.9-8.8,8.8c0,4.9,3.9,8.8,8.8,8.8
	S126.9,99,126.9,94.1L126.9,94.1z M150.5,141.1c0-4.9-3.9-8.8-8.8-8.8s-8.8,3.9-8.8,8.8c0,4.9,3.9,8.8,8.8,8.8
	C146.5,150,150.5,146,150.5,141.1L150.5,141.1z M150.5,117.6c0-4.9-3.9-8.8-8.8-8.8s-8.8,3.9-8.8,8.8c0,4.9,3.9,8.8,8.8,8.8
	C146.5,126.4,150.5,122.5,150.5,117.6L150.5,117.6z M150.5,94.1c0-4.9-3.9-8.8-8.8-8.8s-8.8,3.9-8.8,8.8c0,4.9,3.9,8.8,8.8,8.8
	C146.5,102.9,150.5,99,150.5,94.1L150.5,94.1z M174,141.1c0-4.9-3.9-8.8-8.8-8.8s-8.8,3.9-8.8,8.8c0,4.9,3.9,8.8,8.8,8.8
	C170,150,174,146,174,141.1L174,141.1z M174,117.6c0-4.9-3.9-8.8-8.8-8.8s-8.8,3.9-8.8,8.8c0,4.9,3.9,8.8,8.8,8.8
	C170,126.4,174,122.5,174,117.6L174,117.6z M174,94.1c0-4.9-3.9-8.8-8.8-8.8s-8.8,3.9-8.8,8.8c0,4.9,3.9,8.8,8.8,8.8
	C170,102.9,174,99,174,94.1L174,94.1z M174,58.9c0-3.2-2.6-5.9-5.9-5.9h-52.9c-3.2,0-5.9,2.6-5.9,5.9v11.8c0,3.2,2.6,5.9,5.9,5.9
	h52.9c3.2,0,5.9-2.6,5.9-5.9V58.9z"/>
</svg>
