<?xml version="1.0" encoding="utf-8"?>
<!-- Generator: Adobe Illustrator 24.0.0, SVG Export Plug-In . SVG Version: 6.00 Build 0)  -->
<svg version="1.1" id="图层_1" xmlns="http://www.w3.org/2000/svg" xmlns:xlink="http://www.w3.org/1999/xlink" x="0px" y="0px"
	 viewBox="0 0 200 200" style="enable-background:new 0 0 200 200;" xml:space="preserve">
<style type="text/css">
	.st0{fill:#fff;}
</style>
<path class="st0" d="M15.2,46.3V128c0,2.6,2.1,4.7,4.7,4.7h81.7c1.4,0,2.8-0.7,3.8-1.9c0.7-1.2,0.9-2.8,0.5-4.3l-1.4-4.7l41.8-68.1
	l10.9,29.7c0.5,1.4,1.7,2.4,2.8,2.8l25.6,13.3c1.7,0.5,2.6,0.9,3.6,0.5c0.7-0.5,1.9-1.4,1.2-3.1l-27.1-74.8l-3.3-9.5
	c-0.7-1.9-2.4-3.1-4.5-3.1l-11.2,0.2c-1.7,0.2-3.1,0.9-4,2.4L93.6,88.3L79.3,44.6c-0.7-1.9-2.4-3.3-4.5-3.3H20.2
	C17.6,41.3,15.5,43.7,15.2,46.3L15.2,46.3z M48,51h23.3l15.9,48.2H48C48,99.2,48,51,48,51z"/>
<path class="st0" d="M141.3,116.1c2.1,17.6,18.3,30.1,36.1,28h0.2c1.4-0.2,2.6-1.4,3.3-2.8l13.3-32.3c0.7-1.7,0-3.8-1.2-5
	c-1.2-0.9-3.3-1.4-5-0.5c-3.1,1.4-8.8,9.7-11.9,10c-10.4,1.2-20.2-4-24.5-13.3c-0.9-1.4-2.6-2.4-4.3-2.4s-3.3,0.9-4,2.6
	C141.3,105.4,140.6,110.9,141.3,116.1L141.3,116.1z M4.1,169.3c0,10.4,9.7,19.2,21.4,19.2h107.1c11.9,0,21.4-8.8,21.4-19.2
	c0-10.7-9.5-19.5-21.4-19.5H25.4C13.6,149.8,4.1,158.6,4.1,169.3z M124.4,169.3c0-2.6,2.1-4.7,4.7-4.7s4.7,2.1,4.7,4.7
	s-2.1,4.7-4.7,4.7S124.4,171.9,124.4,169.3z M91,169.3c0-2.6,2.1-4.7,4.7-4.7c2.6,0,4.7,2.1,4.7,4.7s-2.1,4.7-4.7,4.7
	C93.1,174,91,171.9,91,169.3z M57.7,169.3c0-2.6,2.1-4.7,4.7-4.7s4.7,2.1,4.7,4.7s-2.1,4.7-4.7,4.7S57.7,171.9,57.7,169.3z
	 M24.2,169.3c0-2.6,2.1-4.7,4.7-4.7s4.7,2.1,4.7,4.7S31.6,174,29,174S24.2,171.9,24.2,169.3z"/>
</svg>
