<?xml version="1.0" encoding="utf-8"?>
<!-- Generator: Adobe Illustrator 24.0.0, SVG Export Plug-In . SVG Version: 6.00 Build 0)  -->
<svg version="1.1" id="图层_1" xmlns="http://www.w3.org/2000/svg" xmlns:xlink="http://www.w3.org/1999/xlink" x="0px" y="0px"
	 viewBox="0 0 200 200" style="enable-background:new 0 0 200 200;" xml:space="preserve">
<style type="text/css">
	.st0{fill:#fff;}
</style>
<path class="st0" d="M49.9,117.3v61.3h98.1v-61.3L49.9,117.3L49.9,117.3z M37.7,148H19.3C12.5,148,7,142.5,7,135.7V62.1
	c0-6.8,5.5-12.3,12.3-12.3h12.3V19.2c0-6.8,5.5-12.3,12.3-12.3h110.4c6.8,0,12.3,5.5,12.3,12.3v30.7h12.3c6.8,0,12.3,5.5,12.3,12.3
	v73.6c0,6.8-5.5,12.3-12.3,12.3h-18.4v30.7c0,6.8-5.5,12.3-12.3,12.3H49.9c-6.8,0-12.3-5.5-12.3-12.3L37.7,148L37.7,148z M43.8,19.2
	v30.7h110.4V19.2L43.8,19.2L43.8,19.2z M68.3,129.6h61.3c3.4-0.1,6.2,2.5,6.4,5.9c0.1,3.4-2.5,6.2-5.9,6.4c-0.2,0-0.4,0-0.5,0H68.3
	c-3.4,0.1-6.2-2.5-6.4-5.9c-0.1-3.4,2.5-6.2,5.9-6.4C68,129.6,68.1,129.6,68.3,129.6L68.3,129.6z M68.3,154.1h24.5
	c3.4,0,6.1,2.7,6.1,6.1c0,3.4-2.7,6.1-6.1,6.1H68.3c-3.4,0-6.1-2.7-6.1-6.1C62.2,156.9,64.9,154.1,68.3,154.1L68.3,154.1z"/>
</svg>
