<?xml version="1.0" encoding="utf-8"?>
<!-- Generator: Adobe Illustrator 24.0.0, SVG Export Plug-In . SVG Version: 6.00 Build 0)  -->
<svg version="1.1" id="图层_1" xmlns="http://www.w3.org/2000/svg" xmlns:xlink="http://www.w3.org/1999/xlink" x="0px" y="0px"
	 viewBox="0 0 200 200" style="enable-background:new 0 0 200 200;" xml:space="preserve">
<style type="text/css">
	.st0{fill:#fff;}
</style>
<path class="st0" d="M139.5,78.5h44.6c0-1.8,0.6-4.2,0.6-6c0-30.1-24.1-54.2-54.2-54.2c-16.3,0-30.7,7.2-41,18.7
	C113,40,132.9,56.3,139.5,78.5z M11.2,132.8C25.7,168.3,60,193,100.4,193s74.7-24.7,89.2-60.2H11.2z"/>
<path class="st0" d="M190.8,90.6h-60.8c-3-23.5-23.5-42.2-47.6-42.2c-6,0-12,1.2-17.5,3L20.3,8.1c-2.4-2.4-6-2.4-8.4,0s-2.4,6,0,8.4
	l42.2,41c-2.4,1.8-4.2,3.6-6,5.4L12.4,49c-3-1.2-6.6,0-7.8,3.6c-1.2,3,0,6.6,3.6,7.8l31.9,12.7c-3,5.4-4.8,11.4-5.4,17.5H10
	c-3.6,0-6,2.4-6,6c0,8.4,1.2,16.3,3,24.1h186.1c1.8-7.8,3-15.7,3-24.1C196.8,93,194.4,90.6,190.8,90.6z"/>
</svg>
