<?xml version="1.0" encoding="utf-8"?>
<!-- Generator: Adobe Illustrator 24.0.0, SVG Export Plug-In . SVG Version: 6.00 Build 0)  -->
<svg version="1.1" id="图层_1" xmlns="http://www.w3.org/2000/svg" xmlns:xlink="http://www.w3.org/1999/xlink" x="0px" y="0px"
	 viewBox="0 0 200 200" style="enable-background:new 0 0 200 200;" xml:space="preserve">
<style type="text/css">
	.st0{fill:#fff;}
</style>
<path class="st0" d="M32.1,73.6h-15c-2.9,0-5.5-1.9-6.4-4.6c-0.8-2.7,0.3-5.7,2.8-7.2l82.8-51.1c2.3-1.6,5.4-1.6,7.7,0l82.8,51.1
	c2.5,1.5,3.6,4.5,2.8,7.2c-0.8,2.7-3.4,4.6-6.4,4.6h-15V181c0,4.4-3.6,8-8,8H40.1c-4.4,0-8-3.6-8-8V73.6z M112.3,64l-50.5,65.5h36.9
	l-10.4,42.7l50.5-65.5h-36.9L112.3,64z"/>
</svg>
