<?xml version="1.0" encoding="utf-8"?>
<!-- Generator: Adobe Illustrator 24.0.0, SVG Export Plug-In . SVG Version: 6.00 Build 0)  -->
<svg version="1.1" id="图层_1" xmlns="http://www.w3.org/2000/svg" xmlns:xlink="http://www.w3.org/1999/xlink" x="0px" y="0px"
	 viewBox="0 0 200 200" style="enable-background:new 0 0 200 200;" xml:space="preserve">
<style type="text/css">
	.st0{fill:#fff;}
</style>
<path class="st0" d="M93.2,85.4H49.3V19.6c0-4,3.3-7.3,7.3-7.3h87.7c4,0,7.3,3.3,7.3,7.3v36.5h-51.2c-4,0-7.3,3.3-7.3,7.3V85.4z
	 M180.9,70.8c4,0,7.3,3.3,7.3,7.3v102.3c0,4-3.3,7.3-7.3,7.3H20.1c-4,0-7.3-3.3-7.3-7.3v-73.1c0-4,3.3-7.3,7.3-7.3h65.8
	c4,0,7.3,3.3,7.3,7.3v65.8h14.6v-95c0-4,3.3-7.3,7.3-7.3H180.9z M64,165.8v-14.6H42v14.6H64z M64,136.5v-14.6H42v14.6H64z
	 M159,165.8v-14.6H137v14.6H159z M159,136.5v-14.6H137v14.6H159z M159,107.3V92.7H137v14.6H159z"/>
</svg>
