<?xml version="1.0" encoding="utf-8"?>
<!-- Generator: Adobe Illustrator 24.0.0, SVG Export Plug-In . SVG Version: 6.00 Build 0)  -->
<svg version="1.1" id="图层_1" xmlns="http://www.w3.org/2000/svg" xmlns:xlink="http://www.w3.org/1999/xlink" x="0px" y="0px"
	 viewBox="0 0 200 200" style="enable-background:new 0 0 200 200;" xml:space="preserve">
<style type="text/css">
	.st0{fill:#fff;}
</style>
<g>
	<path class="st0" d="M95.8,3.3L54.5,51.8l58,38.7l43-48.4L95.8,3.3z"/>
	<path class="st0" d="M54.5,59.3l51.9,34.8l8.3,99.3H93.8L54.5,59.3z"/>
	<path class="st0" d="M155.6,46.9l-40.8,48.2l5.9,98.2l28.4-27.1L155.6,46.9z"/>
	<path class="st0" d="M12.9,92.7l-9.1,39.1l39.8,0.4l10.1-39.6L12.9,92.7z"/>
	<path class="st0" d="M5.7,135.7l35.6,0.5l41.2,59.4l-9.8,1.2L5.7,135.7z"/>
	<path class="st0" d="M54.9,95.1l-9,38.8l39.6,59.7l1.4-11.7L54.9,95.1z"/>
	<path class="st0" d="M181.4,94.1l-22.8,8l14.2,26.8l23.4-7.6L181.4,94.1z"/>
	<path class="st0" d="M157.3,104.9l12.7,24l-14.7,49.1l-4.1-6.1L157.3,104.9z"/>
	<path class="st0" d="M195.4,123.1l-22.6,8l-15.4,48.2l6.4-3.3L195.4,123.1z"/>
</g>
</svg>
