<?xml version="1.0" encoding="utf-8"?>
<!-- Generator: Adobe Illustrator 24.0.0, SVG Export Plug-In . SVG Version: 6.00 Build 0)  -->
<svg version="1.1" id="图层_1" xmlns="http://www.w3.org/2000/svg" xmlns:xlink="http://www.w3.org/1999/xlink" x="0px" y="0px"
	 viewBox="0 0 200 200" style="enable-background:new 0 0 200 200;" xml:space="preserve">
<style type="text/css">
	.st0{fill:#fff;}
</style>
<path class="st0" d="M37.7,126.2c5.8,0,10.5-4.7,10.5-10.5l0,0v-89c0-5.8-4.7-10.5-10.5-10.5c-5.8,0-10.5,4.7-10.5,10.5v89
	C27.2,121.5,31.9,126.2,37.7,126.2L37.7,126.2z M179,136.6h-42.5c-3.2,0.1-6.2,1.7-8,4.3c-7.2,7.8-17.4,11.9-27.9,11.4
	c-10.5,0.5-20.8-3.6-27.9-11.4c-1.8-2.6-4.8-4.2-8-4.3H22c-5.8,0-10.5,4.7-10.5,10.5l0,0v36.6c0,5.8,4.7,10.5,10.5,10.5h0h157
	c5.8,0,10.5-4.7,10.5-10.5l0,0v-36.6C189.5,141.3,184.8,136.6,179,136.6L179,136.6L179,136.6z M69.1,126.2h89
	c5.8,0,10.5-4.7,10.5-10.5l0,0V16.3c0-5.8-4.7-10.5-10.5-10.5l0,0h-89c-5.8,0-10.5,4.7-10.5,10.5v99.4
	C58.6,121.5,63.3,126.2,69.1,126.2z M79.6,32h68c2.9,0,5.2,2.3,5.2,5.2c0,2.9-2.3,5.2-5.2,5.2h-68c-2.9,0-5.2-2.3-5.2-5.2
	S76.7,32,79.6,32z M79.6,58.1h57.6c2.9,0,5.2,2.3,5.2,5.2c0,2.9-2.3,5.2-5.2,5.2H79.6c-2.9,0-5.2-2.3-5.2-5.2
	C74.3,60.5,76.7,58.1,79.6,58.1z M79.6,84.3h62.8c2.9,0,5.2,2.3,5.2,5.2c0,2.9-2.3,5.2-5.2,5.2l0,0H79.6c-2.9,0-5.2-2.3-5.2-5.2
	C74.3,86.6,76.7,84.3,79.6,84.3z"/>
</svg>
