<?xml version="1.0" encoding="utf-8"?>
<!-- Generator: Adobe Illustrator 24.0.0, SVG Export Plug-In . SVG Version: 6.00 Build 0)  -->
<svg version="1.1" id="图层_1" xmlns="http://www.w3.org/2000/svg" xmlns:xlink="http://www.w3.org/1999/xlink" x="0px" y="0px"
	 viewBox="0 0 200 200" style="enable-background:new 0 0 200 200;" xml:space="preserve">
<style type="text/css">
	.st0{fill:#fff;}
</style>
<g>
	<path class="st0" d="M77.4,51.4c5.4,0.8,16.9,1.5,16.9,1.5s3.5-26.2,2-48.8c0,0-17-1.5-34,4.3l-0.8,15.9l-2.9,0.2
		c-0.1-1.5-0.4-3.2-1.2-4.2l-0.4-9.7L34.8,9.7c0,0-5.2,0.3-10.4,2.4c-4.4,1.8-8.9,5.6-9.2,6.1l-0.1,3l-6.8,1l0.1,5.6l6.6,0.7
		L15,31.6c0,0,2,1.9,2.4,2.5c0.4,0.7,2,2.1,3.3,3.3c1.3,1.2,5.4,3.6,10.2,4.3s9.2,0.8,9.2,0.8s1.7,0.1,2.3,0.9
		c0.5,0.8,9.8,0.4,9.8,0.4s2.1,0.7,3.2-2.7s0.9-5.9,0.9-5.9s1.8-0.7,2.1-5.2l2.6,0.1l-0.8,16.3C60.2,46.5,71.9,50.6,77.4,51.4z"/>
	<path class="st0" d="M192.5,20.6c-0.2-0.7-0.4-1.5-0.6-2.2c-0.3-0.9-0.6-1.8-1.1-2.7c-1-2-2.4-3.7-4.2-5l-40.1-3.6l-0.7,0.8
		l-0.4,0.4L99.8,4.8c0,0-0.8,42.5-2.9,48.9l2.3,4.8c0,0,11.2,0.1,12.1,0.3c0.9,0.1,2.5,1.1,2.3,1.9S113,74.3,113,74.3
		s1.3,1.2,1.5,2.3c0,0.4,0.8,5.5,1.1,13.4c0.5,14,0.7,34.4,0.1,36.8c0,0-30,1.1-34.2,2.1c-4.1,1.1-7.3,2.7-8.1,6s-0.3,41.2-0.3,41.2
		s-0.5,16.1,10.2,18.6h7.3c2.5,0,44.1,0.3,47.1,0.3c2.9,0,17.4,0.7,21.7-8.5c1.5-3.3,1.8-8,2-12.6c0.2-4.5,0.4-8.9,0.4-8.9
		s-0.1-4,0.8-5.1c0.9-1.1-0.1-12.9,0.4-14.4c0.5-1.5,1.2-2.5,1.6-3.2c0.4-0.7,2.7-4.3-4.5-8.8c0,0-0.4-31.5-7.8-72.3
		c-0.3-1.5-1.3-8,3.9-8.9c5.2-0.9,27.1-0.9,27.1-0.9s4.3,0.3,6-1.9c1.7-2.1,4-7.6,4-12.4C193.2,34.2,193.9,27,192.5,20.6L192.5,20.6
		z M170.6,44.7l-7.4-0.5c-0.8,0-1.4-0.7-1.3-1.4c0-0.8,0.7-1.3,1.5-1.3l7.4,0.5c0.8,0.1,1.4,0.7,1.3,1.4
		C172.1,44.2,171.4,44.7,170.6,44.7z M173.6,41.1l-7.4-0.5c-0.8,0-1.4-0.7-1.3-1.4c0-0.8,0.7-1.3,1.5-1.3l7.4,0.5
		c0.8,0,1.4,0.7,1.3,1.4C175,40.6,174.3,41.1,173.6,41.1z M175.8,37.6l-7.4-0.5c-0.8,0-1.4-0.7-1.3-1.4c0-0.8,0.7-1.3,1.5-1.3
		l7.4,0.5c0.8,0,1.4,0.7,1.3,1.4C177.2,37.1,176.6,37.7,175.8,37.6z M177.8,34.2l-7.4-0.5c-0.8-0.1-1.4-0.7-1.3-1.4
		c0-0.8,0.7-1.3,1.5-1.3l7.4,0.5c0.8,0.1,1.4,0.7,1.3,1.4C179.3,33.7,178.6,34.3,177.8,34.2z M179.6,30.8l-7.4-0.5
		c-0.8-0.1-1.4-0.7-1.3-1.4c0-0.8,0.7-1.3,1.5-1.3l7.5,0.5c0.8,0.1,1.4,0.7,1.3,1.4C181.1,30.3,180.4,30.8,179.6,30.8L179.6,30.8z
		 M147.3,17.6l-1.6-8.9l1.1-0.9l1.6,4.3l41.6,3.7c0,0,1.8,2.5,1.8,4.7L147.3,17.6z"/>
	<path class="st0" d="M104.1,60.1v13.2h7.5V60.1H104.1z M166.2,52.7c-0.3,0-0.6-0.2-0.8-0.4c-0.3-0.4-0.2-1,0.3-1.3
		c17.8-11.8,19.8-29.7,19.8-29.9c0-0.5,0.5-0.8,1-0.8c0.5,0,0.9,0.5,0.8,1c-0.1,0.8-2.1,18.9-20.6,31.3
		C166.5,52.7,166.4,52.7,166.2,52.7z M154.8,49.8h-0.4l-51.2-0.3l1.6-32.6l1,0.1c2.4,0.2,57.9,5.3,61,6c1.4,0.3,2.1,1.1,2.3,1.7
		c0.7,1.4-0.2,3.1-0.3,3.2c-2.5,8.2-13.2,21-13.7,21.6L154.8,49.8z M105,47.7l48.9,0.3c1.7-2.1,10.9-13.5,13.1-20.8
		c0.2-0.4,0.5-1.3,0.3-1.8c-0.2-0.3-0.5-0.5-1.1-0.6c-2.3-0.5-39.6-4-59.8-5.9L105,47.7z M131.9,129.9c-4,0-9.3-0.8-16.4-2.3
		c-0.4-0.1-0.7-0.5-0.6-0.9c0.1-0.4,0.5-0.7,0.9-0.6c19.2,4.1,23.4,2.4,24.9-2.6c1.2-4.2-1.9-32.4-3.7-47c-1.1-1.2-5.7-6.4-6.3-7.7
		c-0.8-1.6-0.8-4.9,0.7-7.9c1.3-2.5,4.6-4.1,6.7-5c0.5-0.2,1-0.5,1.2-0.6c0.2-0.1,0.2-0.2,0.2-0.2c0-0.3-0.3-0.9-0.5-1.1
		c-0.3-0.3-0.2-0.8,0.1-1.1c0.3-0.3,0.8-0.2,1.1,0.1c0.1,0.1,1,1.3,0.8,2.4c-0.1,0.5-0.4,1-0.9,1.3c-0.3,0.2-0.8,0.4-1.4,0.7
		c-1.8,0.8-4.9,2.3-5.9,4.3c-1.4,2.9-1.2,5.5-0.7,6.5c0.5,0.9,4.1,5.1,6.3,7.5l0.2,0.2l0,0.2c0.2,1.7,5.3,42.4,3.7,47.9
		C141,128,138.1,129.9,131.9,129.9L131.9,129.9z M80.5,156.4c-0.5,0-5.3-0.2-8.4-7c-0.2-0.4,0-0.9,0.4-1c0.4-0.2,0.9,0,1,0.4
		c2.8,6,6.8,6,7,6.1c0.7,0,68.9-0.2,74.5-0.8c5.2-0.6,7-4.9,7.1-5.1c0.2-0.4,0.6-0.6,1-0.4c0.4,0.2,0.6,0.6,0.4,1
		c-0.1,0.2-2.2,5.4-8.4,6.1C149.5,156.3,83.4,156.4,80.5,156.4L80.5,156.4z"/>
</g>
</svg>
