<?xml version="1.0" encoding="utf-8"?>
<!-- Generator: Adobe Illustrator 24.0.0, SVG Export Plug-In . SVG Version: 6.00 Build 0)  -->
<svg version="1.1" id="图层_1" xmlns="http://www.w3.org/2000/svg" xmlns:xlink="http://www.w3.org/1999/xlink" x="0px" y="0px"
	 viewBox="0 0 200 200" style="enable-background:new 0 0 200 200;" xml:space="preserve">
<style type="text/css">
	.st0{fill:#fff;}
</style>
<path class="st0" d="M130.8,84.6c-5.3,0-9.6-4.3-9.6-9.6c0-12.7-10.3-22.9-22.9-22.9c-12.7,0-22.9,10.3-22.9,22.9
	c0,3.4-1.8,6.6-4.8,8.4c-3,1.7-6.7,1.7-9.6,0c-3-1.7-4.8-4.9-4.8-8.4c0-23.3,18.9-42.2,42.2-42.2c23.3,0,42.2,18.9,42.2,42.2
	C140.4,80.3,136.1,84.6,130.8,84.6L130.8,84.6z"/>
<path class="st0" d="M160.3,84.6c-5.3,0-9.6-4.3-9.6-9.6c0-29-23.5-52.5-52.5-52.5S45.8,46,45.8,74.9c0,5.3-4.3,9.6-9.6,9.6
	c-5.3,0-9.6-4.3-9.6-9.6c0-39.6,32.1-71.7,71.7-71.7c39.6,0,71.7,32.1,71.7,71.7C170,80.3,165.7,84.6,160.3,84.6z"/>
<path class="st0" d="M182.9,117.7h-74.8V84.6c0-5.3-4.3-9.6-9.6-9.6c-5.3,0-9.6,4.3-9.6,9.6v33.2H14.1c-6.7,0-12.1,5.4-12.1,12.1v54
	c0,6.7,5.4,12.1,12.1,12.1h168.8c6.7,0,12.1-5.4,12.1-12.1v-54c0-3.2-1.3-6.3-3.5-8.5C189.2,119,186.1,117.7,182.9,117.7
	L182.9,117.7z M31.8,166.4c-3.9,0-7.4-2.4-8.9-6c-1.5-3.6-0.7-7.8,2.1-10.5c2.8-2.8,6.9-3.6,10.5-2.1c3.6,1.5,6,5,6,8.9
	C41.5,162.1,37.1,166.4,31.8,166.4z M61,166.4c-3.9,0-7.4-2.4-8.9-6c-1.5-3.6-0.7-7.8,2.1-10.5c2.8-2.8,6.9-3.6,10.5-2.1
	c3.6,1.5,6,5,6,8.9C70.7,162.1,66.4,166.4,61,166.4z"/>
</svg>
