<?xml version="1.0" encoding="utf-8"?>
<!-- Generator: Adobe Illustrator 24.0.0, SVG Export Plug-In . SVG Version: 6.00 Build 0)  -->
<svg version="1.1" id="图层_1" xmlns="http://www.w3.org/2000/svg" xmlns:xlink="http://www.w3.org/1999/xlink" x="0px" y="0px"
	 viewBox="0 0 200 200" style="enable-background:new 0 0 200 200;" xml:space="preserve">
<style type="text/css">
	.st0{fill:#fff;}
</style>
<path class="st0" d="M186,193.3h-28.7l-6-12.2H48.4l-6,12.2H13.6L43,155.2c-5.8-1.5-10.5-4.4-14.3-8.8c-3.7-4.4-5.6-9.4-5.6-15.2
	V43.9c0-3.5,1-6.7,3-9.9c2-3.1,4.5-6,7.3-8.6s5.9-4.8,8.9-6.7c3-1.9,5.7-3.3,7.9-4.2c2.2-0.9,4.7-1.9,7.3-3c2.7-1.1,5.9-2,9.6-2.8
	c3.7-0.8,8-1.5,12.9-2C85.1,6.3,90.8,6,97.4,6c7.4,0,14,0.3,19.6,0.9c5.6,0.6,10.6,1.4,14.8,2.4c4.2,1,7.9,2.1,11.1,3.4
	s6.1,2.6,8.8,3.9c2.7,1.3,5.5,2.9,8.5,4.6s5.6,3.7,8,5.9c2.4,2.2,4.3,4.7,5.9,7.5s2.3,5.9,2.3,9.4v87.4c0,5.7-1.9,10.8-5.7,15.2
	s-8.6,7.3-14.4,8.8L186,193.3z M78.9,19c-1.9,0-3.6,0.6-4.9,1.8c-1.3,1.2-2,2.7-2,4.6c0,1.7,0.7,3.2,2,4.4c1.3,1.2,3,1.8,4.9,1.8
	h42.3c1.9,0,3.6-0.6,4.9-1.8c1.3-1.2,2-2.7,2-4.4c0-1.9-0.7-3.4-2-4.6c-1.3-1.2-3-1.8-4.9-1.8C121.2,19,78.9,19,78.9,19z M37,81.4
	h125.4V43.9H37C37,43.9,37,81.4,37,81.4z M44.1,146.2c2.7,0,5-0.9,6.9-2.6c1.9-1.7,2.9-3.8,2.9-6.2c0-2.5-1-4.7-2.9-6.4
	c-1.9-1.7-4.2-2.6-6.9-2.6c-2.8,0-5.2,0.9-7.1,2.6c-1.9,1.7-2.9,3.9-2.9,6.4c0,2.4,1,4.5,2.9,6.2C38.9,145.3,41.3,146.2,44.1,146.2z
	 M144.8,168.7l-6.2-12.6H61.1l-6.5,12.6H144.8z M145.5,137.4c0,2.4,1,4.5,2.9,6.2c1.9,1.7,4.3,2.6,7.1,2.6s5.2-0.9,7.1-2.6
	c1.9-1.7,2.9-3.8,2.9-6.2c0-2.5-1-4.7-2.9-6.4c-1.9-1.7-4.3-2.6-7.1-2.6s-5.2,0.9-7.1,2.6C146.4,132.8,145.5,134.9,145.5,137.4z"/>
</svg>
