<?xml version="1.0" encoding="utf-8"?>
<!-- Generator: Adobe Illustrator 24.0.0, SVG Export Plug-In . SVG Version: 6.00 Build 0)  -->
<svg version="1.1" id="图层_1" xmlns="http://www.w3.org/2000/svg" xmlns:xlink="http://www.w3.org/1999/xlink" x="0px" y="0px"
	 viewBox="0 0 200 200" style="enable-background:new 0 0 200 200;" xml:space="preserve">
<style type="text/css">
	.st0{fill:#fff;}
</style>
<path class="st0" d="M179.9,67.3C176.3,30.1,161.2,2.9,142.8,3L57.4,3.2C38.9,3.3,24,30.5,20.4,67.8c-13,9.3-19.7,28.2-19.6,50
	c0,16.2,3.8,30.8,11,41l0.1,36.2l33.6-0.1l0-21.2l110-0.3l0,21.2l33.6-0.1l-0.1-36.2c7.2-10.2,10.9-24.8,10.9-41
	C199.7,95.4,193,76.5,179.9,67.3L179.9,67.3z M57.4,17.1l85.4-0.2c11.9,0,22.3,19.3,26.3,45.5c-1.8-0.4-3.7-0.7-5.7-0.8
	c0-0.1,0.1-0.2,0-0.2c-16.1,0-11,0-22.4,0.1c-11.3,0-7.3,0-18.6,0.1l-82.6,0.2c-3,0-5.8,0.4-8.5,1.1C35.1,36.5,45.5,17.1,57.4,17.1z
	 M35.2,135.9c-7.3,0-13.3-8.1-13.3-18.2c0-10.1,5.9-18.2,13.2-18.2c7.3,0,13.3,8.1,13.3,18.2C48.4,127.7,42.5,135.9,35.2,135.9z
	 M138.8,132.5l-77,0.1c-12,0-12.3-24.8,0-24.9l77-0.2C150,107.5,150.1,132.4,138.8,132.5z M165.4,135.5c-7.3,0-13.3-8.1-13.3-18.2
	c0-10.1,5.9-18.2,13.2-18.2c7.3,0,13.3,8.1,13.3,18.2C178.7,127.4,172.7,135.5,165.4,135.5L165.4,135.5z"/>
</svg>
