<?xml version="1.0" encoding="utf-8"?>
<!-- Generator: Adobe Illustrator 24.0.0, SVG Export Plug-In . SVG Version: 6.00 Build 0)  -->
<svg version="1.1" id="图层_1" xmlns="http://www.w3.org/2000/svg" xmlns:xlink="http://www.w3.org/1999/xlink" x="0px" y="0px"
	 viewBox="0 0 200 200" style="enable-background:new 0 0 200 200;" xml:space="preserve">
<style type="text/css">
	.st0{fill:#fff;}
</style>
<g>
	<path class="st0" d="M188.5,94.8c-0.8,0-2.5,0-3.3,0.8L99.6,131L14.1,95.7c-0.8-0.8-1.7-0.8-3.3-0.8c-4.9,0-9,4.1-9,9
		c0,3.3,2.5,6.6,5.8,8.2l89.6,37c0.8,0.8,1.7,0.8,3.3,0.8c0.8,0,2.5,0,3.3-0.8l89.6-37c3.3-0.8,5.8-4.1,4.1-8.2
		C197.5,99,193.4,94.8,188.5,94.8L188.5,94.8z"/>
	<path class="st0" d="M8.3,69.6l89.1,36.8c0.8,0.8,1.6,0.8,3.3,0.8c0.8,0,2.5,0,3.3-0.8l89.1-36.8c3.3-1.6,5.7-4.9,5.7-8.2
		s-2.5-6.5-5.7-8.2L104,16.5c-0.8-0.8-1.6-0.8-3.3-0.8c-0.8,0-2.5,0-3.3,0.8L8.3,53.3c-3.3,0.8-5.7,4.9-5.7,8.2
		C2.6,64.7,5.1,68,8.3,69.6z M188.2,131c-0.8,0-2.5,0-3.3,0.8l-85.1,35.1l-85.1-35.2c-0.8-0.8-1.6-0.8-3.3-0.8c-4.9,0-9,4.1-10.6,9
		c0,3.3,2.5,6.5,5.7,8.2l89.1,36.8c0.8,0.8,1.6,0.8,3.3,0.8c0.8,0,2.5,0,3.3-0.8l89.1-36.8c3.3-0.8,5.7-4.1,5.7-8.2
		C197.2,135.1,193.1,131,188.2,131z"/>
</g>
</svg>
