<?xml version="1.0" encoding="utf-8"?>
<!-- Generator: Adobe Illustrator 24.0.0, SVG Export Plug-In . SVG Version: 6.00 Build 0)  -->
<svg version="1.1" id="图层_1" xmlns="http://www.w3.org/2000/svg" xmlns:xlink="http://www.w3.org/1999/xlink" x="0px" y="0px"
	 viewBox="0 0 200 200" style="enable-background:new 0 0 200 200;" xml:space="preserve">
<style type="text/css">
	.st0{fill:#fff;}
</style>
<g>
	<path class="st0" d="M153.3,17h44l-65.8,68.5H6.4L153.3,17z"/>
	<path class="st0" d="M0.9,87.1h132.2v15.6l-58.4,10.4v53.8l58.4,10.1v15H0.9v-15.6l52.2-9.3v-53.3L0.9,103.5V87.1z"/>
	<path class="st0" d="M199.2,17l-64.4,68.5v15.8l64.4-76.5V17z"/>
	<path class="st0" d="M50.4,136v27l-42.1,8.5L50.4,136z"/>
	<path class="st0" d="M78,114.4v46.2l45.6-53L78,114.4z"/>
	<path class="st0" d="M126.8,106.2l-47.5,57.4l52.2,7.9l65.8-120.3l-14.5-2.9l-47,56.6L126.8,106.2z"/>
	<path class="st0" d="M199.2,54.1v3.3l-62,129.2v-12.8L199.2,54.1z"/>
</g>
</svg>
