<?xml version="1.0" encoding="utf-8"?>
<!-- Generator: Adobe Illustrator 24.0.0, SVG Export Plug-In . SVG Version: 6.00 Build 0)  -->
<svg version="1.1" id="图层_1" xmlns="http://www.w3.org/2000/svg" xmlns:xlink="http://www.w3.org/1999/xlink" x="0px" y="0px"
	 viewBox="0 0 200 200" style="enable-background:new 0 0 200 200;" xml:space="preserve">
<style type="text/css">
	.st0{fill:#fff;}
</style>
<path class="st0" d="M123.1,4c0,0,24.5,8.5,5.3,54.3c-8.2,19.4,0.4,47.7,8.3,65.9c13-16.7,26-33.4,39-50c9.9,0,9.4,8.4,9.3,18.8
	l0,1.2v80.4c0,10.6-7.7,19.4-17.6,20l-1.2,0H34.8c-9.9,0-18.1-8.3-18.7-18.8l0-1.3V64.2c0-10.6,7.8-19.4,17.6-20l1.2,0h37.6
	c0.2,9.5,3.5,20.4,8.3,28.4l1.1,1.7l46.9,60.3l0.1-0.2c-6.5-15.6-19.4-51.5-8.6-72.5c-6.5,0.9-26-0.7-26.8-49.9
	c0,0,36.6,9.6,30.7,42.3C143.7,15.5,123.1,4,123.1,4z M54.2,78.2l-6,6.4l14.8,15.9l-29.9,32l6,6.4l29.9-32L93,132.4l-44.8,47.9
	l6,6.4L99,138.8l23.9,25.6l-3,3.2l6,6.4l3-3.2l14.9,16l6-6.4l-14.9-16l27-28.7l-6-6.4L129,158.1l-23.9-25.6l9-9.6l-6-6.4l-9,9.6
	L54.2,78.2z"/>
</svg>
