<?xml version="1.0" encoding="utf-8"?>
<!-- Generator: Adobe Illustrator 24.0.0, SVG Export Plug-In . SVG Version: 6.00 Build 0)  -->
<svg version="1.1" id="图层_1" xmlns="http://www.w3.org/2000/svg" xmlns:xlink="http://www.w3.org/1999/xlink" x="0px" y="0px"
	 viewBox="0 0 218.9 200" style="enable-background:new 0 0 218.9 200;" xml:space="preserve">
<style type="text/css">
	.st0{fill:#fff;}
</style>
<path class="st0" d="M199.1,44.2l-28.4-25c-0.2-0.2-0.4-0.3-0.6-0.5l-1.5-1.3c-0.2-0.2-0.5-0.3-0.7-0.5l-0.2-0.1
	c-4.2-3.3-9.7-4.4-14.9-3.2h-11c-6.8,4.1-18.7,6.8-32.2,6.8s-25.4-2.7-32.2-6.8H66.1c-5.2-1.3-10.7-0.1-14.9,3.2
	c-0.1,0-0.1,0.1-0.2,0.1c-0.2,0.2-0.5,0.3-0.7,0.5l-1.5,1.3c-0.2,0.2-0.4,0.3-0.6,0.5l-28.4,25c-7.3,6.4-8,17.6-1.6,24.9l10.1,11.5
	c3.7,4.2,9.1,6.2,14.3,5.8v82.4c0,10.4,8.5,18.8,18.9,18.9h95.7c10.4,0,18.8-8.5,18.9-18.9V86.4c5.3,0.3,10.6-1.6,14.3-5.8
	l10.1-11.5C207.1,61.8,206.4,50.7,199.1,44.2z M159.2,67.9c0,2.4-2,4.4-4.4,4.4H140c-2.4,0-4.4-2-4.4-4.4v-0.6c0-2.4,2-4.4,4.4-4.4
	h14.8c2.4,0,4.4,2,4.4,4.4V67.9z"/>
</svg>
