<?xml version="1.0" encoding="utf-8"?>
<!-- Generator: Adobe Illustrator 24.0.0, SVG Export Plug-In . SVG Version: 6.00 Build 0)  -->
<svg version="1.1" id="图层_1" xmlns="http://www.w3.org/2000/svg" xmlns:xlink="http://www.w3.org/1999/xlink" x="0px" y="0px"
	 viewBox="0 0 212.9 200" style="enable-background:new 0 0 212.9 200;" xml:space="preserve">
<style type="text/css">
	.st0{fill:#fff;}
</style>
<path class="st0" d="M210.8,123.8c-6.8-64-19-109.8-57.4-109.8c-19.5,0-29.5,21.5-46.9,23.2c-17.9-1.7-27.4-23.2-46.9-23.2
	C21.1,13.9,9,59.8,2.7,123.2c-3.7,34-0.5,62.3,19,62.3c27.4,0,28.5-26.6,48-39.1c7.4-4,23.7-5.7,37.4-6.2c13.7,0.6,30,2.3,37.4,6.2
	c19.5,12.5,20.6,39.1,48,39.1C211.3,186.1,214,157.7,210.8,123.8L210.8,123.8z M60.1,118.1c-15.3,0-27.4-13.6-27.4-29.4
	s12.1-29.4,27.4-29.4s27.4,13,27.4,29.4S74.9,118.1,60.1,118.1L60.1,118.1z M182.9,94.3h-21.6v23.2h-10.5V94.3h-21.6V83h21.6V60.4
	h10.5V83h21.6V94.3z"/>
<path class="st0" d="M44.3,88.7c0,4.5,1.6,8.5,4.7,11.9c2.6,2.8,6.8,5.1,11.1,5.1s7.9-1.7,11.1-5.1c2.6-2.8,4.7-7.4,4.7-11.9
	s-1.6-8.5-4.7-11.9c-2.6-2.8-6.8-5.1-11.1-5.1s-7.9,1.7-11.1,5.1C45.9,79.6,44.3,84.1,44.3,88.7z"/>
</svg>
