<?xml version="1.0" encoding="utf-8"?>
<!-- Generator: Adobe Illustrator 24.0.0, SVG Export Plug-In . SVG Version: 6.00 Build 0)  -->
<svg version="1.1" id="图层_1" xmlns="http://www.w3.org/2000/svg" xmlns:xlink="http://www.w3.org/1999/xlink" x="0px" y="0px"
	 viewBox="0 0 212.9 200" style="enable-background:new 0 0 212.9 200;" xml:space="preserve">
<style type="text/css">
	.st0{fill:#fff;}
</style>
<path class="st0" d="M131,44c9.1,5.9,18.2,11.9,27.6,18.1c-2.8,2.9-5,5.7-7.6,8.1c-1.1,1-2.9,1.7-4.5,1.7c-3.3,0.1-6.5-0.7-9.8-0.3
	c-1.5,0.1-2.9,1.9-4.5,2.8c0.9,1,8.1,5.5,10.4,7.2c1.7,1.2,3.3,2.9,4.3,4.8c1.9,3.6,4.7,11,4.7,11s5-2.3,4.9-5.6
	c-0.1-2.8,0.2-5.8,0.5-8.6c0.1-1,0.4-2.4,1.1-2.9c3.1-2.5,6.4-4.8,9.9-7.4c0.9,1.4,1.5,2.4,2.1,3.5c3.8,7.5,7.5,15,11.3,22.6
	c0.7,1.2,1.9,2.8,2.9,3.1c2.5,0.4,5.7-3.3,5.3-5.9c-1.3-10.9-2.6-21.9-4.1-32.8c-0.4-2.9-0.1-5.2,2.3-7.3
	c13.4-11.4,17.1-25.3,2.4-18.6c-4.6,2.1-8.8,4.8-12.9,7.7c-2.1,1.4-3.8,2-6.2,1.3c-10.1-2.6-20.4-5-30.6-7.5
	C134.1,37.1,133.4,37.6,131,44L131,44z M138,105.5c0.8-0.5,1.4-1.9,1.6-2.5c3.7-8.7-9.5-22.1-17.3-17c-13.5,11.8-25.6,23.8-41,32.3
	c-28.6,15.7-59.2,19.4-58.2,19.5c-6.8,0.4-8.4-4-2.9-8c5.7-4-12,2-14,11c-0.1,2,1.2,11,22.5,9.7c12.6-1.2,32.2-4.1,44.2-8.4
	C98.5,132.8,114.5,124,138,105.5L138,105.5z M117,9.9C117.3,9.9,117.2,9.9,117,9.9z M116,9.8c0.2,0,0.5,0.1,0.8,0.1h0.3
	C116.9,9.9,116.6,9.8,116,9.8z M190.6,104.3c-1.9,0.2-3.6,0.3-5,5.9c-0.7,2.4-0.8,4.1-4.3,10.6c-3.5,3.9-6,5.1-11.4,3.4
	c-19.7-16.8-40.7-2.4-30.5,20.3c9.5,20.8-18.9,30.6-21.6,8c3.4-30.5-26.3-22.2-33.3-5.7c-8,14-11.6,20.8-23.3,15.7
	c-4.7-3.2-9.1-6.8-13-10.8c-4.4,1.1-9.2,1.6-14.2,1.6h-2c1.9,2.6,7.5,9.6,9.9,11.6C58.3,181,80.9,191,105.7,191
	c39.5,0,73.1-25.2,85.6-60.3h-0.1c2-5.5,3.5-11,4.4-16.9l1-6.5C196.6,107.3,195,103.8,190.6,104.3L190.6,104.3z M25,125.9
	c7.6,0.1,5.1-12.6,5.7-17.6C32.7,93,44.5,75.4,67.9,89.7c-2-1.1,10.5,8.9,22,6.1c11.9-2.8,18.9-12.5,18.3-34.5
	c0.1-17.7,18.2-29.3,28-27.9c0,0,9.9,1,10.7-7.4c0.5-5.7-2.1-8.1-2.1-8.1c-2.6-1.3-8.2-5.9-28.4-8.3c-1.6-0.2-7.2-0.7-11.2-0.7h-0.1
	C54.9,9,14,49.6,14,99.5C14.1,113.4,15.1,125.7,25,125.9z"/>
</svg>
