<?xml version="1.0" encoding="utf-8"?>
<!-- Generator: Adobe Illustrator 24.0.0, SVG Export Plug-In . SVG Version: 6.00 Build 0)  -->
<svg version="1.1" id="图层_1" xmlns="http://www.w3.org/2000/svg" xmlns:xlink="http://www.w3.org/1999/xlink" x="0px" y="0px"
	 viewBox="0 0 200 200" style="enable-background:new 0 0 200 200;" xml:space="preserve">
<style type="text/css">
	.st0{fill:#fff;}
</style>
<path class="st0" d="M163.2,32.8H36.7c-5.5,0-10,4.3-10,9.5v139.1c0,5.2,4.6,9.5,10,9.5h126.5c5.6,0,10.2-4.3,10.2-9.5V42.3
	C173.4,37.2,168.8,32.8,163.2,32.8z M154.2,115.7c0,3.2-2.7,5.7-6.1,5.7h-10c-3.2,0-5.9-2.5-5.9-5.7V52.8c0-3.1,2.7-5.7,5.9-5.7h10
	c3.4,0,6.1,2.7,6.1,5.7V115.7z M45.7,9.1h38.2v15.3H45.7C45.7,24.3,45.7,9.1,45.7,9.1z"/>
</svg>
