<?xml version="1.0" encoding="utf-8"?>
<!-- Generator: Adobe Illustrator 24.0.0, SVG Export Plug-In . SVG Version: 6.00 Build 0)  -->
<svg version="1.1" id="图层_1" xmlns="http://www.w3.org/2000/svg" xmlns:xlink="http://www.w3.org/1999/xlink" x="0px" y="0px"
	 viewBox="0 0 200 200" style="enable-background:new 0 0 200 200;" xml:space="preserve">
<style type="text/css">
	.st0{fill:#fff;}
</style>
<path class="st0" d="M187.2,179.2h-36.1c26.1-16.7,43.5-45.9,43.5-79.2c0-52-42.1-94.1-94.1-94.1S6.4,48,6.4,100
	s42.1,94.1,94.1,94.1c0.6,0,1.1-0.1,1.6-0.1c0.3,0,0.5,0.1,0.8,0.1h84.2c4.1,0,7.4-3.3,7.4-7.4S191.3,179.2,187.2,179.2L187.2,179.2
	z M151.6,86c7.7,7.7,7.7,20.3,0,28c-7.7,7.7-20.3,7.7-28,0l0,0c-7.7-7.7-7.7-20.3,0-28S143.8,78.3,151.6,86z M86.5,48.9
	c7.7-7.7,20.3-7.7,28,0c7.7,7.7,7.7,20.3,0,28s-20.3,7.7-28,0S78.8,56.7,86.5,48.9L86.5,48.9z M49.4,114c-7.7-7.7-7.7-20.3,0-28
	s20.3-7.7,28,0s7.7,20.3,0,28C69.7,121.7,57.2,121.7,49.4,114L49.4,114z M86.5,123.1c7.7-7.7,20.3-7.7,28,0c7.7,7.7,7.7,20.3,0,28
	c-7.7,7.7-20.3,7.7-28,0C78.8,143.3,78.8,130.8,86.5,123.1L86.5,123.1z"/>
</svg>
