<?xml version="1.0" encoding="utf-8"?>
<!-- Generator: Adobe Illustrator 24.0.0, SVG Export Plug-In . SVG Version: 6.00 Build 0)  -->
<svg version="1.1" id="图层_1" xmlns="http://www.w3.org/2000/svg" xmlns:xlink="http://www.w3.org/1999/xlink" x="0px" y="0px"
	 viewBox="0 0 200 200" style="enable-background:new 0 0 200 200;" xml:space="preserve">
<style type="text/css">
	.st0{fill:#CF111B;}
</style>
<path class="st0" d="M188.7,189.5c0-0.1,0-0.3,0-0.4v-0.3c0-0.7-0.1-1.4-0.2-2c-3.8-31-24.1-57.8-53.3-70.6
	c17.2-11.9,27.3-31.1,27.3-51.6c0.6-22.1-11.1-42.9-30.8-54.1C111.9-0.8,87.6-0.8,68,10.4c-19.6,11.3-31.4,32-30.7,54.1
	c-0.1,20.5,10.1,39.8,27.3,51.6c-29,12.7-49.1,39.1-53.2,69.7c-0.3,0.9-0.5,1.9-0.5,2.9v0.7v0.1c-0.1,3.2,1.6,6.1,4.4,7.8
	c2.8,1.6,6.3,1.6,9.1,0s4.5-4.6,4.4-7.8v-0.1H29c3.7-33.8,32-60.2,67-62.4c1.3,0.1,2.5,0.1,3.8,0.1s2.5,0,3.8-0.1
	c35,2.3,63.3,28.6,67.1,62.5h0.2v0.1c-0.1,3.2,1.6,6.1,4.4,7.8c2.8,1.6,6.3,1.6,9.1,0S188.7,192.7,188.7,189.5L188.7,189.5
	L188.7,189.5z M55.1,64.6c0.6-23.3,20.1-42,44.1-42.3s43.9,17.9,45.2,41.2s-16.6,43.4-40.5,45.6c-1.3,0-2.7-0.1-4-0.1
	s-2.7,0-4.1,0.1C72.4,106.6,54.8,87.4,55.1,64.6z"/>
</svg>
