<?xml version="1.0" encoding="utf-8"?>
<!-- Generator: Adobe Illustrator 24.0.0, SVG Export Plug-In . SVG Version: 6.00 Build 0)  -->
<svg version="1.1" id="图层_1" xmlns="http://www.w3.org/2000/svg" xmlns:xlink="http://www.w3.org/1999/xlink" x="0px" y="0px"
	 viewBox="0 0 200 200" style="enable-background:new 0 0 200 200;" xml:space="preserve">
<style type="text/css">
	.st0{fill:#CF111B;}
</style>
<path class="st0" d="M99.7,197.3l-5-2.3c-110.7-50.4-76.3-156-76-157l1.5-4.6L99.7,2.3l79.4,31.1l1.5,4.6c0.3,1,34.9,106.7-76,157.2
	L99.7,197.3z M39,48.8C34.3,67,22.8,136,99.8,174.4C176.9,136,165.3,67,160.7,48.8l-60.9-24L39,48.8z"/>
<path class="st0" d="M68.3,64h60.6v17H68.3V64z M63.8,104.3h69.7v17H63.8V104.3z"/>
<path class="st0" d="M89.3,72.5h18.4v40.3H89.3V72.5z"/>
</svg>
