<?xml version="1.0" encoding="utf-8"?>
<!-- Generator: Adobe Illustrator 24.0.0, SVG Export Plug-In . SVG Version: 6.00 Build 0)  -->
<svg version="1.1" id="图层_1" xmlns="http://www.w3.org/2000/svg" xmlns:xlink="http://www.w3.org/1999/xlink" x="0px" y="0px"
	 viewBox="0 0 206.8 200" style="enable-background:new 0 0 206.8 200;" xml:space="preserve">
<style type="text/css">
	.st0{fill:#CF111B;}
</style>
<path class="st0" d="M187.4,25.9c3.8,0,6.9,3.1,6.9,6.9v103.7c0,3.8-3.1,6.9-6.9,6.9H19.5c-3.8,0-6.9-3.1-6.9-6.9V32.8
	c0-3.8,3.1-6.9,6.9-6.9L187.4,25.9L187.4,25.9z M187.4,13.3H19.5C8.7,13.3,0,22,0,32.8v103.7c0,10.8,8.7,19.5,19.5,19.5h167.9
	c10.8,0,19.5-8.7,19.5-19.5V32.8C206.8,22,198.1,13.3,187.4,13.3L187.4,13.3z"/>
<path class="st0" d="M103.4,22.1c-3.5,0-6.3-2.8-6.3-6.3c0,0,0,0,0,0V6.6c0-3.5,2.8-6.3,6.3-6.3c3.5,0,6.3,2.8,6.3,6.3v9.2
	C109.7,19.3,106.9,22.1,103.4,22.1C103.4,22.1,103.4,22.1,103.4,22.1L103.4,22.1z M109.7,182.8H97.1v-27.4c0-3.5,2.8-6.3,6.3-6.3
	c3.5,0,6.3,2.8,6.3,6.3V182.8z"/>
<path class="st0" d="M58.6,195.3c-0.9-3.4,1.1-6.8,4.5-7.8c0,0,0,0,0,0l33.6-9c3.4-0.9,6.8,1.1,7.7,4.4c0,0,0,0,0,0.1l1.6,6.1
	l-39.7,10.6C62.9,200.7,59.5,198.7,58.6,195.3L58.6,195.3z"/>
<path class="st0" d="M148.2,195.3c0.9-3.4-1.1-6.8-4.5-7.8c0,0,0,0,0,0l-33.6-9.1c-3.4-0.9-6.8,1.1-7.7,4.4c0,0,0,0,0,0.1l-1.6,6.1
	l39.7,10.7C143.9,200.7,147.3,198.7,148.2,195.3L148.2,195.3z"/>
<path class="st0" d="M80.2,67.3l-40.4,39.4c-2.4,2.3-2.5,6.2-0.1,8.6c0,0,0.1,0.1,0.1,0.1c2.5,2.4,6.5,2.4,9,0l40.4-39.4
	c2.4-2.3,2.5-6.2,0.1-8.6c0,0-0.1-0.1-0.1-0.1C86.6,64.9,82.7,64.9,80.2,67.3z M158.3,69.1l-38.5,37.6c-2.4,2.3-2.5,6.2-0.1,8.6
	c0,0,0.1,0.1,0.1,0.1c2.5,2.4,6.5,2.4,9,0l38.5-37.6c2.4-2.3,2.5-6.2,0.1-8.6c0,0-0.1-0.1-0.1-0.1C164.7,66.7,160.8,66.7,158.3,69.1
	L158.3,69.1z"/>
<path class="st0" d="M80.3,76.2l39.2,39.2c2.4,2.5,6.4,2.6,8.9,0.1c2.5-2.4,2.6-6.4,0.1-8.9c0-0.1-0.1-0.1-0.1-0.1L89.2,67.4
	c-2.5-2.4-6.4-2.4-8.9,0C77.9,69.8,77.8,73.7,80.3,76.2C80.3,76.2,80.3,76.2,80.3,76.2L80.3,76.2z"/>
</svg>
