<?xml version="1.0" encoding="utf-8"?>
<!-- Generator: Adobe Illustrator 24.0.0, SVG Export Plug-In . SVG Version: 6.00 Build 0)  -->
<svg version="1.1" id="图层_1" xmlns="http://www.w3.org/2000/svg" xmlns:xlink="http://www.w3.org/1999/xlink" x="0px" y="0px"
	 viewBox="0 0 200 200" style="enable-background:new 0 0 200 200;" xml:space="preserve">
<style type="text/css">
	.st0{fill:#CF111B;}
</style>
<path class="st0" d="M5.4,150.8c0,24.2,19.6,43.8,43.8,43.8S93,175,93,150.8l0-43.8H49.2C25,107,5.4,126.6,5.4,150.8z M77.1,150.8
	c0,15.4-12.5,27.9-27.9,27.9s-27.9-12.5-27.9-27.9s12.5-27.9,27.9-27.9h27.9V150.8z M194,49.8C194,25.6,174.4,6,150.2,6
	s-43.8,19.6-43.8,43.8v43.8h43.8C174.4,93.6,194,74,194,49.8z M122.2,49.8c0-15.4,12.5-27.9,27.9-27.9s27.9,12.5,27.9,27.9
	c0,15.4-12.5,27.9-27.9,27.9h-27.9V49.8z M49.2,93.6H93V49.8C93,25.6,73.4,6,49.2,6S5.4,25.6,5.4,49.8C5.4,74,25,93.6,49.2,93.6z
	 M49.2,21.9c15.4,0,27.9,12.5,27.9,27.9v27.9H49.2c-15.4,0-27.9-12.5-27.9-27.9S33.8,21.9,49.2,21.9z M150.2,107h-43.8v43.8
	c0,24.2,19.6,43.8,43.8,43.8S194,175,194,150.8S174.4,107,150.2,107z M150.2,178.7c-15.4,0-27.9-12.5-27.9-27.9v-27.9h27.9
	c15.4,0,27.9,12.5,27.9,27.9S165.6,178.7,150.2,178.7z"/>
</svg>
