<?xml version="1.0" encoding="utf-8"?>
<!-- Generator: Adobe Illustrator 24.0.0, SVG Export Plug-In . SVG Version: 6.00 Build 0)  -->
<svg version="1.1" id="图层_1" xmlns="http://www.w3.org/2000/svg" xmlns:xlink="http://www.w3.org/1999/xlink" x="0px" y="0px"
	 viewBox="0 0 200 200" style="enable-background:new 0 0 200 200;" xml:space="preserve">
<style type="text/css">
	.st0{fill:#CF111B;}
</style>
<path class="st0" d="M191.4,83.5L119.9,9.4c-5.3-5.5-12.4-8.6-20-8.6c-7.6,0-14.7,3-20,8.6l-7.5,7.8c-1.1-1.1-2.7-1.8-4.4-1.8
	l-38.6,0c-3.5,0-6.3,2.8-6.3,6.3v46.7L8.4,83.5c-8.1,8.4-7,15-5.6,18.2c1.4,3.2,5.4,8.6,17,8.6h3.9v82.5c0,3.5,2.8,6.3,6.3,6.3
	h139.7c3.5,0,6.3-2.8,6.3-6.3v-82.5h3.9c11.6,0,15.7-5.4,17-8.6C198.4,98.6,199.5,91.9,191.4,83.5z M35.7,28h26v0.3l-26,27V28z
	 M122,186.5h-18.9v-44.8H122V186.5z M163.4,186.5h-28.7v-51.1c0-3.5-2.8-6.3-6.3-6.3H96.8c-3.5,0-6.3,2.8-6.3,6.3v51.1H36.4v-76.2
	h127V186.5z M180,97.7H19.7c-3,0-4.6-0.6-5.3-0.9c0.2-0.7,0.9-2.2,3-4.4L89,18.1c5.8-6,16-6,21.8,0l71.5,74.2c2.1,2.2,2.8,3.7,3,4.4
	C184.7,97.1,183,97.7,180,97.7z"/>
</svg>
