<?xml version="1.0" encoding="utf-8"?>
<!-- Generator: Adobe Illustrator 24.0.0, SVG Export Plug-In . SVG Version: 6.00 Build 0)  -->
<svg version="1.1" id="图层_1" xmlns="http://www.w3.org/2000/svg" xmlns:xlink="http://www.w3.org/1999/xlink" x="0px" y="0px"
	 viewBox="0 0 200 200" style="enable-background:new 0 0 200 200;" xml:space="preserve">
<style type="text/css">
	.st0{fill:#CF111B;}
</style>
<path class="st0" d="M99.6,18.4c45.2,0,82.1,36.8,82.1,82.1s-36.8,82.1-82.1,82.1s-82.1-36.8-82.1-82.1S54.3,18.4,99.6,18.4
	 M99.6,2.8C45.7,2.8,2,46.5,2,100.4S45.7,198,99.6,198s97.6-43.7,97.6-97.6S153.5,2.8,99.6,2.8z"/>
<path class="st0" d="M124,46.6c-2.1,0-4,0.8-5.5,2.3L99.6,67.8L80.6,48.9c-1.5-1.5-3.4-2.3-5.5-2.3c-4.3,0-7.8,3.5-7.8,7.8
	c0,2.1,0.8,4,2.3,5.5l16.7,16.7H64.1c-4.3,0-7.8,3.5-7.8,7.8c0,4.3,3.5,7.8,7.8,7.8c0,0,0,0,0,0h27.7v14.4H64.1
	c-4.3,0-7.8,3.5-7.8,7.8c0,4.3,3.5,7.8,7.8,7.8c0,0,0,0,0,0h27.7v28.8c0,4.3,3.5,7.8,7.8,7.8c4.3,0,7.8-3.5,7.8-7.8v-28.8h27.7
	c4.3,0,7.8-3.5,7.8-7.8c0-4.3-3.5-7.8-7.8-7.8c0,0,0,0,0,0h-27.7V92.1h27.7c4.3,0,7.8-3.5,7.8-7.8c0-4.3-3.5-7.8-7.8-7.8
	c0,0,0,0,0,0h-22.3l16.7-16.7c3-3,3-7.9,0-11C128,47.4,126.1,46.6,124,46.6L124,46.6z"/>
</svg>
