<?xml version="1.0" encoding="utf-8"?>
<!-- Generator: Adobe Illustrator 24.0.0, SVG Export Plug-In . SVG Version: 6.00 Build 0)  -->
<svg version="1.1" id="图层_1" xmlns="http://www.w3.org/2000/svg" xmlns:xlink="http://www.w3.org/1999/xlink" x="0px" y="0px"
	 viewBox="0 0 200 200" style="enable-background:new 0 0 200 200;" xml:space="preserve">
<style type="text/css">
	.st0{fill:#CF111B;}
</style>
<path class="st0" d="M69.2,105.3C43.5,88.6,36.3,54.3,53.1,28.6s51.1-32.8,76.7-16.1c15.7,10.2,25.1,27.7,25.1,46.4
	c0,30.6-24.8,55.4-55.4,55.4c-45.9,0-83.1,37.2-83.1,83.2H2.5C2.5,154.5,30.5,118.1,69.2,105.3z M99.5,100.5
	c23,0,41.6-18.6,41.6-41.6c0-23-18.6-41.6-41.6-41.6S57.9,36,57.9,58.9S76.5,100.5,99.5,100.5C99.5,100.5,99.5,100.5,99.5,100.5z
	 M196.5,150.3c0,4.5-0.9,8.9-2.7,13.1c-1.9,4.5-4.5,8.1-7.9,10.7c-3.8,3-7.9,4.5-12.1,4.5c-2.3,0-4.5-0.7-6.4-2
	c-0.8-0.6-1.6-1.6-2.6-3c-3.5,3.5-7.7,5.2-12.4,5.2c-4.8,0.1-9.3-1.8-12.7-5.1c-4.2-4.1-6.3-9.5-6.3-16.2c0-7.6,2.7-13.5,8-17.8
	c3.8-3,8.2-4.5,13.3-4.5c3.4,0,6.9,1.1,10.6,3.4l0.7-2.5H177l-3.2,25.8c-0.2,1.7-0.3,3.5-0.3,5.2c0,1.5,0.4,2.2,1.3,2.2
	c0.7,0,1.5-0.2,2.3-0.5c3-1.2,5.4-3.7,7.2-7.4c1.6-3.2,2.4-6.6,2.4-10.2c0-7-2.3-13-6.8-17.9c-5.8-6.3-13.7-9.5-23.6-9.5
	c-8,0-15,2.5-20.9,7.6c-7.4,6.3-11.2,14.5-11.2,24.6c0,10.9,4.3,19.5,12.8,25.6c5.4,3.9,12.3,5.9,20.5,5.9c6.8,0,13-1.2,18.5-3.6
	l3.8-1.7l1.7-0.9c0.2-0.1,0.4-0.2,0.8-0.3l3.7,9.4l-0.6,0.3c-0.3,0.1-0.6,0.3-0.9,0.5l-0.6,0.3l-2.8,1.3c-7.1,3.2-14.9,4.9-23.5,4.9
	c-10.8,0-19.9-2.6-27.3-7.9c-5.3-3.8-9.7-8.9-12.6-14.7c-3-5.9-4.5-12.4-4.5-19c0-10.9,3.6-20.2,10.8-27.9
	c8.5-9.1,19.3-13.7,32.3-13.7c12.6,0,22.8,4.2,30.6,12.5C193.4,133.5,196.5,141.3,196.5,150.3z M164.3,155c0-2.7-0.9-4.9-2.8-6.5
	c-1.8-1.6-4.1-2.5-6.9-2.5c-2.3,0-4.3,0.8-6.1,2.5c-2.3,2.2-3.5,5.3-3.5,9.4c0,2.6,0.6,4.9,1.9,6.7c1.5,2.1,3.4,3.2,5.9,3.2
	c3.2,0,6-1.4,8.2-4.1C163.2,161.2,164.3,158.2,164.3,155L164.3,155z"/>
</svg>
