<?xml version="1.0" encoding="utf-8"?>
<!-- Generator: Adobe Illustrator 24.0.0, SVG Export Plug-In . SVG Version: 6.00 Build 0)  -->
<svg version="1.1" id="图层_1" xmlns="http://www.w3.org/2000/svg" xmlns:xlink="http://www.w3.org/1999/xlink" x="0px" y="0px"
	 viewBox="0 0 200 200" style="enable-background:new 0 0 200 200;" xml:space="preserve">
<style type="text/css">
	.st0{fill:#CF111B;}
</style>
<path class="st0" d="M189.3,174.9l-11.1,11.4c-8.4,8.7-20.1,13.6-32.1,13.6c-5.1,0-10.2-0.9-15-2.6C71.1,175.8,23.6,126.1,4,64.5
	C-1.8,46,4.4,25.7,19.6,13.9l9.7-7.5C34.6,2.2,41,0,47.8,0c11.5,0,22,6.5,27.3,17l16.4,32.4c1.6,3.1,2.4,6.5,2.4,10
	c0,5.5-2,10.7-5.6,14.8l-3.4,3.8c-3.4,3.8-4.1,9.3-1.8,13.8c5.6,11,14.3,19.9,25.1,25.6c4.4,2.3,10,1.5,13.6-1.9l3.7-3.5
	c6.5-6.1,16.5-7.4,24.3-3.4l31.8,16.6c10.3,5.4,16.7,16,16.7,27.8C198.2,161.3,195,169.1,189.3,174.9z M183.9,150
	c0-10.3-42.9-28.6-42.9-28.6c-6-2.2-14.3,7.1-14.3,7.1c-14.9,11-25.4,2.7-28.6,0c-9.3-7.8-21.9-24.6-28.6-35.7
	c-5-8.3-2.8-18.2,0-21.4c0,0,9.6-8.3,7.1-14.3C69.2,38.6,57.5,11,48.2,14.3C40,17,5.9,28.3,21.3,69.6
	c27.4,73.3,84.3,102.8,118.9,116.1C164.4,187.5,185.8,157,183.9,150z"/>
</svg>
