<?xml version="1.0" encoding="utf-8"?>
<!-- Generator: Adobe Illustrator 24.0.0, SVG Export Plug-In . SVG Version: 6.00 Build 0)  -->
<svg version="1.1" id="图层_1" xmlns="http://www.w3.org/2000/svg" xmlns:xlink="http://www.w3.org/1999/xlink" x="0px" y="0px"
	 viewBox="0 0 200 200" style="enable-background:new 0 0 200 200;" xml:space="preserve">
<style type="text/css">
	.st0{fill:#CF111B;}
</style>
<path class="st0" d="M99.7,3C46.2,3,2.4,46.5,2.4,100.2c0,53.5,43.5,97.3,97.3,97.3S197,154,197,100.2C197,46.8,153.5,3,99.7,3z
	 M99.7,183.2c-45.6,0-82.9-37.3-82.9-82.9s37.3-82.6,82.9-82.6s82.6,37,82.6,82.6C182.3,145.9,145.3,183.2,99.7,183.2z"/>
<path class="st0" d="M142.2,113.2L106,101.1V49.3c0-3.7-3.2-6.9-6.9-6.9c-3.7,0-6.9,3.2-6.9,6.9v56.6c-0.3,2.7,1.3,5,4,6.4
	l40.2,13.5c1.1,0.3,1.9,0.5,2.9,0.5c0.8,0,1.6,0,2.7-0.3c1.6-0.5,2.9-1.9,3.7-3.5c0.8-1.9,0.8-3.7,0.3-5.3
	C145.4,115.4,144.1,114,142.2,113.2L142.2,113.2z"/>
</svg>
