<?xml version="1.0" encoding="utf-8"?>
<!-- Generator: Adobe Illustrator 24.0.0, SVG Export Plug-In . SVG Version: 6.00 Build 0)  -->
<svg version="1.1" id="图层_1" xmlns="http://www.w3.org/2000/svg" xmlns:xlink="http://www.w3.org/1999/xlink" x="0px" y="0px"
	 viewBox="0 0 200 200" style="enable-background:new 0 0 200 200;" xml:space="preserve">
<style type="text/css">
	.st0{fill:#CF111B;}
	.st1{fill:#FFFFFF;}
	.st2{opacity:0.4;fill:#FFFFFF;enable-background:new    ;}
</style>
<path class="st0" d="M195.1,46.8c-3.9-21.3-20.6-38-42-42c-17.3-3.2-34.6-4.8-52-4.9h-2.4c-17.3,0.1-34.6,1.7-52,4.9
	c-21.3,3.9-38,20.6-42,42C1.7,64.3,0.1,81.7,0,99.1v1.7c0.1,17.4,1.7,34.9,4.9,52.3c3.9,21.3,20.6,38,42,42
	c17.7,3.2,35.4,4.9,53.2,4.9c17.7,0,35.4-1.6,53.2-4.9c21.3-3.9,38-20.6,42-42c3.3-17.7,4.9-35.4,4.9-53.2
	C200,82.3,198.4,64.6,195.1,46.8L195.1,46.8z"/>
<path class="st1" d="M93.5,55c5.4-2.9,12-2,16.4,2.2c0.6,0.7,1.6,1,2.5,0.8c3.5-0.8,6.8-2,10-3.6c0.8-0.4,1.3-1.2,1.4-2.1
	c0.1-0.9-0.2-1.8-0.8-2.4l-7.1-7.1c-9-8.9-23.6-8.9-32.5,0L53,72.8l-0.5,0.7c-1.7,2.3-2.6,5.1-2.6,8V113c5-2.1,10.3-3.3,15.7-3.5
	l-0.1,0c0-2.3,1.9-4.2,4.2-4.2h57.5c2.2,0.1,4,2,4,4.2c0,2.2-1.7,4-4,4.2H85.9c8,3.8,14.6,9.8,19,17.4h6c2.2,0.2,4,2,4,4.2
	c0,2.2-1.7,4-4,4.2h-2.3c3.3,10.2,2.7,21.2-1.8,31h20.8c12.7,0,22.9-10.2,22.9-22.8v-41.3l-0.2-23.9c0-3.5-1.4-6.9-3.9-9.4l-0.5-0.5
	l-8.6-8.5c-1-1-2.5-1.1-3.6-0.3c-5.7,3.8-12.2,6.5-19,8c-0.9,0.2-1.6,0.8-1.9,1.6c-2.7,5.4-8.6,8.6-14.6,7.7
	c-6.1-0.8-10.9-5.4-12-11.4C85.2,63.8,88.1,57.8,93.5,55z"/>
<path class="st1" d="M103.1,61.4c-1.1-0.1-2.3,0.3-3.1,1.1c-0.8,0.8-1.3,1.9-1.3,3c-0.1,2.3,1.7,4.3,4.1,4.4h0.9
	c4.1,0,21.3-0.8,34.6-13.2l0.2-0.2c5.5-6.4,7.8-14.9,6.2-23.2c-0.2-1.6-1.3-2.8-2.8-3.4c-1.5-0.5-3.2-0.2-4.3,0.9
	c-1.1,1.1-1.6,2.7-1.2,4.2c1.1,5.5-0.4,11.3-4.1,15.6C120.1,61.9,103.3,61.4,103.1,61.4L103.1,61.4z"/>
<path class="st2" d="M71.4,131.1H105c-4.4-7.6-11.1-13.6-19-17.4H69.7c-2.3,0-4.2-1.9-4.2-4.2c-5.4,0.2-10.7,1.4-15.6,3.5v34.7
	c0,12.6,10.3,22.7,23,22.8h34.1c4.4-9.7,5.1-20.8,1.8-31H71.4c-1.6,0.1-3.1-0.7-3.9-2c-0.8-1.3-0.8-3,0-4.4
	C68.3,131.7,69.8,131,71.4,131.1L71.4,131.1z"/>
</svg>
