<?xml version="1.0" encoding="utf-8"?>
<!-- Generator: Adobe Illustrator 24.0.0, SVG Export Plug-In . SVG Version: 6.00 Build 0)  -->
<svg version="1.1" id="图层_1" xmlns="http://www.w3.org/2000/svg" xmlns:xlink="http://www.w3.org/1999/xlink" x="0px" y="0px"
	 viewBox="0 0 200 200" style="enable-background:new 0 0 200 200;" xml:space="preserve">
<style type="text/css">
	.st0{fill:#CF111B;}
</style>
<path class="st0" d="M87.7,127.1c-2.5,0-4.9-1-6.7-2.8l-5.2-5.2c-7.5-7.5-11.7-17.5-11.7-28.2s4.2-20.6,11.7-28.2l42.1-42.1
	C125.4,13.2,135.4,9,146.1,9c10.7,0,20.6,4.2,28.2,11.7l5.2,5.2c7.5,7.5,11.7,17.5,11.7,28.2s-4.2,20.6-11.7,28.2l-16.2,16.2
	c-1.8,1.8-4.2,2.8-6.7,2.8s-5.1-1-6.9-2.8c-3.7-3.8-3.7-9.9,0-13.6l16.2-16.2c3.9-3.9,6-9,6-14.5c0-5.5-2.2-10.7-6-14.5l-5.2-5.2
	c-3.9-3.9-9-6-14.5-6c-5.5,0-10.7,2.2-14.5,6L89.4,76.4c-3.9,3.9-6,9-6,14.5c0,5.5,2.2,10.7,6,14.5l5.2,5.2c3.8,3.8,3.8,9.9,0,13.6
	c-1.6,1.6-4.1,2.7-6.5,2.8L87.7,127.1L87.7,127.1z"/>
<path class="st0" d="M52.8,192.1c-10.7,0-20.6-4.2-28.2-11.7l-5.2-5.2c-7.5-7.5-11.7-17.5-11.7-28.2c0-10.7,4.2-20.6,11.7-28.2
	L38,100.6c1.8-1.8,4.3-2.8,6.7-2.8c2.5,0,5.1,1,6.9,2.8c1.8,1.8,2.8,4.3,2.8,6.9s-1,4.9-2.8,6.9l-18.4,18.4c-8,8-8,21.1,0,29.1
	l5.2,5.2c3.8,3.8,9,6,14.5,6H53c5.3,0,10.7-2.2,14.5-6l42.1-42.1c8-8,8-21.1,0-29.1l-5.2-5.2c-3.7-3.8-3.7-9.9,0-13.6
	c1.8-1.8,4.3-2.8,6.7-2.8c2.5,0,4.9,1,6.9,2.8l5.2,5.2c15.5,15.5,15.5,40.7,0,56.2L81,180.6C73.4,188,63.5,192.1,52.8,192.1z"/>
</svg>
