<?xml version="1.0" encoding="utf-8"?>
<!-- Generator: Adobe Illustrator 24.0.0, SVG Export Plug-In . SVG Version: 6.00 Build 0)  -->
<svg version="1.1" id="图层_1" xmlns="http://www.w3.org/2000/svg" xmlns:xlink="http://www.w3.org/1999/xlink" x="0px" y="0px"
	 viewBox="0 0 200 200" style="enable-background:new 0 0 200 200;" xml:space="preserve">
<style type="text/css">
	.st0{fill:#CF111B;}
</style>
<path class="st0" d="M172,183H28.5c-12.8,0-23.3-11.2-23.3-24.9v-28.7c0-6.6,2.5-12.8,6.9-17.4l3.3-3.5c3.9-4.1,3.9-10.7,0-14.7
	l-3.3-3.5c-4.4-4.7-6.9-10.9-6.9-17.4V44.1c0-13.7,10.4-24.9,23.3-24.9H172c12.8,0,23.3,11.2,23.3,24.9v28.7
	c0,6.6-2.5,12.8-6.9,17.4l-3.3,3.5c-3.9,4.1-3.9,10.7,0,14.7l3.3,3.5c4.4,4.7,6.9,10.9,6.9,17.4v28.7C195.3,171.8,184.8,183,172,183
	L172,183z M28.5,33.9c-4.8,0-8.6,4.6-8.6,10.2v28.7c0,2.8,1.1,5.5,2.9,7.4l3.3,3.5c9.2,9.6,9.2,25.3,0,34.9l-3.3,3.5
	c-1.8,1.9-2.9,4.6-2.9,7.4v28.7c0,5.5,4,10.2,8.6,10.2H172c4.7,0,8.6-4.7,8.6-10.2v-28.7c0-2.8-1.1-5.5-2.9-7.4l-3.3-3.5
	c-9.2-9.6-9.2-25.3,0-34.9l3.3-3.5c1.8-1.9,2.9-4.6,2.9-7.4V44.1c0-5.5-4-10.2-8.6-10.2H28.5z M179.7,88.7L179.7,88.7L179.7,88.7z"
	/>
<path class="st0" d="M144.1,90.9H91.5c-4,0-7.3-3.3-7.3-7.3s3.3-7.3,7.3-7.3h52.6c4,0,7.3,3.3,7.3,7.3
	C151.4,87.6,148.1,90.9,144.1,90.9z"/>
<path class="st0" d="M52,83.6c0,4.8,3.9,8.8,8.8,8.8s8.8-3.9,8.8-8.8l0,0c0-4.8-3.9-8.8-8.8-8.8S52,78.8,52,83.6z"/>
<path class="st0" d="M144.1,126H91.5c-4,0-7.3-3.3-7.3-7.3s3.3-7.3,7.3-7.3h52.6c4,0,7.3,3.3,7.3,7.3S148.1,126,144.1,126z"/>
<path class="st0" d="M52,118.7c0,4.8,3.9,8.8,8.8,8.8s8.8-3.9,8.8-8.8l0,0c0-4.8-3.9-8.8-8.8-8.8S52,113.8,52,118.7z"/>
</svg>
