<?xml version="1.0" encoding="utf-8"?>
<!-- Generator: Adobe Illustrator 24.0.0, SVG Export Plug-In . SVG Version: 6.00 Build 0)  -->
<svg version="1.1" id="图层_1" xmlns="http://www.w3.org/2000/svg" xmlns:xlink="http://www.w3.org/1999/xlink" x="0px" y="0px"
	 viewBox="0 0 200 200" style="enable-background:new 0 0 200 200;" xml:space="preserve">
<style type="text/css">
	.st0{fill:#CF111B;}
</style>
<path class="st0" d="M170.8,193.4H29.5c-13,0-23.5-10.5-23.5-23.5V44.2c0-13,10.5-23.5,23.5-23.5h23.5v-7.8c0-4.3,3.5-7.8,7.8-7.8
	c4.3,0,7.8,3.5,7.8,7.8v7.8h62.8v-7.8c0-4.3,3.5-7.8,7.9-7.8c4.3,0,7.8,3.5,7.8,7.8v7.8h23.5c13,0,23.5,10.5,23.5,23.5v125.6
	C194.4,182.8,183.8,193.4,170.8,193.4z M21.7,76v93.8c0,4.3,3.5,7.8,7.8,7.8c0,0,0,0,0,0h141.3c4.3,0,7.8-3.5,7.8-7.8c0,0,0,0,0,0
	V76H21.7z M21.7,60.3h157V44.2c0-4.3-3.5-7.8-7.8-7.8h-23.5v7.8c0,4.3-3.5,7.8-7.9,7.8c-4.3,0-7.8-3.5-7.8-7.8v-7.8H68.8v7.8
	c0,4.3-3.5,7.8-7.8,7.8c-4.3,0-7.8-3.5-7.8-7.8v-7.8H29.5c-4.3,0-7.8,3.5-7.8,7.8V60.3z M90,153.6c-2,0-3.9-0.8-5.3-2.1l-21.3-20
	c-3.1-3.1-3.2-8-0.1-11.2c3-3,7.8-3.2,10.9-0.3l15.7,14.8l36.2-35.7c3.3-2.8,8.3-2.4,11.1,0.9c2.5,3,2.5,7.3-0.1,10.2l-41.5,41
	C94.1,152.8,92.1,153.6,90,153.6L90,153.6z"/>
</svg>
