<?xml version="1.0" encoding="utf-8"?>
<!-- Generator: Adobe Illustrator 24.0.0, SVG Export Plug-In . SVG Version: 6.00 Build 0)  -->
<svg version="1.1" id="图层_1" xmlns="http://www.w3.org/2000/svg" xmlns:xlink="http://www.w3.org/1999/xlink" x="0px" y="0px"
	 viewBox="0 0 200 200" style="enable-background:new 0 0 200 200;" xml:space="preserve">
<style type="text/css">
	.st0{fill:#CF111B;}
</style>
<path class="st0" d="M148.3,121.3v-13.1c0-0.9-0.8-1.7-1.7-1.7H52.9c-0.9,0-1.7,0.8-1.7,1.7v13.1h20.6c3.8,0,6.9,3.1,6.9,6.9v61.4
	c0,3.8-3.1,6.9-6.9,6.9H10.4c-3.8,0-6.9-3.1-6.9-6.9v-61.4c0-3.8,3.1-6.9,6.9-6.9h27.1V99.6c0-3.8,3.1-6.9,6.9-6.9h48.6V79.2H69
	c-3.8,0-6.9-3.1-6.9-6.9V10.9C62.2,7.1,65.2,4,69,4h61.4c3.8,0,6.9,3.1,6.9,6.9v61.4c0,3.8-3.1,6.9-6.9,6.9h-23.8v13.5h48.6
	c3.8,0,6.9,3.1,6.9,6.9v21.7h27.1c3.8,0,6.9,3.1,6.9,6.9v61.4c0,3.8-3.1,6.9-6.9,6.9h-61.4c-3.8,0-6.9-3.1-6.9-6.9v-61.4
	c0-3.8,3.1-6.9,6.9-6.9H148.3z M77.6,17.8c-0.9,0-1.7,0.8-1.7,1.7v44.3c0,0.9,0.8,1.7,1.7,1.7h44.3c0.9,0,1.7-0.8,1.7-1.7V19.5
	c0-0.9-0.8-1.7-1.7-1.7H77.6z M19,135.1c-0.9,0-1.7,0.8-1.7,1.7V181c0,0.9,0.8,1.7,1.7,1.7h44.3c0.9,0,1.7-0.8,1.7-1.7v-44.3
	c0-0.9-0.8-1.7-1.7-1.7H19z M136.3,135.1c-0.9,0-1.7,0.8-1.7,1.7V181c0,0.9,0.8,1.7,1.7,1.7h44.3c0.9,0,1.7-0.8,1.7-1.7v-44.3
	c0-0.9-0.8-1.7-1.7-1.7H136.3z"/>
</svg>
