<?xml version="1.0" encoding="utf-8"?>
<!-- Generator: Adobe Illustrator 24.0.0, SVG Export Plug-In . SVG Version: 6.00 Build 0)  -->
<svg version="1.1" id="图层_1" xmlns="http://www.w3.org/2000/svg" xmlns:xlink="http://www.w3.org/1999/xlink" x="0px" y="0px"
	 viewBox="0 0 200 200" style="enable-background:new 0 0 200 200;" xml:space="preserve">
<style type="text/css">
	.st0{fill:#333333;}
</style>
<path class="st0" d="M194.1,94.2L156,57.6c-3-2.9-7.6-2.9-10.7,0c-3,2.9-3,7.3,0,10.3L170.5,92H97.4c-4.6,0-7.6,2.9-7.6,7.3
	s3,7.3,7.6,7.3h73.1l-25.1,24.2c-3,2.9-3,7.3,0,10.3c1.5,1.5,3,2.2,5.3,2.2c2.3,0,3.8-0.7,5.3-2.2l38.1-37.4c0,0,0-0.7,0.8-0.7
	C197.1,100.8,197.1,96.4,194.1,94.2L194.1,94.2z"/>
<path class="st0" d="M173.5,150.6c-4.6,0-7.6,2.9-7.6,7.3v14.7c0,4.4-3,7.3-7.6,7.3H28.9c-4.6,0-7.6-2.9-7.6-7.3V26.1
	c0-4.4,3-7.3,7.6-7.3h129.4c4.6,0,7.6,2.9,7.6,7.3v14.7c0,4.4,3,7.3,7.6,7.3s7.6-2.9,7.6-7.3V26.1c0-12.5-9.9-22-22.8-22H28.9
	c-12.9,0-22.8,9.5-22.8,22v146.5c0,12.5,9.9,22,22.8,22h129.4c12.9,0,22.8-9.5,22.8-22V158C181.2,153.6,178.1,150.6,173.5,150.6z"/>
</svg>
