<?xml version="1.0" encoding="utf-8"?>
<!-- Generator: Adobe Illustrator 24.0.0, SVG Export Plug-In . SVG Version: 6.00 Build 0)  -->
<svg version="1.1" id="图层_1" xmlns="http://www.w3.org/2000/svg" xmlns:xlink="http://www.w3.org/1999/xlink" x="0px" y="0px"
	 viewBox="0 0 200 200" style="enable-background:new 0 0 200 200;" xml:space="preserve">
<style type="text/css">
	.st0{fill:#333333;}
</style>
<path class="st0" d="M107.1,38c-1.6-1.6-3.7-2.4-5.8-2.4c-0.3,0-0.6,0-0.8,0c0,0-0.1,0-0.1,0c-0.1,0-0.2,0-0.3,0c-0.1,0-0.1,0-0.2,0
	c-0.1,0-0.1,0-0.2,0c-0.1,0-0.2,0-0.3,0.1c0,0-0.1,0-0.1,0c-0.1,0-0.2,0-0.3,0.1c0,0-0.1,0-0.1,0c-0.1,0-0.2,0.1-0.3,0.1
	c0,0-0.1,0-0.1,0c-0.1,0-0.2,0.1-0.3,0.1c0,0,0,0-0.1,0c-0.1,0-0.2,0.1-0.3,0.1l-0.1,0c-0.1,0.1-0.2,0.1-0.3,0.2l0,0
	c-0.1,0.1-0.2,0.1-0.3,0.2c-0.7,0.4-1.3,0.9-1.8,1.4l-71,71c-3.2,3.2-3.2,8.5,0,11.7c3.2,3.2,8.5,3.2,11.7,0l57-57v127.9
	c0,4.6,3.7,8.3,8.3,8.3h0c4.6,0,8.2-3.7,8.2-8.3V63.8l57.1,57c3.2,3.2,8.5,3.2,11.7,0h0c3.2-3.2,3.2-8.4,0-11.6L107.1,38L107.1,38z
	 M193.7,11.4c0-4.5-3.7-8.2-8.2-8.2H15.9c-4.5,0-8.2,3.7-8.2,8.2s3.7,8.2,8.2,8.2h169.5C190,19.7,193.7,16,193.7,11.4L193.7,11.4z"
	/>
</svg>
