<?xml version="1.0" standalone="no"?><!DOCTYPE svg PUBLIC "-//W3C//DTD SVG 1.1//EN" "http://www.w3.org/Graphics/SVG/1.1/DTD/svg11.dtd"><svg t="1588150008401" class="icon" viewBox="0 0 1024 1024" version="1.1" xmlns="http://www.w3.org/2000/svg" p-id="8764" xmlns:xlink="http://www.w3.org/1999/xlink" width="200" height="200"><defs><style type="text/css"></style></defs><path d="M767.718597 339.116219l-37.349855-64.569202L924.178675 162.59978l37.349855 64.569202L767.718597 339.116219zM622.105326 959.635455c-8.288598 0-15.553912-3.172179-21.693614-7.776956-0.102328 0.204657-0.306985 0.306985-0.409313 0.511642L261.50015 698.493455 62.47147 698.493455 62.47147 325.506545l198.926352 0 338.39992-253.876686c0.102328 0.204657 0.306985 0.306985 0.409313 0.511642 6.139702-4.604777 13.405016-7.776956 21.693614-7.776956 20.568002 0 37.349855 16.679524 37.349855 37.349855l0 0L659.250525 922.387928l0 0C659.455181 942.955931 642.673329 959.635455 622.105326 959.635455zM734.052563 474.701309 957.844709 474.701309l0 74.597382L734.052563 549.298691 734.052563 474.701309zM958.049365 816.682722l-36.224243 68.048366L733.847906 766.848806l36.224243-68.048366L958.049365 816.682722z" p-id="8765" fill="#CF111B"></path></svg>