<?xml version="1.0" standalone="no"?><!DOCTYPE svg PUBLIC "-//W3C//DTD SVG 1.1//EN" "http://www.w3.org/Graphics/SVG/1.1/DTD/svg11.dtd"><svg t="1588149712604" class="icon" viewBox="0 0 1024 1024" version="1.1" xmlns="http://www.w3.org/2000/svg" p-id="7166" xmlns:xlink="http://www.w3.org/1999/xlink" width="200" height="200"><defs><style type="text/css"></style></defs><path d="M854.073 938.667H170.667A113.778 113.778 0 0 1 56.889 824.889V142.222a56.889 56.889 0 0 1 56.889-56.889h189.838a94.89 94.89 0 0 1 94.606 94.834v18.944h455.623A113.778 113.778 0 0 1 967.623 312.89v512a113.778 113.778 0 0 1-113.55 113.778zM256 711.11h56.889a28.444 28.444 0 1 0 0-56.889H256a28.444 28.444 0 1 0 0 56.89z m0-227.555h56.889a28.444 28.444 0 1 0 0-56.89H256a28.444 28.444 0 1 0 0 56.89z m512.569-56.89H483.84a28.444 28.444 0 1 0 0 56.89h284.786a28.444 28.444 0 1 0 0-56.89z m0 227.556H483.84a28.444 28.444 0 1 0 0 56.89h284.786a28.444 28.444 0 1 0 0-56.89z" fill="#ffffff" p-id="7167"></path></svg>