<?xml version="1.0" encoding="utf-8"?>
<!-- Generator: Adobe Illustrator 24.0.0, SVG Export Plug-In . SVG Version: 6.00 Build 0)  -->
<svg version="1.1" id="图层_1" xmlns="http://www.w3.org/2000/svg" xmlns:xlink="http://www.w3.org/1999/xlink" x="0px" y="0px"
	 viewBox="0 0 48 48" style="enable-background:new 0 0 48 48;" xml:space="preserve">
<style type="text/css">
	.st0{fill:url(#Shape_4_);}
	.st1{fill:#707E91;}
</style>
<title>ic/数据计算</title>
<desc>Created with Sketch.</desc>
<g id="ic_x2F_数据计算">
	<g id="Group-2" transform="translate(8.000000, 4.000000)">
		<g id="Group">
			
				<linearGradient id="Shape_4_" gradientUnits="userSpaceOnUse" x1="-278.3189" y1="394.2859" x2="-277.1699" y2="395.1376" gradientTransform="matrix(26 0 0 -17 7236 6722)">
				<stop  offset="0" style="stop-color:#707E91;stop-opacity:0.4"/>
				<stop  offset="1" style="stop-color:#707E91;stop-opacity:0"/>
			</linearGradient>
			<polygon id="Shape" class="st0" points="-0.2,2.2 32.8,2.2 32.8,20 -0.2,20 			"/>
			<path id="Shape_1_" class="st1" d="M1.1,21v18.9h30.5V21H1.1z M34.1,19v23H-1.5V19H34.1z M-1.5,0.1v2.1h35.5V0.1H-1.5z M36.6-2
				v6.3H-4V-2H36.6z"/>
			<path id="Shape_2_" class="st1" d="M12.5,28.4h7.6v-1h-7.6V28.4z M22.7,25.2v5.2H10v-5.2H22.7z M30.3,21H2.3v-5.2h27.9V21z
				 M27.7,19v-1H4.9v1H27.7z"/>
			<polygon id="Shape_3_" class="st1" points="8.7,16.9 6.2,16.9 6.2,12.7 26.5,12.7 26.5,16.9 23.9,16.9 23.9,14.8 8.7,14.8 			"/>
		</g>
	</g>
</g>
</svg>
