<?xml version="1.0" encoding="utf-8"?>
<!-- Generator: Adobe Illustrator 24.0.0, SVG Export Plug-In . SVG Version: 6.00 Build 0)  -->
<svg version="1.1" id="图层_1" xmlns="http://www.w3.org/2000/svg" xmlns:xlink="http://www.w3.org/1999/xlink" x="0px" y="0px"
	 viewBox="0 0 48 48" style="enable-background:new 0 0 48 48;" xml:space="preserve">
<style type="text/css">
	.st0{fill:url(#Rectangle-44_1_);}
	.st1{fill:none;stroke:#707E91;stroke-width:2;}
	.st2{opacity:0.1;fill:none;stroke:#707E91;stroke-width:2;enable-background:new    ;}
	.st3{fill:#FFFFFF;stroke:#707E91;stroke-width:2;}
</style>
<title>ic/高性能mpp</title>
<desc>Created with Sketch.</desc>
<g id="ic_x2F_高性能mpp">
	
		<linearGradient id="Rectangle-44_1_" gradientUnits="userSpaceOnUse" x1="-270.3274" y1="410.535" x2="-269.2255" y2="411.3518" gradientTransform="matrix(26 0 0 -39 7036 16052)">
		<stop  offset="0" style="stop-color:#707E91;stop-opacity:0.4"/>
		<stop  offset="1" style="stop-color:#707E91;stop-opacity:0"/>
	</linearGradient>
	<rect id="Rectangle-44" x="8.8" y="1.5" class="st0" width="29.3" height="43.9"/>
	<ellipse id="Oval" class="st1" cx="24" cy="13.9" rx="22" ry="9"/>
	<path id="Oval_1_" class="st2" d="M24,33c12.1,0,22-4,22-9c0-1.9-1.4-3.6-3.8-5.1C38.2,16.6,31.5,15,24,15c-7.6,0-14.3,1.6-18.2,4
		C3.4,20.4,2,22.1,2,24C2,29,11.8,33,24,33z"/>
	<path id="Oval_2_" class="st1" d="M5.7,19C3.4,20.4,2,22.1,2,24c0,5,9.8,9,22,9s22-4,22-9c0-1.9-1.4-3.6-3.8-5.1"/>
	<path id="Oval_3_" class="st2" d="M24,43.2c12.1,0,22-4,22-9s-9.8-9-22-9c-7.7,0-14.4,1.6-18.4,4.1C3.3,30.6,2,32.3,2,34.1
		C2,39.1,11.8,43.2,24,43.2z"/>
	<path id="Oval_4_" class="st1" d="M5.6,29.2C3.3,30.6,2,32.3,2,34.1c0,5,9.8,9,22,9s22-4,22-9c0-1.8-1.4-3.6-3.7-5"/>
	<circle id="Oval-8" class="st3" cx="33" cy="6.5" r="3.9"/>
	<circle id="Oval-8_1_" class="st3" cx="38.6" cy="30.2" r="3.9"/>
	<circle id="Oval-8_2_" class="st3" cx="22.8" cy="43.7" r="2.8"/>
	<circle id="Oval-8_3_" class="st3" cx="12.7" cy="21.2" r="2.8"/>
</g>
</svg>
