<?xml version="1.0" encoding="utf-8"?>
<!-- Generator: Adobe Illustrator 24.0.0, SVG Export Plug-In . SVG Version: 6.00 Build 0)  -->
<svg version="1.1" id="图层_1" xmlns="http://www.w3.org/2000/svg" xmlns:xlink="http://www.w3.org/1999/xlink" x="0px" y="0px"
	 viewBox="0 0 48 48" style="enable-background:new 0 0 48 48;" xml:space="preserve">
<style type="text/css">
	.st0{opacity:0.5749;fill:url(#Combined-Shape_3_);enable-background:new    ;}
	.st1{fill:none;stroke:#707E91;stroke-width:2;}
	.st2{fill:#707E91;}
</style>
<title>ic/数据安全</title>
<desc>Created with Sketch.</desc>
<g id="ic_x2F_数据安全">
	<g id="database-38168" transform="translate(8.000000, 6.000000)">
		<g id="Group">
			
				<linearGradient id="Combined-Shape_3_" gradientUnits="userSpaceOnUse" x1="-280.4543" y1="403.7071" x2="-279.2686" y2="404.5859" gradientTransform="matrix(32 0 0 -36 8967 14569)">
				<stop  offset="0" style="stop-color:#707E91;stop-opacity:0.4"/>
				<stop  offset="1" style="stop-color:#707E91;stop-opacity:0"/>
			</linearGradient>
			<path id="Combined-Shape" class="st0" d="M-5.9-3.9h38.8V8.3H-5.9V-3.9z M-5.9,11.9h38.8V24H-5.9V11.9z M-5.9,27.7h38.8v12.1
				H-5.9V27.7z"/>
			<path id="Combined-Shape_1_" class="st1" d="M31.7,2.2c-2.9,0-5.4,2.1-5.9,4.8H-4.6v-9.7h36.4V2.2z M22,28.9
				c-0.7,1.5-1.1,3.1-1.1,4.8c0,1.7,0.4,3.4,1.1,4.8H-4.6v-9.7H22z M-4.6,13.1h30.3v9.7H-4.6V13.1z"/>
		</g>
	</g>
	<path id="Combined-Shape_2_" class="st2" d="M7,7h7.3v2.4H7V7z M7,22.8h7.3v2.4H7V22.8z M7,38.5h7.3v2.4H7V38.5z"/>
	<path id="Rectangle-8" class="st2" d="M42.2,28.8v3.6c0,0.1,0,0.3,0,0.4c2.8,1,4.9,3.7,4.9,6.9c0,4-3.3,7.3-7.3,7.3
		s-7.3-3.3-7.3-7.3c0-3.2,2-5.9,4.9-6.9c0-0.1,0-0.3,0-0.4V14.3c0-1.3,1.1-2.4,2.4-2.4c1.3,0,2.4,1.1,2.4,2.4v2.4h2.4
		c0.7,0,1.2,0.5,1.2,1.2c0,0.7-0.5,1.2-1.2,1.2h-2.4v2.4h2.4c0.7,0,1.2,0.5,1.2,1.2c0,0.7-0.5,1.2-1.2,1.2h-2.4v2.4h2.4
		c0.7,0,1.2,0.5,1.2,1.2c0,0.7-0.5,1.2-1.2,1.2H42.2z M39.7,36.1c-2,0-3.6,1.6-3.6,3.6s1.6,3.6,3.6,3.6s3.6-1.6,3.6-3.6
		S41.7,36.1,39.7,36.1z"/>
</g>
</svg>
