<?xml version="1.0" encoding="utf-8"?>
<!-- Generator: Adobe Illustrator 24.0.0, SVG Export Plug-In . SVG Version: 6.00 Build 0)  -->
<svg version="1.1" id="图层_1" xmlns="http://www.w3.org/2000/svg" xmlns:xlink="http://www.w3.org/1999/xlink" x="0px" y="0px"
	 viewBox="0 0 48 48" style="enable-background:new 0 0 48 48;" xml:space="preserve">
<style type="text/css">
	.st0{fill:url(#Rectangle-path_4_);stroke:#707E91;stroke-width:2;}
	.st1{fill:#FFFFFF;stroke:#707E91;stroke-width:2;}
	.st2{fill:#707E91;}
	.st3{fill:url(#Rectangle-path_5_);stroke:#707E91;stroke-width:2;}
	.st4{fill:url(#Rectangle-path_6_);stroke:#707E91;stroke-width:2;}
</style>
<title>ic/分布式事务</title>
<desc>Created with Sketch.</desc>
<g id="ic_x2F_分布式事务">
	<g id="icon-244" transform="translate(5.000000, 5.000000)">
		
			<linearGradient id="Rectangle-path_4_" gradientUnits="userSpaceOnUse" x1="-258.029" y1="377.5594" x2="-256.8963" y2="378.3989" gradientTransform="matrix(10 0 0 -10 2593 3814)">
			<stop  offset="0" style="stop-color:#707E91;stop-opacity:0.4"/>
			<stop  offset="1" style="stop-color:#707E91;stop-opacity:0"/>
		</linearGradient>
		<rect id="Rectangle-path" x="13.2" y="28" class="st0" width="11.6" height="11.6"/>
		<rect id="Rectangle-path_1_" x="10.9" y="-1" class="st1" width="16.2" height="11.6"/>
		<polygon id="Rectangle-47" class="st2" points="20.2,9.4 20.2,22.2 17.8,22.2 17.8,9.4 		"/>
		<rect id="Rectangle-47_1_" x="1.6" y="15.2" class="st2" width="34.7" height="2.3"/>
		<polygon id="Rectangle-47_2_" class="st2" points="3.9,15.2 3.9,22.2 1.6,22.2 1.6,15.2 		"/>
		<polygon id="Rectangle-47_3_" class="st2" points="36.4,15.2 36.4,22.2 34.1,22.2 34.1,15.2 		"/>
		<polygon id="Rectangle-2" class="st2" points="21.3,19.8 21.3,22.2 19,24.5 16.7,22.2 16.7,19.8 19,22.2 		"/>
		<polygon id="Rectangle-2_1_" class="st2" points="5.1,19.8 5.1,22.2 2.8,24.5 0.5,22.2 0.5,19.8 2.8,22.2 		"/>
		<polygon id="Rectangle-2_2_" class="st2" points="37.5,19.8 37.5,22.2 35.2,24.5 32.9,22.2 32.9,19.8 35.2,22.2 		"/>
		
			<linearGradient id="Rectangle-path_5_" gradientUnits="userSpaceOnUse" x1="-257.8076" y1="377.5594" x2="-256.675" y2="378.3989" gradientTransform="matrix(10 0 0 -10 2607 3814)">
			<stop  offset="0" style="stop-color:#707E91;stop-opacity:0.4"/>
			<stop  offset="1" style="stop-color:#707E91;stop-opacity:0"/>
		</linearGradient>
		<polygon id="Rectangle-path_2_" class="st3" points="29.4,28 41,28 41,39.5 29.4,39.5 		"/>
		
			<linearGradient id="Rectangle-path_6_" gradientUnits="userSpaceOnUse" x1="-258.2502" y1="377.5594" x2="-257.1176" y2="378.3989" gradientTransform="matrix(10 0 0 -10 2579 3814)">
			<stop  offset="0" style="stop-color:#707E91;stop-opacity:0.4"/>
			<stop  offset="1" style="stop-color:#707E91;stop-opacity:0"/>
		</linearGradient>
		<rect id="Rectangle-path_3_" x="-3" y="28" class="st4" width="11.6" height="11.6"/>
	</g>
</g>
</svg>
