<?xml version="1.0" encoding="utf-8"?>
<!-- Generator: Adobe Illustrator 24.0.0, SVG Export Plug-In . SVG Version: 6.00 Build 0)  -->
<svg version="1.1" id="图层_1" xmlns="http://www.w3.org/2000/svg" xmlns:xlink="http://www.w3.org/1999/xlink" x="0px" y="0px"
	 viewBox="0 0 48 48" style="enable-background:new 0 0 48 48;" xml:space="preserve">
<style type="text/css">
	.st0{fill:url(#Shape_1_);}
	.st1{fill:#FFFFFF;stroke:#707E91;stroke-width:2;}
	.st2{fill:#707E91;}
</style>
<title>ic/数据查询</title>
<desc>Created with Sketch.</desc>
<g id="ic_x2F_数据查询">
	<g id="Group-2" transform="translate(9.000000, 7.000000)">
		<g id="Group">
			
				<linearGradient id="Shape_1_" gradientUnits="userSpaceOnUse" x1="-279.4675" y1="401.3734" x2="-278.2314" y2="402.2896" gradientTransform="matrix(26 0 0 -32 7261 12880)">
				<stop  offset="0" style="stop-color:#707E91;stop-opacity:0.4"/>
				<stop  offset="1" style="stop-color:#707E91;stop-opacity:0"/>
			</linearGradient>
			<polygon id="Shape" class="st0" points="-3.7,-0.5 29.1,-0.5 29.1,40 -3.7,40 			"/>
			<rect id="Rectangle-path" x="-6.3" y="-4.2" class="st1" width="30.3" height="10.1"/>
			<rect id="Rectangle-path_1_" x="-6.3" y="10.9" class="st1" width="30.3" height="10.1"/>
			<rect id="Rectangle-path_2_" x="-6.3" y="26.1" class="st1" width="30.3" height="10.1"/>
		</g>
	</g>
	<rect id="Rectangle-50" x="6.5" y="6.5" class="st2" width="5.1" height="2.5"/>
	<rect id="Rectangle-50_1_" x="6.5" y="21.7" class="st2" width="5.1" height="2.5"/>
	
		<g id="Group-3" transform="translate(36.313708, 31.313708) rotate(-45.000000) translate(-36.313708, -31.313708) translate(30.313708, 21.313708)">
		<circle id="Oval-11" class="st1" cx="5.1" cy="7.1" r="7.6"/>
		<path id="Rectangle" class="st2" d="M5.1,14.7c0.7,0,1.3,0.6,1.3,1.3v7.6c0,0.7-0.6,1.3-1.3,1.3s-1.3-0.6-1.3-1.3V16
			C3.9,15.3,4.4,14.7,5.1,14.7z"/>
	</g>
</g>
</svg>
