<?xml version="1.0" encoding="utf-8"?>
<!-- Generator: Adobe Illustrator 24.0.0, SVG Export Plug-In . SVG Version: 6.00 Build 0)  -->
<svg version="1.1" id="图层_1" xmlns="http://www.w3.org/2000/svg" xmlns:xlink="http://www.w3.org/1999/xlink" x="0px" y="0px"
	 viewBox="0 0 48 48" style="enable-background:new 0 0 48 48;" xml:space="preserve">
<style type="text/css">
	.st0{fill:#707E91;}
	.st1{fill:url(#Oval_3_);stroke:#707E91;stroke-width:2;}
	.st2{fill:none;stroke:#707E91;stroke-width:2;}
	.st3{fill:#FFFFFF;stroke:#707E91;stroke-width:2;}
</style>
<title>ic/聚合函数</title>
<desc>Created with Sketch.</desc>
<path id="Rectangle-path" class="st0" d="M39.6,20.2H37V4.6H4.6v38.9h19.5v2.6H2V2h37.6V20.2z"/>
<linearGradient id="Oval_3_" gradientUnits="userSpaceOnUse" x1="-1121.7924" y1="218.0459" x2="-1121.7924" y2="219.3436" gradientTransform="matrix(13 0 0 12 14621 -2586)">
	<stop  offset="0" style="stop-color:#DFE2E7"/>
	<stop  offset="1" style="stop-color:#F3F4F6"/>
</linearGradient>
<path id="Oval" class="st1" d="M38,46.1c4.4,0,8.1-2,8.1-4.5c0-1.7,0-5.3,0-11H29.3c0,6.9,0,10.5,0,11C29.3,44.1,33,46.1,38,46.1z"
	/>
<path id="Oval_1_" class="st2" d="M29.3,34.4c0,2.6,3.8,4.7,8.2,4.7c4.9,0,8.7-2.1,8.7-4.7"/>
<ellipse id="Oval_2_" class="st3" cx="37.7" cy="28.6" rx="8.4" ry="4.5"/>
<rect id="Rectangle-51" x="9.8" y="28.1" class="st0" width="14.3" height="2.6"/>
<rect id="Rectangle-51_1_" x="9.8" y="33.3" class="st0" width="7.8" height="2.6"/>
<rect id="Rectangle-51_3_" x="9.8" y="11.2" class="st0" width="14.3" height="2.6"/>
<rect id="Rectangle-51_2_" x="9.8" y="17.4" class="st0" width="7.8" height="2.6"/>
<polygon id="Rectangle-46" class="st0" points="17.6,15.7 21.6,18.7 17.6,21.7 "/>
</svg>
