<?xml version="1.0" encoding="utf-8"?>
<!-- Generator: Adobe Illustrator 24.0.0, SVG Export Plug-In . SVG Version: 6.00 Build 0)  -->
<svg version="1.1" id="图层_1" xmlns="http://www.w3.org/2000/svg" xmlns:xlink="http://www.w3.org/1999/xlink" x="0px" y="0px"
	 viewBox="0 0 48 48" style="enable-background:new 0 0 48 48;" xml:space="preserve">
<style type="text/css">
	.st0{fill:none;stroke:#707E91;stroke-width:2;}
	.st1{fill:#707E91;}
	.st2{opacity:0.3067;fill:url(#Rectangle-44_1_);enable-background:new    ;}
</style>
<title>ic/数据集成</title>
<desc>Created with Sketch.</desc>
<g id="ic_x2F_数据集成">
	<g id="database-176979" transform="translate(5.000000, 5.000000)">
		<path id="Shape" class="st0" d="M40,23H19.6v11.3h7.9V40H27h5.7h-0.6v-5.7H40V23z"/>
		<path id="Shape_1_" class="st1" d="M-3,41.1V21.9h15.8v19.2H-3z M-0.7,24.2v3.4h11.3v-3.4H-0.7z M-0.7,29.8v3.4h11.3v-3.4H-0.7z
			 M-0.7,35.5v3.4h4.5v-3.4H-0.7z M6.1,35.5v3.4h4.5v-3.4H6.1z"/>
		<polygon id="Shape_2_" class="st1" points="6.1,17.4 33.2,17.4 33.2,19.6 35.5,19.6 35.5,15.1 20.8,15.1 20.8,12.8 18.5,12.8 
			18.5,15.1 3.8,15.1 3.8,19.6 6.1,19.6 		"/>
		<path id="Path-3" class="st0" d="M9.3,10.7h19.2c5.9,0.3,5.7-7.9-1.1-7.9c0-6.6-10.5-8.7-13.6,0C5.9,1.6,5.9,10.7,9.3,10.7z"/>
	</g>
	
		<linearGradient id="Rectangle-44_1_" gradientUnits="userSpaceOnUse" x1="-273.0987" y1="400.4854" x2="-271.9919" y2="401.3057" gradientTransform="matrix(35 0 0 -19 9561 7651)">
		<stop  offset="0" style="stop-color:#707E91;stop-opacity:0.4"/>
		<stop  offset="1" style="stop-color:#707E91;stop-opacity:0"/>
	</linearGradient>
	<rect id="Rectangle-44" x="4.3" y="22.4" class="st2" width="39.6" height="21.5"/>
</g>
</svg>
