<?xml version="1.0" encoding="utf-8"?>
<!-- Generator: Adobe Illustrator 24.0.0, SVG Export Plug-In . SVG Version: 6.00 Build 0)  -->
<svg version="1.1" id="图层_1" xmlns="http://www.w3.org/2000/svg" xmlns:xlink="http://www.w3.org/1999/xlink" x="0px" y="0px"
	 viewBox="0 0 200 200" style="enable-background:new 0 0 200 200;" xml:space="preserve">
<style type="text/css">
	.st0{fill:#333333;}
</style>
<path class="st0" d="M138.2,60.9c0-21.9-18.2-39.7-40.7-39.7S56.8,39,56.8,60.9s18.2,39.7,40.7,39.7
	C120,100.6,138.2,82.8,138.2,60.9 M195.3,186.8c0.3,0.9,0.4,1.7,0.4,2.7c0,5.2-4.3,9.4-9.6,9.4c-5.3,0-9.6-4.2-9.6-9.4c0,0,0,0,0,0
	v0h-0.2c-2.5-39.1-35.7-70.1-76.4-70.1c-40.7,0-73.9,31-76.4,70.1h-0.2v0c0,5.2-4.3,9.4-9.6,9.4c-5.3,0-9.6-4.2-9.6-9.3c0,0,0,0,0,0
	c0-0.9,0.2-1.7,0.4-2.5c2.8-35.5,25.8-65.5,57.8-78.8C47.5,97.5,37.8,80.3,37.8,60.9c0-32.3,26.8-58.4,59.8-58.4
	c33,0,59.8,26.2,59.8,58.4c0,18-8.5,35-23.1,46C168,119.6,192.4,150.2,195.3,186.8"/>
</svg>
