<?xml version="1.0" encoding="utf-8"?>
<!-- Generator: Adobe Illustrator 24.0.0, SVG Export Plug-In . SVG Version: 6.00 Build 0)  -->
<svg version="1.1" id="图层_1" xmlns="http://www.w3.org/2000/svg" xmlns:xlink="http://www.w3.org/1999/xlink" x="0px" y="0px"
	 viewBox="0 0 200 200" style="enable-background:new 0 0 200 200;" xml:space="preserve">
<style type="text/css">
	.st0{fill:#fff;}
</style>
<path class="st0" d="M2.3,89.9c0-4.1,3.3-7.5,7.3-7.5s7.3,3.3,7.3,7.4v72.6c0,1.4,1.1,2.5,2.4,2.5c0.4,0,0.8-0.1,1.2-0.3L56,145.3
	c5.2-2.8,11.6-2.7,16.7,0.3l57.9,34.1c0.7,0.4,1.6,0.4,2.3,0.1l48.9-24.6c0.8-0.4,1.4-1.3,1.4-2.2V89.9c0-4.1,3.3-7.4,7.3-7.4
	s7.3,3.3,7.3,7.4v63.2c0,6.6-3.7,12.6-9.5,15.5l-48.9,24.6c-5.2,2.6-11.3,2.4-16.2-0.5l-57.9-34.1c-0.7-0.4-1.6-0.5-2.4,0L27.4,178
	c-2.5,1.3-5.3,2.1-8.1,2.1c-9.5,0-17.1-7.8-17.1-17.3L2.3,89.9L2.3,89.9z M156.4,59.5c0,20.1-16.8,44.2-49.8,73.5
	c-3.7,3.3-9.3,3.3-13,0c-33-29.2-49.8-53.3-49.8-73.5c0-30.6,25.2-55.4,56.3-55.4S156.4,28.9,156.4,59.5z M58.5,59.5
	c0,14.1,13.7,34.3,41.6,59.6c27.9-25.3,41.6-45.5,41.6-59.6c0-22.4-18.6-40.7-41.6-40.7S58.5,37.1,58.5,59.5z M100.1,75.1
	c-8.1,0-14.7-6.6-14.7-14.7s6.6-14.7,14.7-14.7s14.7,6.6,14.7,14.7S108.2,75.1,100.1,75.1z"/>
</svg>
