<?xml version="1.0" encoding="utf-8"?>
<!-- Generator: Adobe Illustrator 24.0.0, SVG Export Plug-In . SVG Version: 6.00 Build 0)  -->
<svg version="1.1" id="图层_1" xmlns="http://www.w3.org/2000/svg" xmlns:xlink="http://www.w3.org/1999/xlink" x="0px" y="0px"
	 viewBox="0 0 200 200" style="enable-background:new 0 0 200 200;" xml:space="preserve">
<style type="text/css">
	.st0{fill:#fff;}
</style>
<path class="st0" d="M96.2,5.6c2.1-1.5,5-1.7,7.2-0.4c30,17.6,59.9,35.1,89.9,52.6c1.7,0.9,3.1,2.3,3.9,4c1.1,2.6,0.8,5.9-0.9,8.1
	c-1.4,1.9-3.9,3.1-6.3,3.1c-4.1,0-8.2,0-12.3,0c0,31.3,0,62.7,0,94c1.5,0,3.1,0,4.6,0c2.2,0,4.5-0.2,6.6,0.6
	c4.8,1.5,8.5,6.2,8.6,11.2c0,2.4,0.2,4.9-0.5,7.3c-1.1,3.8-4.1,6.9-7.9,8.2c-1.5,0.5-3.1,0.7-4.6,0.6c-56.3,0-112.6,0-168.9,0
	c-1.7,0.1-3.5-0.2-5.1-0.8c-4.5-1.7-7.7-6.2-7.8-11c0-2.6-0.3-5.2,0.7-7.7c1.5-4.6,6.1-8.1,11-8.2c2.7,0,5.4,0,8,0
	c0-31.3,0-62.7,0-94c-4,0-8,0-12,0c-2.4,0-4.8-1.1-6.3-3c-1.6-2.1-2-4.9-1.3-7.4c0.6-1.9,2-3.5,3.7-4.6
	C36.5,40.6,66.4,23.1,96.2,5.6 M13.4,64.2c5.9,0,11.9,0,17.8,0c0,37.2,0,74.4,0,111.6c-5.4,0-10.8,0-16.2,0c-1.9,0-3.6,1.7-3.5,3.7
	c0.1,1.8-0.5,3.8,0.8,5.3c0.8,1.1,2.3,1.4,3.6,1.3c56.4,0,112.9,0,169.3,0c1.4,0,2.7-0.8,3.3-2c0.5-0.9,0.3-2,0.3-3
	c0-1,0.1-2.1-0.3-3.1c-0.5-1.3-1.9-2.2-3.3-2.1c-5.4,0-10.8,0-16.2,0c0-37.2,0-74.4,0-111.6c6,0,12,0,18,0
	c-28.9-16.9-57.9-33.9-86.8-50.8C71.3,30.4,42.4,47.3,13.4,64.2L13.4,64.2z"/>
<path class="st0" d="M99.4,46.1c1.5-1,3.6-1,5.1-0.1c0.9,0.5,1.5,1.4,1.9,2.3c2.7,5.4,5.4,10.9,8,16.3c5.7,0.8,11.4,1.7,17.1,2.5
	c1.5,0.1,3.1,0.5,4.1,1.7c1.6,1.7,1.6,4.7-0.1,6.4c-4.5,4.4-8.9,8.7-13.4,13.1c1,5.7,2,11.4,2.9,17.1c0.1,0.9,0.4,1.8,0.2,2.7
	c-0.2,1.4-1,2.7-2.2,3.4c-1.4,0.9-3.2,0.9-4.6,0.2c-5.5-2.9-11-5.8-16.5-8.7c-5.2,2.7-10.4,5.5-15.6,8.2c-0.6,0.3-1.2,0.6-1.8,0.8
	c-1.7,0.5-3.6-0.1-4.8-1.4c-1-1.1-1.4-2.6-1.2-4.1c1-6.1,2.1-12.1,3.1-18.2c-4.4-4.3-8.8-8.6-13.3-12.9c-1.3-1.2-1.8-3.3-1.2-5
	c0.5-1.7,2.1-3,3.9-3.2c6.1-0.9,12.2-1.8,18.3-2.7c2.6-5.3,5.2-10.5,7.8-15.7C97.8,47.7,98.4,46.7,99.4,46.1 M102,59.1
	c-2.2,4.5-4.4,8.9-6.6,13.4c-5,0.7-9.9,1.4-14.9,2.2c3.6,3.5,7.2,7,10.8,10.5c-0.8,4.9-1.7,9.9-2.5,14.8c4.4-2.3,8.9-4.7,13.3-7
	c4.5,2.3,8.9,4.7,13.3,7c-0.8-4.9-1.7-9.9-2.5-14.8c3.6-3.5,7.2-7,10.7-10.5c-5-0.7-9.9-1.4-14.9-2.2
	C106.4,68.1,104.2,63.6,102,59.1z M50.5,140.5c0.4-0.1,0.8-0.1,1.2-0.1c32.4,0,64.8,0,97.2,0c1.6,0,3.2,1,4,2.5
	c0.5,1,0.5,2.2,0.4,3.3c0,1.7-1.2,3.2-2.7,3.8c-0.9,0.4-2,0.3-3,0.3c-31.9,0-63.9,0-95.8,0c-1.7,0.1-3.4-0.9-4.1-2.5
	c-0.5-1.1-0.5-2.3-0.4-3.5C47.3,142.6,48.7,141,50.5,140.5L50.5,140.5z M50.7,161.3c0.4-0.1,0.8-0.1,1.2-0.1c32.2,0,64.5,0,96.7,0
	c1.7-0.1,3.4,0.9,4.1,2.4c0.6,1.1,0.5,2.4,0.4,3.5c-0.2,2.2-2.2,4-4.4,4c-32.4,0-64.7,0-97.1,0c-2.1,0.1-4.2-1.5-4.5-3.7
	c-0.1-1.5-0.2-3.2,0.8-4.5C48.7,162.2,49.6,161.6,50.7,161.3L50.7,161.3z"/>
</svg>
