<?xml version="1.0" encoding="utf-8"?>
<!-- Generator: Adobe Illustrator 24.0.0, SVG Export Plug-In . SVG Version: 6.00 Build 0)  -->
<svg version="1.1" id="图层_1" xmlns="http://www.w3.org/2000/svg" xmlns:xlink="http://www.w3.org/1999/xlink" x="0px" y="0px"
	 viewBox="0 0 200 200" style="enable-background:new 0 0 200 200;" xml:space="preserve">
<style type="text/css">
	.st0{fill:#fff;}
</style>
<path class="st0" d="M143.9,96c0-23-20.1-41-44.4-41S55.1,74,55.1,96c0,23,20.1,42,44.4,42S143.9,119,143.9,96z M68.9,96
	c0-16,13.7-29,30.6-29s30.6,13,30.6,29s-13.7,29-30.6,29S68.9,112,68.9,96z"/>
<path class="st0" d="M156.5,186h-15.8l-11.6-28c32.7-11,54.9-41,54.9-75c0-44-38-80-84.5-80S15,39,15,83c0,34,22.2,63,53.9,74
	l-11.6,28H45.6c-3.2,0-6.3,3-6.3,6s3.2,6,6.3,6h110.9c3.2,0,6.3-3,6.3-6C162.9,189,159.7,186,156.5,186L156.5,186z M27.7,83
	c0-37,31.7-68,71.8-68s71.8,30,71.8,68s-31.7,68-71.8,68S27.7,121,27.7,83z M71,186l9.5-24v-1c6.3,1,11.6,2,18,2
	c5.3,0,11.6-1,16.9-2v1l9.5,24H71L71,186z"/>
<path class="st0" d="M88.9,39c0,5.5,4.8,10,10.6,10s10.6-4.5,10.6-10s-4.8-10-10.6-10S88.9,33.5,88.9,39L88.9,39z"/>
</svg>
