<?xml version="1.0" encoding="utf-8"?>
<!-- Generator: Adobe Illustrator 24.0.0, SVG Export Plug-In . SVG Version: 6.00 Build 0)  -->
<svg version="1.1" id="图层_1" xmlns="http://www.w3.org/2000/svg" xmlns:xlink="http://www.w3.org/1999/xlink" x="0px" y="0px"
	 viewBox="0 0 200 200" style="enable-background:new 0 0 200 200;" xml:space="preserve">
<style type="text/css">
	.st0{fill:#fff;}
</style>
<path class="st0" d="M192.5,80.5l-85-75c-5-3.8-12.5-3.8-16.3,0l-85,75C5,83,3.8,85.5,3.8,88c0,5,5,10,10,10H25v75
	c0,13.8,11.2,25,25,25h100c13.8,0,25-11.2,25-25V98h11.2c2.5,0,5-1.2,7.5-3.8c1.2-2.5,2.5-5,2.5-7.5S195,81.8,192.5,80.5z
	 M87.5,185.5v-50h25v50H87.5z M162.5,85.5V173c0,7.5-5,12.5-12.5,12.5h-25v-50c0-7.5-5-12.5-12.5-12.5h-25C80,123,75,128,75,135.5
	v50H50c-7.5,0-12.5-5-12.5-12.5V85.5H20l80-71.2l80,71.2H162.5z"/>
</svg>
