<?xml version="1.0" encoding="utf-8"?>
<!-- Generator: Adobe Illustrator 24.0.0, SVG Export Plug-In . SVG Version: 6.00 Build 0)  -->
<svg version="1.1" id="图层_1" xmlns="http://www.w3.org/2000/svg" xmlns:xlink="http://www.w3.org/1999/xlink" x="0px" y="0px"
	 viewBox="0 0 200 200" style="enable-background:new 0 0 200 200;" xml:space="preserve">
<style type="text/css">
	.st0{fill:#fff;}
</style>
<path class="st0" d="M183.1,99.5h-91c-5.8,0-10.5,4.5-10.5,10v56.8c0,5.5,4.7,10,10.5,10h39.3v5.9h-16.1c-3.4,0-6.2,2.6-6.2,5.9
	s2.8,5.9,6.2,5.9h44.6c3.4,0,6.2-2.6,6.2-5.9s-2.8-5.9-6.2-5.9h-16.1v-5.9h39.3c5.8,0,10.5-4.5,10.5-10v-56.8
	C193.6,104,188.9,99.5,183.1,99.5z M181.2,164.5H94v-53.2h87.1V164.5z"/>
<path class="st0" d="M73.3,109.6c-9.8-3.4-19.2-5.1-27.8-5.1c-10.8-0.4-19.7,3.1-26.1,6.8V31.5c0.3-2.2,1.3-5.2,2.2-6.3
	c4.9-3.3,14.8-8.4,28.4-8.4c3.7,0,13.1,2.2,18.3,3.6c3.7,1.3,42.2,14.8,63.4,14.8c12.8,0,31.1-4.9,49.1-13.1c0.2,0,0.3-0.1,0.4-0.1
	c0.1,0.1,0.2,0.4,0.3,0.6l0.6,56.5c0,3.3,2.8,5.9,6.3,5.9c3.4,0,6.2-2.7,6.2-6l-0.7-57.8l-0.1-0.5c-0.2-1-1.4-6.2-6.4-9
	c-2.2-1.2-5.9-2.3-10.9-0.7l-0.4,0.1l-0.4,0.1c-16.2,7.5-33.1,12.1-44.1,12.1C112,23.4,72.7,9.4,72.3,9.3l-0.2-0.1l-0.2-0.1
	C70.3,8.7,56.6,5,49.9,5l0,0c-17.4,0-30.1,6.8-36.1,10.9l-0.3,0.2l-0.3,0.3c-4.9,4.3-6.1,12.5-6.3,14l0,0.3l0,157.3
	c0,3.3,2.8,5.9,6.2,5.9s6.2-2.6,6.2-5.9v-62c1.3-1.1,3.3-2.7,6-4.4c6.4-3.9,13.1-5.7,19.8-5.4h0.3c7.3,0,15.2,1.5,23.7,4.4
	c3.2,1.1,6.8-0.5,8-3.5C78.2,114.1,76.5,110.7,73.3,109.6z"/>
</svg>
