<?xml version="1.0" encoding="utf-8"?>
<!-- Generator: Adobe Illustrator 24.0.0, SVG Export Plug-In . SVG Version: 6.00 Build 0)  -->
<svg version="1.1" id="图层_1" xmlns="http://www.w3.org/2000/svg" xmlns:xlink="http://www.w3.org/1999/xlink" x="0px" y="0px"
	 viewBox="0 0 200 200" style="enable-background:new 0 0 200 200;" xml:space="preserve">
<style type="text/css">
	.st0{fill:#fff;}
</style>
<path class="st0" d="M173.5,3.7H26.4C12.9,3.7,1.9,16.1,1.9,31.2v110c0,15.1,11.1,27.5,24.5,27.5h67.4v13.8h-49
	c-3.7,0-6.2,2.8-6.2,6.9c0,4.1,2.5,6.9,6.2,6.9H155c3.7,0,6.2-2.7,6.2-6.9c0-4.2-2.4-6.9-6.2-6.9h-49v-13.8h67.4
	c13.5,0,24.5-12.4,24.5-27.5v-110C198,16.1,186.9,3.7,173.5,3.7z M185.7,141.2c0,8.2-4.9,13.8-12.3,13.8H26.3
	C19,155,14,149.5,14,141.2v-110c0-8.2,4.9-13.8,12.3-13.8h147.1c7.4,0,12.3,5.5,12.3,13.8V141.2z"/>
<path class="st0" d="M162.4,66.9l-19.6,22l-31.9-48.1c-1.2-1.4-3.7-2.8-6.2-2.8c-1.2,0-3.7,1.4-4.9,4.1L80.3,98.6L61.9,68.3
	c-1.2-1.4-2.5-2.7-4.9-2.7c-2.5,0-3.7,0-4.9,1.4L27.6,94.5c-1.2,2.7-1.2,8.2,0,11c1.2,2.8,6.2,2.8,8.6,0l19.6-22l20.9,34.4
	c1.2,1.4,2.5,2.7,4.9,2.8h1.2c2.4,0,3.7-1.4,4.9-4.1l19.6-57.7l30.7,45.4c1.2,1.4,2.5,2.7,4.9,2.8c1.2,0,3.7,0,4.9-1.4l24.5-27.5
	c2.5-2.8,2.5-6.9,0-9.6C169.8,65.6,164.9,65.6,162.4,66.9z"/>
</svg>
