<?xml version="1.0" encoding="utf-8"?>
<!-- Generator: Adobe Illustrator 24.0.0, SVG Export Plug-In . SVG Version: 6.00 Build 0)  -->
<svg version="1.1" id="图层_1" xmlns="http://www.w3.org/2000/svg" xmlns:xlink="http://www.w3.org/1999/xlink" x="0px" y="0px"
	 viewBox="0 0 200 200" style="enable-background:new 0 0 200 200;" xml:space="preserve">
<style type="text/css">
	.st0{fill:#fff;}
</style>
<path class="st0" d="M72.2,54.2H37.8c-4.1,0-6.9,2.8-6.9,6.9s2.8,6.9,6.9,6.9h34.4c4.1,0,6.9-2.8,6.9-6.9S76.4,54.2,72.2,54.2z
	 M72.2,81.8H37.8c-4.1,0-6.9,2.8-6.9,6.9s2.8,6.9,6.9,6.9h34.4c4.1,0,6.9-2.8,6.9-6.9C79.1,84.5,76.4,81.8,72.2,81.8z M72.2,109.3
	H37.8c-4.1,0-6.9,2.8-6.9,6.9s2.8,6.9,6.9,6.9h34.4c4.1,0,6.9-2.8,6.9-6.9S76.4,109.3,72.2,109.3L72.2,109.3z M194.2,172.7
	L179,157.6c11.7-15.8,10.3-38.6-4.1-53c-15.8-15.8-42-15.8-58.6,0c-7.6,7.6-12.4,17.9-12.4,28.9c0,11,4.1,21.4,12.4,28.9
	c7.6,7.6,17.9,12.4,28.9,12.4c9,0,17.2-2.8,24.1-7.6l15.2,15.2c1.4,1.4,3.4,2.1,4.8,2.1s3.4-0.7,4.8-2.1
	C196.9,180.3,196.9,175.5,194.2,172.7L194.2,172.7z M126,153.4c-5.5-5.5-8.3-12.4-8.3-19.3c0-6.9,2.8-14.5,8.3-19.3
	c5.5-5.5,12.4-8.3,19.3-8.3s13.8,2.8,19.3,8.3c11,11,11,28.2,0,39.3C154.9,163.8,136.3,163.8,126,153.4z"/>
<path class="st0" d="M120.4,178.2H99.8v-124h68.9v27.6c0,4.1,2.8,6.9,6.9,6.9s6.9-2.8,6.9-6.9V54.2c0-7.6-6.2-13.8-14.5-13.8H99.8
	V19.8C99.8,12.2,93.6,6,86.7,6H23.3c-6.9,0-13.1,6.2-13.1,13.8v158.4c-4.1,0-6.9,2.8-6.9,6.9s2.8,6.9,6.9,6.9h110.2
	c4.1,0,6.9-2.8,6.9-6.9S124.6,178.2,120.4,178.2L120.4,178.2z M24,178.2L23.3,19.8H86v158.4L24,178.2L24,178.2z"/>
</svg>
