<?xml version="1.0" encoding="utf-8"?>
<!-- Generator: Adobe Illustrator 24.0.0, SVG Export Plug-In . SVG Version: 6.00 Build 0)  -->
<svg version="1.1" id="图层_1" xmlns="http://www.w3.org/2000/svg" xmlns:xlink="http://www.w3.org/1999/xlink" x="0px" y="0px"
	 viewBox="0 0 200 200" style="enable-background:new 0 0 200 200;" xml:space="preserve">
<style type="text/css">
	.st0{fill:#fff;}
</style>
<path class="st0" d="M18.3,196c-2.6,0-4.8-2.1-4.8-4.8V34.5C13.5,18.8,26.3,6,42,6h66.5C124.2,6,137,18.8,137,34.5v29
	c0,2.6-2.1,4.8-4.8,4.8s-4.8-2.1-4.8-4.8v-29c0-10.4-8.6-19-19-19H42c-10.4,0-19,8.5-19,19v156.8C23,193.9,20.9,196,18.3,196z"/>
<path class="st0" d="M125.1,196H8.8c-2.6,0-4.8-2.1-4.8-4.8c0-2.6,2.1-4.7,4.8-4.7h116.4c2.6,0,4.8,2.1,4.8,4.7
	C129.9,193.9,127.7,196,125.1,196z M63.4,48.8H42c-2.6,0-4.8-2.1-4.8-4.8c0-2.6,2.1-4.8,4.8-4.8h21.4c2.6,0,4.8,2.1,4.8,4.8
	C68.1,46.6,66,48.8,63.4,48.8z M108.5,48.8H87.1c-2.6,0-4.8-2.1-4.8-4.8c0-2.6,2.1-4.8,4.8-4.8h21.4c2.6,0,4.8,2.1,4.8,4.8
	C113.2,46.6,111.1,48.8,108.5,48.8z M51.5,82H42c-2.6,0-4.8-2.1-4.8-4.8s2.1-4.8,4.8-4.8h9.5c2.6,0,4.8,2.1,4.8,4.8S54.1,82,51.5,82
	z M179.8,98.4c-2.6,0-4.8-2.1-4.8-4.8V65.4c0-10.5-8.6-19-19-19h-23.8c-2.6,0-4.7-2.1-4.7-4.8s2.1-4.8,4.7-4.8H156
	c15.7,0,28.5,12.8,28.5,28.5v28.3C184.5,96.2,182.4,98.4,179.8,98.4L179.8,98.4z"/>
<path class="st0" d="M125.1,196c-38,0-68.9-30.9-68.9-68.9s30.9-68.9,68.9-68.9S194,89.1,194,127.1S163.1,196,125.1,196z
	 M125.1,67.8c-32.8,0-59.4,26.6-59.4,59.4s26.6,59.4,59.4,59.4s59.4-26.6,59.4-59.4S157.9,67.8,125.1,67.8z"/>
<path class="st0" d="M90.7,143.8c-1.2,0-2.4-0.5-3.3-1.4c-1.9-1.9-1.9-4.8,0-6.7l26.1-26.1c1.9-1.9,4.7-1.9,6.7,0l6.2,6.2l22.8-22.8
	c1.9-1.9,4.7-1.9,6.6,0l7.1,7.1c1.9,1.9,1.9,4.8,0,6.7c-1.9,1.9-4.8,1.9-6.7,0l-3.8-3.8l-22.8,22.8c-1.9,1.9-4.8,1.9-6.7,0l-6.2-6.2
	L94,142.3C93.1,143.3,91.9,143.8,90.7,143.8L90.7,143.8z M90.7,162.8c-2.6,0-4.8-2.1-4.8-4.8v-4.8c0-2.6,2.1-4.7,4.8-4.7
	s4.8,2.1,4.8,4.7v4.8C95.4,160.6,93.3,162.8,90.7,162.8z M126.3,162.8c-2.6,0-4.7-2.1-4.7-4.8v-21.4c0-2.6,2.1-4.8,4.7-4.8
	s4.8,2.1,4.8,4.8V158C131.1,160.6,128.9,162.8,126.3,162.8z M159.6,162.8c-2.6,0-4.7-2.1-4.7-4.8v-40.4c0-2.6,2.1-4.7,4.7-4.7
	c2.6,0,4.8,2.1,4.8,4.7V158C164.3,160.6,162.2,162.7,159.6,162.8L159.6,162.8z"/>
</svg>
