<?xml version="1.0" encoding="utf-8"?>
<!-- Generator: Adobe Illustrator 24.0.0, SVG Export Plug-In . SVG Version: 6.00 Build 0)  -->
<svg version="1.1" id="图层_1" xmlns="http://www.w3.org/2000/svg" xmlns:xlink="http://www.w3.org/1999/xlink" x="0px" y="0px"
	 viewBox="0 0 200 200" style="enable-background:new 0 0 200 200;" xml:space="preserve">
<style type="text/css">
	.st0{fill:#fff;}
</style>
<path class="st0" d="M19.8,196c-2.6,0-4.8-2.1-4.8-4.8V34.5C15,18.8,27.8,6,43.5,6H110c15.7,0,28.5,12.8,28.5,28.5v29
	c0,2.6-2.1,4.7-4.8,4.7c-2.6,0-4.7-2.1-4.7-4.7v-29c0-10.5-8.5-19-19-19H43.5c-10.5,0-19,8.5-19,19v156.8
	C24.5,193.9,22.4,196,19.8,196L19.8,196z"/>
<path class="st0" d="M86.3,196h-76c-2.6,0-4.7-2.1-4.7-4.8c0-2.6,2.1-4.7,4.7-4.7h76c2.6,0,4.7,2.1,4.7,4.8
	C91,193.9,88.9,196,86.3,196z M126.7,177c-32.7,0-59.4-26.6-59.4-59.4s26.6-59.4,59.4-59.4S186,84.9,186,117.6S159.4,177,126.7,177z
	 M126.7,67.7c-27.5,0-49.9,22.4-49.9,49.9c0,27.5,22.4,49.9,49.9,49.9c27.5,0,49.9-22.4,49.9-49.9C176.5,90.1,154.2,67.7,126.7,67.7
	z M91,39.2H43.5c-2.6,0-4.8-2.1-4.8-4.8s2.1-4.8,4.8-4.8H91c2.6,0,4.8,2.1,4.8,4.8S93.7,39.2,91,39.2z M55.4,72.5H43.5
	c-2.6,0-4.7-2.1-4.7-4.8c0-2.6,2.1-4.7,4.7-4.7h11.9c2.6,0,4.7,2.1,4.7,4.8C60.1,70.4,58,72.5,55.4,72.5z"/>
<path class="st0" d="M157.5,77.3c-2.6,0-4.8-2.1-4.8-4.8V39.2h-19c-2.6,0-4.8-2.1-4.8-4.8s2.1-4.8,4.8-4.8h23.8
	c2.6,0,4.8,2.1,4.8,4.8v38.1C162.3,75.2,160.2,77.3,157.5,77.3z M126.7,141.4c-13.1,0-23.8-10.7-23.8-23.8s10.7-23.8,23.8-23.8
	s23.8,10.7,23.8,23.8S139.8,141.4,126.7,141.4z M126.7,103.4c-7.9,0-14.3,6.4-14.3,14.3s6.4,14.3,14.3,14.3s14.3-6.4,14.3-14.3
	S134.5,103.4,126.7,103.4z M167,196c-11.1,0-21.1-6.4-25.8-16.4l-3.5-7.5c-1.1-2.4-0.1-5.2,2.3-6.3s5.2-0.1,6.3,2.3l3.5,7.5
	c3.1,6.7,9.8,10.9,17.2,10.9c2.8,0,5.5-0.6,8-1.8c4.6-2.1,8.1-6,9.8-10.8c1.7-4.7,1.5-10-0.7-14.5L174,137.5c-1.1-2.4,0-5.2,2.4-6.3
	c2.3-1,5,0,6.2,2.2l10.3,21.9c3.2,6.8,3.6,14.7,1,21.8c-2.6,7.1-7.9,12.9-14.7,16.1C175.3,195.1,171.2,196,167,196z M86.3,196
	c-4.2,0-8.3-0.9-12.1-2.7c-6.9-3.2-12.1-9-14.7-16.1c-2.6-7.1-2.2-15,1-21.8l10.3-21.9c1.1-2.4,4-3.4,6.3-2.2
	c2.3,1.1,3.3,3.9,2.3,6.3l-10.3,21.9c-2.2,4.6-2.4,9.8-0.7,14.5c1.7,4.7,5.2,8.6,9.8,10.7c2.5,1.2,5.3,1.8,8.1,1.8
	c7.4,0,14.1-4.3,17.2-10.9l3.5-7.5c1.1-2.4,3.9-3.4,6.3-2.3c2.4,1.1,3.4,3.9,2.3,6.3l-3.5,7.5C107.4,189.6,97.3,196,86.3,196z"/>
</svg>
