<?xml version="1.0" encoding="utf-8"?>
<!-- Generator: Adobe Illustrator 24.0.0, SVG Export Plug-In . SVG Version: 6.00 Build 0)  -->
<svg version="1.1" id="图层_1" xmlns="http://www.w3.org/2000/svg" xmlns:xlink="http://www.w3.org/1999/xlink" x="0px" y="0px"
	 viewBox="0 0 200 200" style="enable-background:new 0 0 200 200;" xml:space="preserve">
<style type="text/css">
	.st0{fill:#fff;}
</style>
<path class="st0" d="M196,131.7c-0.5,1-1.1,2.1-1.4,3.2c-3.7,10.8-12,17.4-22.7,17.5c-48,0.1-95.9,0.1-143.9,0
	c-10.7,0-18.9-6.7-22.7-17.5c-0.4-1.1-1-2.1-1.4-3.2V31C8,17.6,16,9.8,29.6,9.8c46.9,0,93.9-0.1,140.8,0c12.9,0,20.2,6,24.8,19.4
	c0.2,0.6,0.6,1.2,0.9,1.9L196,131.7L196,131.7z M100.1,22.7H30.5c-10.7,0-14.5,4.2-14.6,15.6c-0.1,28.5-0.1,57.1,0,85.5
	c0,11.5,3.8,15.6,14.5,15.6h139.1c10.5,0,14.3-4.2,14.3-15.4c0.1-28.7,0.1-57.4,0-86.1c0-11.1-4-15.4-14.3-15.4
	C146.5,22.7,123.3,22.7,100.1,22.7z M40.2,191v-12.4h35.7v-12.8h47.9v12.4h35.9V191H40.2L40.2,191z"/>
<path class="st0" d="M111.6,126.4H88.4V49h23.2V126.4z M159.7,74.9v51.2h-23.3V74.9C136.4,74.9,159.7,74.9,159.7,74.9z M63.6,126.4
	H40.5V88h23.1V126.4z"/>
</svg>
