<?xml version="1.0" encoding="utf-8"?>
<!-- Generator: Adobe Illustrator 24.0.0, SVG Export Plug-In . SVG Version: 6.00 Build 0)  -->
<svg version="1.1" id="图层_1" xmlns="http://www.w3.org/2000/svg" xmlns:xlink="http://www.w3.org/1999/xlink" x="0px" y="0px"
	 viewBox="0 0 200 200" style="enable-background:new 0 0 200 200;" xml:space="preserve">
<style type="text/css">
	.st0{fill:#fff;}
</style>
<path class="st0" d="M125.4,181.1V34c-1.6-0.3-3.2-0.7-4.7-1.2l-48-16v147c1.6,0.3,3.2,0.7,4.7,1.2L125.4,181.1z M135.9,181.1
	l40.3-13.4c4.3-1.4,7.2-5.5,7.2-10v-139l-42.8,14.2c-1.5,0.5-3.1,0.9-4.7,1.2L135.9,181.1L135.9,181.1z M62.1,163.9v-147L21.8,30.3
	c-4.3,1.4-7.2,5.5-7.2,10v139L57.3,165C58.9,164.5,60.4,164.1,62.1,163.9L62.1,163.9z M18.4,20.2L60.7,6.2c4.3-1.4,9-1.4,13.3,0
	l50,16.7c4.3,1.4,9,1.4,13.3,0l42.8-14.3c5.5-1.8,11.5,1.1,13.4,6.7c0.4,1.1,0.5,2.2,0.5,3.3v139c0,9.1-5.8,17.2-14.4,20l-42.2,14.1
	c-4.3,1.4-9,1.4-13.3,0l-50-16.7c-4.3-1.4-9-1.4-13.3,0l-42.8,14.2c-5.5,1.8-11.5-1.1-13.4-6.7c-0.4-1.1-0.5-2.2-0.5-3.3v-139
	C4,31.2,9.8,23.1,18.4,20.2z"/>
</svg>
