<?xml version="1.0" encoding="utf-8"?>
<!-- Generator: Adobe Illustrator 24.0.0, SVG Export Plug-In . SVG Version: 6.00 Build 0)  -->
<svg version="1.1" id="图层_1" xmlns="http://www.w3.org/2000/svg" xmlns:xlink="http://www.w3.org/1999/xlink" x="0px" y="0px"
	 viewBox="0 0 200 200" style="enable-background:new 0 0 200 200;" xml:space="preserve">
<style type="text/css">
	.st0{fill:#fff;}
</style>
<path class="st0" d="M182.1,5.5H17.8C9.3,5.5,2.4,13,2.4,22.2v113.4c0,9.2,6.9,16.8,15.4,16.8h19.6c1,0,2.1-0.2,3-0.7
	c0.2-0.1,0.4-0.3,0.6-0.4c0.7-0.4,1.3-1,1.9-1.5c0.1-0.1,0.2-0.1,0.2-0.2l35.8-47.7l16.5,15.4c3,2.8,7.4,2.6,10.1-0.5L137.1,80
	c3.7,2.4,7.9,3.8,12.6,3.8c13.6,0,24.7-11.9,24.7-26.8c0-14.7-11-26.8-24.7-26.8c-13.6,0-24.6,11.9-24.7,26.8c0,4,0.8,7.7,2.3,11.1
	l-27.8,32.2L82.8,84.7c-3.1-2.9-7.7-2.5-10.3,0.8l-0.1,0.1l-38.5,51.2H17.8c-0.5,0-0.8-0.4-0.8-0.9l0,0V22.3c0-0.4,0.4-0.9,0.8-0.9
	h164.3c0.4,0,0.8,0.4,0.8,0.9v113.4c0,0.5-0.4,0.9-0.8,0.9l0,0h-85c-4,0-7.3,3.6-7.3,7.9l0,0c0,0.2,0.1,0.3,0.1,0.4v0.1v33.6H53.5
	c-4,0-7.3,3.6-7.3,7.9s3.3,7.9,7.3,7.9h92.9c4,0,7.3-3.6,7.3-7.9s-3.3-7.9-7.3-7.9h-41.9v-26.1h77.6c8.5,0,15.4-7.6,15.4-16.8V22.3
	C197.6,13.1,190.6,5.5,182.1,5.5z M149.6,46.3c5.6,0,10.1,4.8,10.1,10.8s-4.4,10.9-10,10.9s-10.1-4.8-10.1-10.8l0,0
	C139.6,51.2,144.1,46.3,149.6,46.3z"/>
</svg>
