<?xml version="1.0" encoding="utf-8"?>
<!-- Generator: Adobe Illustrator 24.0.0, SVG Export Plug-In . SVG Version: 6.00 Build 0)  -->
<svg version="1.1" id="图层_1" xmlns="http://www.w3.org/2000/svg" xmlns:xlink="http://www.w3.org/1999/xlink" x="0px" y="0px"
	 viewBox="0 0 200 200" style="enable-background:new 0 0 200 200;" xml:space="preserve">
<path d="M189.6,180.6l-27.8-27.8c15.2-16.2,24.5-38,24.5-61.9C186.4,40.8,145.6,0,95.5,0C45.3,0,4.5,40.8,4.5,90.9
	c0,18,5.3,35.5,15.3,50.4c2.1,3.1,6.3,4,9.5,1.9c3.1-2.1,4-6.3,1.9-9.5c-8.5-12.7-13-27.5-13-42.9c0-42.6,34.7-77.3,77.3-77.3
	s77.3,34.7,77.3,77.3s-34.7,77.3-77.3,77.3c-15.4,0-30.2-4.5-43-13.1c-3.1-2.1-7.4-1.3-9.5,1.9c-2.1,3.1-1.3,7.4,1.9,9.5
	c15,10.1,32.5,15.4,50.6,15.4c18,0,34.8-5.3,48.9-14.4l29.2,29.2c2.2,2.2,5.1,3.3,8,3.3c2.9,0,5.8-1.1,8-3.3
	C194.1,192.2,194.1,185,189.6,180.6z M48.3,77.5c5.1-19.7,21.4-34,41.5-36.5c3.7-0.5,6.4-3.9,5.9-7.6c-0.5-3.7-3.9-6.4-7.6-5.9
	c-25.7,3.2-46.5,21.5-53,46.6c-0.9,3.6,1.2,7.4,4.9,8.3c0.6,0.1,1.1,0.2,1.7,0.2C44.8,82.6,47.6,80.6,48.3,77.5z"/>
</svg>
