<?xml version="1.0" encoding="utf-8"?>
<!-- Generator: Adobe Illustrator 24.0.0, SVG Export Plug-In . SVG Version: 6.00 Build 0)  -->
<svg version="1.1" id="图层_1" xmlns="http://www.w3.org/2000/svg" xmlns:xlink="http://www.w3.org/1999/xlink" x="0px" y="0px"
	 viewBox="0 0 200 200" style="enable-background:new 0 0 200 200;" xml:space="preserve">
<style type="text/css">
	.st0{fill:#CF111B;}
</style>
<path class="st0" d="M97.4,47.6c0.5-0.4,1-0.5,1.6-0.5c0.6,0,1.1,0.2,1.6,0.5c0.9,0.7,1.3,2,0.9,3.1l-13,33l76.4,0
	c1.5,0,2.6,1.2,2.6,2.6l0,26.4c0,1.5-1.2,2.6-2.6,2.6H88.4l13,33c0.4,1.1,0.1,2.4-0.9,3.1c-0.9,0.7-2.3,0.7-3.2,0l-64.8-49.8
	c-0.7-0.5-1-1.3-1-2.1c0-0.8,0.4-1.6,1-2.1L97.4,47.6z M99.5,3C152.7,3,196,46.3,196,99.5S152.7,196,99.5,196S3,152.7,3,99.5
	S46.3,3,99.5,3z M99.5,13.6c-47.4,0-85.9,38.5-85.9,85.9s38.5,85.9,85.9,85.9c47.4,0,85.9-38.5,85.9-85.9
	C185.4,52.2,146.9,13.6,99.5,13.6z"/>
</svg>
